<?xml version="1.0" encoding="utf-8"?>
<!-- Generator: Adobe Illustrator 23.0.6, SVG Export Plug-In . SVG Version: 6.00 Build 0)  -->
<svg version="1.1" id="Layer_1" xmlns="http://www.w3.org/2000/svg" xmlns:xlink="http://www.w3.org/1999/xlink" x="0px" y="0px"
	 viewBox="0 0 160 200" style="enable-background:new 0 0 160 200;" xml:space="preserve" fill="red">
<style type="text/css">
 .st0{fill:#E5AF98;} /* skin */
  .st7{fill:#E08168;} /* nose */
	.st8{fill:#BF8A55;} /* hair */
  .st9{fill:#0000ff;} /* glasses */
  .st10{fill:none;stroke:#0000ff;stroke-width:3.084;stroke-miterlimit:10;} /* glasses */
</style>

<!-- rect width="100%" height="100%" style="fill:rgb(0,0,255);stroke-width:3;stroke:rgb(0,0,0)" / --> 

<g transform="rotate(-3 80 100)">
<g transform="translate(-835 -90)">

	<path class="st0" d="M959.3,187.6c0,39.9-20.6,90.2-50.8,90.2s-54.2-40.4-54.2-80.3s24.5-72.2,54.7-72.2
		C939.2,125.3,959.3,147.7,959.3,187.6z"/>
<!-- nose -->
	<path class="st7" d="M888.9,175.6c-1.6,2.4-2.4,32.8-2.4,32.8s8,16,13.6,10.4c5.6-5.6,12.8-8,12-12.8s-8.8-32-8.8-32L888.9,175.6z"
		/>
<!-- hair -->
	<path class="st8" d="M855.9,174.5l15.9-24.6c0,0,19.6-17.5,18.8-11.1c-0.8,6.4-12,14.4-3.2,9.6c8.8-4.8,23.2-19.2,21.6-12.8
		c-1.6,6.4,10.4,19.2,10.4,11.2s6.4-5.6,8-0.8c1.6,4.8,8,24,8,18.4c0-5.6,7.2-10.4,8.8-7.2s11.2,24.8,11.2,30.4
		c0,5.6-2.4,32,1.6,23.2s7.2-44,7.2-44s27.2-1.6,15.2-8.8s-16.8-10.4-19.2-13.6c-2.4-3.2,12.8-14.4,1.6-16.8
		c-11.2-2.4-21.6-2.4-21.6-9.6c0-7.2-3.2-7.2-16-8.8c-12.8-1.6-10.4-1.6-18.4-8.8s-14.4,8.8-17.6,13.6c-3.2,4.8-16.8-10.4-20,1.6
		s7.2,14.4-2.4,20.8c-9.6,6.4-12,11.2-11.2,17.6C855.3,160.4,855.9,174.5,855.9,174.5z"/>
<!-- glasses -->
	<g>
		<path class="st9" d="M894,178c-2.5,12.3-8.2,22.4-21.5,22.4c-13.3,0-19.3-4.8-20.8-15.2c-1.8-12.9,3.7-16,18.6-18.4
			C883.4,164.7,895.5,170.8,894,178z"/>
		<path class="st9" d="M901.4,177.3c2.5,12.3,8.2,22.4,21.5,22.4c13.3,0,19.3-4.8,20.8-15.2c1.8-12.9-3.7-16-18.6-18.4
			C912,164,899.9,170.1,901.4,177.3z"/>
		<path class="st10" d="M926.3,168c0,0-34.2-4.8-55.7,0.8"/>
		<path class="st10" d="M890.3,177.2c0-1.9,8.2-5.7,16.3-0.8"/>
	</g>
</g>
</g>
</svg>
