<?xml version="1.0" encoding="utf-8"?>
<!-- Generator: Adobe Illustrator 23.0.6, SVG Export Plug-In . SVG Version: 6.00 Build 0)  -->
<svg version="1.1" id="Layer_1" xmlns="http://www.w3.org/2000/svg" xmlns:xlink="http://www.w3.org/1999/xlink" x="0px" y="0px"
	 viewBox="0 0 1920 1080" style="enable-background:new 0 0 1920 1080;" xml:space="preserve">
<style type="text/css">
 .st0{fill:#E5AF98;} /* skin */
  .st1{clip-path:url(#SVGID_2_);}
  .st2{fill:#BFBC93;}
  .st3{fill:#A39B6C;}
  .st4{fill:#F0E4C8;}
  .st5{fill:#877B61;}
  .st6{fill:#9771DF;} /* shirt */
  .st7{fill:#E08168;} /* nose */
	.st8{fill:#BF8A55;} /* hair */
  .st9{fill:#112D42;} /* glasses */
  .st10{fill:none;stroke:#112D42;stroke-width:3.084;stroke-miterlimit:10;}
  .st11{fill:#BD0015;} /* shoes */
  .st12{fill:#754B25;} /* bottle */
  .st13{fill:#FFFFFF;} /* bottle label */
  .st14{clip-path:url(#SVGID_4_);fill:#FC0226;} /* R */
</style>
<g>
	<path class="st0" d="M856.4,648.9c0,0-2,102-2,108s4,138,7,141s24.3,13,26,1c1.1-8,12-46.8,17-83c2.2-15.9-4-44-4-49s8-90,8-90
		L856.4,648.9z"/>
	<path class="st0" d="M997.3,703.7c0.1,4.1-0.9,69.1-0.9,69.1s10,39,10,53s2,76,1,82s-4,10-4,10l-23-3c0,0-28.5-110.1-31-124
		c-7-39-14-104-14-104L997.3,703.7z"/>
	<g>
		<defs>
			<path id="SVGID_1_" d="M997.7,544.1c0,0,5.7,80.9,1.9,96.4c-3.8,15.5,4.8,66.2,4.8,70.5c0,4.3-71.2,41.3-75.3,7.7
				c-2.8-23.3-6.3-46.6-9.3-64.5c-0.3-1.6-2.9-1.4-2.9,0.2c0.9,26.5,0.8,67.1-8.8,69.4c-10.8,2.6-51.5,18.9-58.1-6.9
				c-6.7-25.8,21.1-180.3,21.1-180.3L997.7,544.1z"/>
		</defs>
		<clipPath id="SVGID_2_">
			<use xlink:href="#SVGID_1_"  style="overflow:visible;"/>
		</clipPath>
		<g class="st1">
			<rect x="773.5" y="529.4" class="st2" width="373.7" height="224.9"/>
			<path class="st3" d="M859.2,552.2c0.3,0.8,0.3,1.6,0.6,2.4c0.5,1,1.3,1.9,2.3,2.6c0.6,0.4,1.3,0.7,1.9,0.9c1.5,0.5,3.9,1,5.2,2
				c0.1,0.1,0.2,0.2,0.3,0.3c0.8,0.8,1.3,3.3,3,2c0.2-0.1,0.3-0.4,0.5-0.7c0.1-0.2,0.2-0.4,0.3-0.6c0.4-0.6,0.4-0.2,0.7-1
				c0.1-0.5-0.9-1.9-0.1-1.8c0.3,0,0.5-0.3,0.2-0.5c-0.2-0.1-0.5-0.3-0.5-0.5c-0.2-0.6,0.3-2.2,0.6-2.7c0.5-0.8,1.5-1.4,2.4-1.8
				c1-0.5,1.5-0.9,2.5,0.1c1.5,1.5,1.3,4,2.5,5.8c0.9,1.3,3.3,1.9,4.9,0.8c0.7-0.5,0.6-1.4,1.2-2c0.7-0.7,1.4-0.7,2.3-1
				c1.3-0.4,1.4-0.4,1.7-1.6c0.3-0.9,0.9-1.7,1.1-2.7c0.4-2.1-1.8-2.9-2-4.8c-0.3-1.8,1.2-3,2.9-3.6c2.2-0.8,4.4-1.2,6.7-0.6
				c0.9,0.2,1.9,0.3,2.8,0.6c0.8,0.2,1.6,0.8,2.4,0.9c1.9,0.2,1.5-0.8,0.5-1.5c-0.9-0.6-2-1-3.1-1.2c-1.3-0.3-3.4-0.5-3.9-1.9
				c-0.6-1.6,1.2-3.2,2.5-3.9c1-0.6,2.3-1.2,3.4-1.4c1.3-0.2,2.2,0.7,3.4,0.7c2.1,0,3.9-2,6-2.4c2.9-0.6,4.2,1.3,6.7,2.2
				c1.6,0.6,3.7,1.6,5,0.2c1.7-1.9-0.4-2.3-1.4-3.7c-0.5-0.7-0.7-1.4-0.9-2.2h-59.3c0.1,0.3,0.2,0.7,0.2,1c0,0.3,0,0.6-0.1,0.9
				c-0.3,0.6-1,0.8-1.3,1.5c-0.2,0.7-0.1,1.7-0.2,2.4c-0.1,0.4-0.3,0.7-0.3,1.1c0,0.9,0.7,1.4,1.1,2.1c0.9,1.5,1,3.2-0.6,4.4
				c-0.7,0.5-1.2,0.8-1.6,1.5c-0.1,0.1-0.1,0.3-0.2,0.4c-0.2,0.6-0.1,1.3-0.4,1.9c-0.7,1.4-3.2,1.3-3.3,2.8
				C857.8,550.4,858.9,551.3,859.2,552.2z M893.2,538.2c0.5,0.6-0.5,1-0.9,0.5C892,538.2,892.8,537.7,893.2,538.2z M889.4,538.7
				c1-0.2,2.2,1.3,1.1,1.9C889.2,541.2,888.5,538.8,889.4,538.7z M879.7,547.1c0.8,0.6,0.8,0.6,1.8,0.6c0.6,0,1-0.1,0.9,0.6
				c-0.3,1.4-2.7,0.2-2.8-0.8C879.6,547.4,879.7,547.2,879.7,547.1z M872.9,534.8c-0.4,0.3-1-0.2-0.7-0.6
				C872.5,533.7,873.4,534.3,872.9,534.8z"/>
			<path class="st4" d="M773.5,754.4v-53.7c0.2,0,0.4,0.1,0.5,0.1c1.5,0.4,5.9,4.5,6.8,5.8c0.7,1-0.8,1.3,0.2,2.2
				c0.8,0.7,2.7,0.6,3.7,0.7c4.5,0.8,6.4,1.8,10.2,4.2c1.7,1.1,3.3,1.4,5.1,2.1c0.9,0.4,0.6,1,1.9,1.3c0.6,0.2,1.4,0.3,2.1,0.3
				c1.7,0,3.5-0.2,4.7-0.3c1.5-0.1,2.3,0.1,3.6-0.8c1.3-0.9,1.3-2.5,2.9-3c0.2-0.1,0.5-0.1,0.8-0.1c2.1-0.1,3.5,2,5.3,2.6
				c3,1,3.3-0.2,5.9-0.7c1.9-0.4,5.9-1.3,7.8-0.4c2,1,7.7,6.7,5.7,8.4c-0.3,0.3-2.4,0.4-3.2,0.8c-1.5,0.9-1.9,2.6-3,3.5
				c-1.8,1.5-3.6,1.5-5.4,0.9c-1.7-0.5-3.5-1.5-5.3-2c-3.7-1-7.2-3.1-11.2-3.1c-2.8,0-1.7-0.3-3.5,1.8c-1,1.3-1.8,2.6-2.2,4.1
				c-0.4,1.6-0.5,4,0.1,5.6c1.1,2.7,2.3,2.1,4.9,1.9c0.8,0,1.8-0.2,2.9-0.3c3.1-0.4,6.9-0.9,9,0.4c2.1,1.3,2.5,3.3,2.4,5.5
				c-0.1,2,2.1,3.3,4.1,2.6c2.1-0.8,4.2-1.2,4.3,0.2c0.1,1.6-4.6,1.3-3.3,3.5c0.6,1,4-1.8,4.4-2.4c0.4-0.6-1-1.5-0.2-1.9
				c1.1-0.5,2.6,0.2,3.6,0.6c2.4,0.8,3.5,1.9,4.8,3.4c0.3,0.4,1,0.4,1.4,0.1c0.8-0.7,1.4,0.2,1.7,1.2c0.1,0.3,0.2,0.6,0.2,0.9
				c0.1,0.7-0.2,1.3,0.3,1.9c0.4,0.3,0.9,0.5,1.4,0.8c0.3,0.1,0.6,0.3,0.8,0.4c0.4,0.2,0.8,0.4,1.1,0.7H773.5z"/>
			<path class="st4" d="M1130.7,695.5c0.5,1.1-0.6,1.7-1.3,1.6c-0.6-0.1-1.1-0.2-1-0.9c0.1-0.7,0.8-1.3,1.6-1.2
				C1130.3,695,1130.6,695.3,1130.7,695.5z"/>
			<path class="st4" d="M1124.5,747.8c0-0.3-1.8-1.9-1.6-2.5c0.4-0.9,2.7-0.7,3-0.6c0.6,0.1,0.9,0.7,1.4,0.4
				c0.2-0.1,0.3-0.4,0.3-0.6c0-0.3,0-0.6,0.2-0.9c1.4-2.7,3.2-4,4.4-6.6c0.8-1.7,2.1-1.5,0.7-3.7c-0.7-1.1-1.4-0.2-2.3-1.5
				c-0.1-0.7-0.2-1.4-0.2-2c-0.2-0.8-0.7-1-1.6-0.4c0,0-2.4-0.3-2.6-0.5c0.1,0-0.7-3.2-0.7-3.2c0-3,2-2.7,4.4-3.9
				c1.8-0.9,4.5-2.7,5.3-4.5c0.3-0.6-0.3-3.2-0.1-4.2c0.3-1.3,0.2-2,0.8-3c1-1.7,2.9-3.3,4.2-4.8c1.8-2.1,4.3-4.8,7.1-4.4v53.7
				h-25.6c0-0.1,0.1-0.2,0.1-0.4c0.5-1.3,1.5-2.7,1.9-3.6C1124.4,748.6,1124.9,750.2,1124.5,747.8z"/>
			<path class="st4" d="M1134.6,687.3c-0.9-1-0.6-2.2,0.8-3.3c1.3-1,2.1-0.9,3.3,0.5c1.1,1.3,1.3,2.2,0.5,2.8
				C1138.1,688.2,1135.4,688.2,1134.6,687.3z"/>
			<path class="st4" d="M1115.3,562.7c0.8,0.6,0.9,1.6,0.5,2.4c-0.5,0.7-1.4,0.5-1.8,0.3c-0.3-0.1-0.5-0.3-0.5-0.6
				c-0.1-0.5-0.3-0.7-0.6-1c-0.7-0.5-0.5-1.5,0.3-1.6C1113.7,562,1114.9,562.4,1115.3,562.7z"/>
			<path class="st4" d="M1113.6,557.3c0.4,0.8-0.4,1.4-1,1.3c-0.4-0.1-0.9-0.2-0.8-0.7c0-0.6,0.6-1.1,1.3-1
				C1113.4,557,1113.6,557.2,1113.6,557.3z"/>
			<path class="st4" d="M1121.6,529.4h25.6v38.4c-1.3-0.7-2.7-1.2-4.1-1.6c-2.8-0.8-4.8-1.2-7,0.2c-0.5,0.3-1.2,0.1-1.5-0.4
				c-0.2-0.4-0.4-0.9-0.3-1.2c0.1-0.5-0.3-0.8-0.7-0.9c-0.3,0-0.5-0.1-0.7-0.3c-0.6-0.5-1.6-1.5-1.9-1.9c-0.8-1.4-0.2-1.6-1-2.6
				c-0.8-1-2,0.3-2.8-1.7c-0.2-0.5-0.3-1.1-0.2-1.7c0.1-0.9,0.5-1.7,1.1-2.3c1-1.1,2.7-0.7,3.4-1.5c0.3-0.3,1.3-2.9,1.3-3.2
				c-0.2-1.5-1.7-0.8-1.9-2c-0.5-3.6,2.9-1.3,4.8-3.3c1.1-1.1,0.3-2.4,0.2-3.7c0-0.2,0.1-2.6,0.2-2.3c-0.8-2.4-2.6-2.2-4.5-2.3
				c-0.9,0.5-1.8,0.6-2.8,0.1c-0.6-0.6-1.2-1.2-1.9-1.6c-2.2-0.6-3.1,1.3-5.1-1.2C1121.1,531.6,1121.2,530.5,1121.6,529.4z"/>
			<path class="st4" d="M773.5,567.8v-38.4h77.3c3.7,2.4,7.1,6.3,8.8,10.1c0.6,1.5,0.6,2.5,1.4,3.9c0.2,0.3,0.4,0.6,0.7,0.9
				c0.3,0.4,0.7,0.8,0.9,1.2c2.3,4-0.9,1.9-3.4,3.4c-1,0.6,1.7,1.7,1.9,2c0.4,0.8-0.1,1.2,0.3,2.3c0.7,2.1,1.5,3.2,0.9,3.9
				c-0.4,0.4-1.2,0.7-2.9,1c-3.2,0.5-7.8,0.9-10.3,3c-0.5,0.5,1.1,1.4,0.1,2.1c-1,0.8-5.1,0.6-6.6,0.8c-0.8,0.1-3,0.3-3.7,0.5
				c-2.7,0.7-2.4,1.4-4.5,2.8c-1.2,0.8-2.5,0.3-3.4,0.8c-1.1,0.7-0.8,1-1.8,2.2c-1,1.1-1.5,0.5-1.8,2.3c-0.2,1.1,0.8,2.3,1.2,3.3
				c1,2.1,1.4,3.3,0.7,4.2c-0.5,0.7-1.6,1.3-3.6,1.9c-1.6,0.5-2.1,1.1-4.1,0.9c-0.9-0.1-1.3-1.4-1.7-1.4c-1.4,0-3.5,0.7-5.1,1.2l0,0
				c-0.1,0-0.3,0.1-0.4,0.1h0c-0.3,0.1-0.5,0.1-0.7,0.2c-0.5,0.1-0.9,0.2-1.4,0.3c-1.4,0.3-2.8,0.6-4-0.2c-0.7-0.5-0.2-1.5-0.8-2
				c-2.3-2.2-4.9-2.1-7.8-2.9c-0.8-0.2-1.5-0.6-2.2-0.9c-1-0.5-2.1-0.9-3.5-0.7c-3.9,0.5-5.3,3.5-10.1,2.7c-5.5-0.9-5.2-4.4-6-7.9
				c-0.2-0.8-0.7-1.4-1.5-1.8c-0.8-0.4-2-1.3-2.8-1.7C773.5,567.8,773.5,567.8,773.5,567.8z"/>
			<path class="st4" d="M1054.9,531c0-0.5,0.2-1.1,0.5-1.6h20.5c0.7,0.7,1.5,1.3,2.1,2.1c0.9,1.2,1,1.4,2.7,2
				c0.3,0.1,0.6,0.2,0.8,0.4c0.7,0.4,1.2,0.9,2,1.3c2.4,1,4.5,1.9,6.2,3.8c2.4,2.7,0,5.5-1.7,8c-1.5,2.2-3.5,4.2-4.2,6.7
				c-0.4,1.3-0.4,2.5-1.3,3.6c-0.4,0.5-1,0.8-1.4,1.3c-0.7,0.7-0.5,1.3-0.9,2.1c-0.2,0.4-1.1,0.8-1.2,1.2c-0.1,0.4,0.4,0.7,0.2,1
				c-0.2,0.6-0.5,0.7-1.1,0.7c-0.2,0-1,0-1.1,0.4c-0.2,0.4-0.3,0.7-0.7,0.9c-1.1,0.5-2.2,0.6-3.3,0.5c-0.9-0.1-1.8-0.4-3-0.8
				c-0.5-0.2-3.4-1.7-2.9-2.4c0.2-0.3,1-0.3,1.2-0.3c0.7,0,1.1,0.1,1.7,0.1c1,0,2.6-0.8,1.7-1.9c-1.1-1.3-2.6,0.4-3.7,0.5
				c-0.5,0.1-1.3-0.3-1.7,0.1c-0.5,0.5,0.4,1.1-0.1,1.6c-0.6,0.7-1.9-0.4-2.7-1.2c-0.3-0.3-0.5-0.5-0.6-0.7
				c-0.9-1.3-1.5-2.7-2.5-3.9c-0.3-0.4-0.4-0.7-0.5-1.1c-0.1-0.6,0.1-1.1,0.2-1.7c0.1-0.5-0.4-0.8-0.9-0.7c-0.4,0.1-0.8,0.2-1.2,0.3
				c-0.1,0-0.3,0-0.4,0c-0.4-0.1-0.7-0.5-0.5-0.9c0.2-0.4,0.5-0.9,0.8-1.4v0c0.1-0.2,0.3-0.4,0.4-0.6c0.6-1.2,1.5-1.2,0.7-2.7
				c-0.7-1.3-1.6-2.4-2.1-3.8c-0.6-1.6-0.9-3.1-1.2-4.8c-0.4-2.4-0.7-5.3-0.8-7.8C1054.9,531.2,1054.9,531.1,1054.9,531z"/>
			<path class="st4" d="M888.3,579.7c0.9,1.5,0.2,2.9,0.8,4.5c0.6,1.6,1.9,2.9,2.4,4.5c0.4,1.5,0.8,3,1.3,4.4
				c0.5,1.6,0.9,2.7,2.9,3.1c0.9,0.2,1.3,0.1,2-0.3c0.8-0.4,1-0.3,1.8,0c3.1,1.2,5.4,3.6,6.4,6.5c0.6,1.8,0.6,3.5-0.6,5
				c-0.7,0.8-2.5,0.7-2.7,1.8c-0.2,1.1,1.6,1.8,2.3,2.5c0.8,0.8,0.8,2.2,1.7,3c1.3,1,3.3-0.1,4.7,0.8c1.2,0.7,1.7,2.4,3.2,2.7
				c1.4,0.3,2.2-1.2,3.3-1.7c1.3-0.7,3.3-1,4.7-0.3c1.4,0.6,1.9,2.4,1.3,3.7c-0.4,0.7-1.1,1.3-1.7,1.8c-0.5,0.4-0.3,1.2,0.3,1.5
				c0.4,0.2,0.8,0.4,1.3,0.6c0.7,0.2,1.7-0.1,2.3,0.3c0.4,0.3,0.7,1,1,1.4c0.5,0.6,0.9,0.9,1.2,1.6c0.7,1.8-0.2,4.8-2.2,5.9
				c-0.4,0.2-0.3,0.7,0.1,0.9c1.9,0.7,3.4,2.3,4.8,2.2c0.5,0,1.2,0,1.2-0.9c0-0.3-0.1-0.8-0.1-0.8c0-0.3,0.2-0.9,0.6-1
				c0.6-0.2,1-0.3,1.7-0.5c1-0.3,2,0.3,2.5,1.1c0.4,0.5,0.5,1,0.7,1.5c-0.2,0.2-0.3,0.4-0.5,0.7c0,0,0,0.1-0.1,0.1
				c-0.5,0.5-0.4,1,0,1.5c0.2,0.2,0.5,0.4,0.8,0.7c0.3,0.2,0.8,0.3,1.2,0.2c0.2-0.1,0.3-0.1,0.5-0.2c0.6,0.5,1.2,0.9,1.5,1.6
				c0.2,0.6,0,1.4,0.5,1.9c0.5,0.5,1.7,0.5,2.4,0.3c0.9-0.3,1-0.8,1.3-1.6c0.3-1,0.5-2.1,0.4-3.1c-0.1-1-0.4-1.8-0.2-2.8
				c0.4-1.4,1.6-2.4,2.8-3.2c1.5-0.8,3-1.2,3.3-3c0.3-1.8,1.3-2.4,2.9-3.3c1.4-0.7,3.8-1.7,5-0.2c0.7,0.9,0.3,2.1,0,3.1
				c-0.3,1-0.7,2.2-0.5,3.3c0.1,0.8,0.8,1.6,1.5,0.6c0.6-0.8,0.4-2,0.5-2.9c0.3-1.4,0.8-3.1,1.7-4.3c1.9-2.4,5.5-4.8,7.7-1.4
				c1,1.5,1.5,2.3,3.6,2.5c0.8,0.1,1.5,0.5,2.3,0.5c0.9,0.1,1.3-0.6,1.8-1.1c1.4-1.4,3.3-0.1,4.6-1.5c1.4-1.4,1.1-2.5,0.1-4
				c-0.7-1.1-5.5-4-2.9-5.3c1.1-0.5,2.4-1.1,3.6-1c0.6,0,1.4,0.1,2.1,0.7c0.4,0.4,2,2.3,2.7,2.3c0.5,0,0.4-0.6,0.6-0.8
				c0.6-0.4,2,0.4,2.6,0.2c0.6-0.2,0.3-0.9-0.2-1.7c-0.5-0.7-1.1-1.2-1.3-2.2c-0.2-1,0.1-2.2,0.3-3.2c0.3-1.9,0.5-3.9-0.9-5.5
				c-1-1.1-2.1-2.1-3.1-3.2c-1.4-1.6-2,0-3.7,0.3c-1.6,0.3-2.8-0.9-4.4-0.3c-0.8,0.3-1.3,0.7-2.3,0.5c-0.8-0.2-1.5-0.6-2-1.2
				c-1.1-1.3-1.5-2.1-3.3-2.8c-0.9-0.3-1.7-0.7-2.7-0.7c-0.7,0.1-1.1,0.3-1.9-0.1c-1.5-0.6-2.3-2.1-2.4-3.5
				c-0.1-1.1-0.1-1.9-1.6-2.1c-2-0.2-4.5,1.2-6-0.4c-1.2-1.3-2.3-2.3-4.1-2.9c-2-0.7-4.2-1-6.1-1.8c-1.5-0.6-2.1-1.3-1.3-2.7
				c0.6-1,1.7-1.7,2.2-2.7c0.3-0.6,0.1-1.1,0-1.7c0-1.5,1.4-1.8,2.1-3c0.5-0.9,0.1-1.8,0.1-2.8c0-0.7,0.5-1.6,0.2-2.3
				c-0.3-0.6-0.4-1-1.2-1.6c-0.9-0.6-0.9,0.4-1.5,0.4c-0.6,0-1-1-1.3-1.4c-0.5-0.8-1-1.5-1.1-2.4c-0.1-0.9,0-1.7-0.5-2.5
				c-0.9-1.5-2.9-2.2-4.2-3.4c-0.7-0.7-1.3-1.4-1.9-2.1c-0.7-0.7-1.7-1.2-2.2-2c-0.5-0.7-0.5-1.6-1-2.2c-0.5-0.6-1.3-0.9-2.1-1.2
				c-2-0.7-3.9-1.1-6-0.6c-1.1,0.3-1.5,0.1-2.5-0.2c-1-0.3-1.7,0-2.6,0.1c-0.4,0-1.2-0.3-1.5-0.2c-0.3,0.1-0.1,0.1-0.4,0.3
				c-0.7,0.3-1.2,1.1-1.7,1.7c-0.9,1.2-1.7,1.8-3.3,2.2c-0.8,0.2-2.6,0.3-2.5,1.3c0.1,1,1.7,1.8,2.3,2.6c0.6,0.8,0.9,1.7,1.3,2.6
				c0.3,0.7,0.8,1.4,1,2.1c0.5,1.8-1.4,2.6-2.5,3.8c-1,1.1-0.6,2.6-1.3,3.9c-0.4,0.7-0.9,1.4-1.8,1.7c-0.7,0.2-1.5-0.1-2.2,0.3
				c-0.5,0.3-0.6,0.9-0.9,1.3c-0.4,0.7-1,1.3-1.7,1.7c-1.4,0.9-3.3,0.7-4.8,0c-0.9-0.4-1.2-0.7-2.2-0.4c-0.2,0-0.4,0.2-0.6,0.3
				c-0.4,0.1-0.6-0.1-0.9-0.1c-1.3,0-2.5,0.1-3.4-1.3c-0.5-0.7-0.5-1.5-0.8-2.3c-0.5-1.2-1.4-1.3-2.5-0.5c-1.2,0.9-1.6,2.4-2.2,3.7
				C888,577,887.4,578.2,888.3,579.7z"/>
			<path class="st4" d="M921,704.2c0.1-1.1,4.5-0.3,5.1-0.1c2.4,0.6,5.2,2.1,7.5,1c3.4-1.7,1.6-3.1,6.4-2.1c1.8,0.4,3.2,1,4.7,1.7h0
				c0.8,0.4,1.6,0.7,2.5,1.1c3.1,1.2,6.6,1.7,8.5,3.9c0.8,1,1.3,2.2,1.4,4c0.1,2.8-0.9,2.7,2.4,3.7c1.7,0.5,2.2-0.2,3.8,1.2
				c0.5,0.5,1.6,0.6,2.6,0.6c1.6-0.1,4.1,0.1,3.9,2.5c-0.1,1.1-0.6,2.4,2.7,2.5c1.9,0,3.7-0.7,4.2-2.5c0.2-1-0.5-2,0.2-3.3
				c0.9-1.6,5-2.3,7.8,0.2c1.5,1.3,5.7,0.4,4.4-3.3c-1.1-3.2-2.9-2.5-1.2-6.2c0.4-0.9,0.8-2,1.3-3c0.8-1.6,1.8-3,3.3-3.9
				c3.5-1.9,10.3-4.6,12.7-5.1c1-0.2,2.4,0.8,3.3,0.6c1.5-0.3,1.9-2.7,3.9-1.5c1.9,1.1,3.6,1.4,5.4,3.4c0.8,0.9-0.8,3.1,1.3,3.5
				c1.1,0.2,2.1-1.5,2.3-2.2c0.4-1.3-0.7-1.8,0-3.6c0.7-1.7,1.7-2.2,3.2-3.2c0.9-0.6,0.7-2.3,2.5-1.6c2,0.8,1.2,1.5,1.7,2.2
				c0,0,0.1,0.1,0.1,0.1c1,1,3.9,0.5,5.9-0.4c0.7-0.3,1.3-0.7,1.6-1c0.4-0.4,2.6-2.3,3.5-1.9c1.6,0.7-0.9,3,0.3,4.2
				c2.1,2,8-1.5,8.8-3.2c0.7-1.4-0.4-2.7,0.8-4.1c0.6-0.7,2.6-1.3,3.9-1.7c0.2,0,0.3-0.1,0.4-0.1c2.9-0.7,9.6,0.7,11.6,2.7
				c-0.1,0.8,0,1.5,0.4,2.2c0.7,0.4,1.4,0.4,2.1,0.1c1.1,0.3,2.2-0.4,3.5,0.3c1.5,0.7,1.7,1.9,3.4,2.5c1.3,0.5,3,0.2,4.5,1
				c0.2,0.1,0.3,0.2,0.5,0.4c0.3,0.3,0.7,0.7,1,1c0.3,0.3,0.6,0.5,0.9,0.5c1.5,0.3,3.3-1,4.6-1.5c3.4-1.1,7.9-1.1,10.5-3.2
				c1.7-1.3,2.6-1.7,3.2-1.4c0.6,0.4,0.8,1.6,1,3.4c0.1,1.2,2,1.8,2.5,3c0.4,0.9,0,1.5,0.9,2.2c1.9,1.5,5.5-1,4.8,2.7
				c-0.1,0.8-1,1.3-1.8,1.1c-3.8-1-6.7,0.4-10.6,1.4c-2,0.5-4.7-0.3-6.3,1.1c-1.3,1.1-0.6,3.5-1.1,4.9c-1.7,4.5-6.8,3.1-10.9,4.4
				c-2.1,0.6-5.3,0.9-5.7,1.7c-0.1,0.2-0.1,0.3-0.1,0.4c0,0.4,0.2,0.6,0.5,0.8c0.2,0.1,0.5,0.3,0.8,0.4c0.7,0.3,0.7,1.2,0,1.6
				c-0.2,0.1-0.3,0.2-0.5,0.2c-1.1,0.5-2.2,1-2.8,1.1c-1.6,0.2-2.4-1.4-3.6-1.9c-1.5-0.7-3-0.4-4.4-1c-1.9-0.8-1.6-1.5-2.6-2.9
				c-1.7-2.3-3.3-5.7-7-4.1c-4.1,1.7-2.1,4.8-0.7,7.2c2,3.5,1.6,6.1,4.6,9.2c1.2,1.2,2.4,2.3,3.8,3.3c0.6,0.4,1.5,0.3,2.2,0.6
				c0.4,0.1,0.8,0.4,0.9,1c0.1,0.6-1.7,1.9-1.7,2.5c-0.1,1.5,1.5,2.2,2,3.4c0.5,1.4-0.4,5.2,1.5,6.3c0.5,0.3,0.6,0.9,0.3,1.3
				c-1.9,2.5-3.4,5.5-5.5,7.7c-0.1,0.1-0.2,0.2-0.3,0.3h-49.5c-2.3-0.7-4.8-1.1-7.4-1.1c-3.3,0-8-0.5-11.1,0.5
				c-0.5,0.2-0.9,0.3-1.4,0.6h-19.6c0,0,0,0,0,0c-1.2-1-0.4-2.3-1.7-4c-0.1-0.2-0.3-0.3-0.4-0.5c-1.4-1.4-2.6-0.8-5.1-1.3
				c0,0-0.1,0-0.1,0c-1.2-0.2-2.3-0.6-3.4-1c-1.8-0.7-3.6-1.5-5.5-1.9c-2.7-0.7-6.1-0.3-8.6-1.4c-2.4-1-1.3-2.2-3-3.4
				c-1.4-1-4.1,0.2-5.7,0c-0.5-0.1-0.9-0.1-1.2-0.2c-3.4-1-2.1-3.9-2.1-6.8c0-1-0.8-3.1-0.7-3.8c0.1-0.4,1.8-0.4,2-1.2
				c0-0.1-0.4-4-0.4-3.9c-1.1-1.6-3.3-1.3-4.3-3.3c-1.2-2.5,0.6-2.3,0.6-4.4c0-0.8-1.1-1.3-1.2-2.2c-0.1-0.5,0.7-1.5,0.6-1.7
				c-0.6-1.3-1.9-2-3.1-2.9c-1.6-1.3-2.9-2-4.4-2.7c-1.4-0.6-1.3,0.4-2.4-0.9C921.1,706.2,920.9,705.1,921,704.2z"/>
			<path class="st4" d="M924.5,689.5c0.9-0.1,1-0.3,1.5-0.4c0.5-0.1,1.4-0.3,1.8-0.1c1,0.3,1,0.4,1.9,1.2c0.5,0.4,1.5,0.2,1.5,1.2
				c0,0.8-1.4,1.4-2.2,1.8c-1,0.5-3.1,1.1-4.7-0.1c-0.5-0.3-0.5-0.6-0.8-1c-0.7-0.7-1.5-0.5-0.8-1.6
				C923.3,690,923.6,689.6,924.5,689.5z"/>
			<path class="st4" d="M909.1,674.8c0.6-0.3,1.2-0.3,1.9-0.1c0.9,0.2,1.7,0.5,2.4,0.9c0.5,0.3,0.8,1.1,0.9,1.7
				c0.2,0.8-1.6,0.8-2.2,0.6c-0.4-0.1-0.7-0.1-0.7,0.3c0,0.3,0,0.7,0,1c0,0.1,0,0.1,0,0.2c-0.1,0.3-0.5,0.5-0.8,0.4
				c0,0-0.1,0-0.1-0.1c-0.3-0.3-0.5-0.6-0.6-1c-0.2-0.9-0.7-1.6-1.5-2c-0.8-0.4-0.5-1-0.2-1.2C908.4,675.1,908.7,674.9,909.1,674.8z
				"/>
			<path class="st4" d="M915.4,687.1c1.4,0.1,2.2,0.4,3.4,1c0.6,0.3,2.1,1.8,1,2.4c-0.4,0.3-2.5-0.7-3-0.8c-1-0.3-2-0.5-2.9-1
				c-0.7-0.4-0.3-0.9,0-1C914.5,687.4,914.6,687.1,915.4,687.1z"/>
			<path class="st4" d="M906.6,673.3c-0.2-0.1-0.5-0.2-0.7-0.4c-0.2-0.1-0.3-0.4-0.2-0.6c0.1-0.2,0.3-0.4,0.4-0.6
				c0.4-0.4,0.8-0.7,0.5-1.4c-0.1-0.2,0-0.4,0.3-0.4c0.9,0,1.2,0.7,1.1,2.4c0,0.5-0.4,1-1,1C906.9,673.4,906.7,673.4,906.6,673.3z"
				/>
			<path class="st4" d="M997.9,580.7c0.2,0.9,2.2,1.2,2.9,1.4c1.6,0.4,3.4,0.9,4,2.4c0.8,2-1.3,3.3,0.3,5.1c0.9,1.1,3.1,3.6,4.6,2.1
				c0.7-0.7,0.6-1.8,1.2-2.6c0,0,0.1-0.1,0.1-0.1c0.4-0.4,0.9-0.8,1.2-1.2c0.5-0.6,0.7-0.9,1.5-1.3c0.4-0.1,0.7,0,1.1-0.1
				c0.3-0.1,0.4-0.5,0.7-0.6c1.2-0.6,1.1,0.1,2.3,0.1c0.8,0,1.5-0.6,2.1-1c0.6-0.4,1.2-0.8,1.9-1.2c1.4-0.9,2.9-1.8,4.5-2.5
				c2.5-1,5.2-1.2,7.9-1.5c2.5-0.3,4.8-1,7.2-1.7c2.2-0.7,3.7,0.9,5.4,2.2c1.7,1.2,2.4,3.1,4.1,4.3c1.5,1,3.5,0.7,5,1.6
				c0.9,0.5,1.4,1.3,2.4,1.9c0.3,0.1,0.5,0.3,0.8,0.4c0.7,0.3,1.3,0.5,2,0.8c1.1,0.5,3.5,1.2,3.6,2.4c0,0.1,0,0.2,0,0.3
				c-0.2,0.6-0.9,1.3-1.1,1.8c-0.4,0.8-0.5,1.7-0.3,2.6c0.3,1.2,1.1,1.9,1.9,2.8c0.8,0.9,0.9,1.6,2,0.5c1.4-1.4-0.1-2.6,2.4-2.5
				c0.2,0,0.4,0,0.6,0c2.5,0.1,3.6-0.7,5.6-2.3c1.4-1.2,3-1.2,4.9-1c2.6,0.5,4.2-1.4,5.1-3.3c1-2.1-0.8-2.4-2.6-3.1
				c-0.5-0.2-1-0.4-1.5-0.5c-1.8-0.5-3.3-0.3-5.5-0.3c-2.6,0-4.8-0.2-6.4-2c-1.7-1.9-4.3-3-5.7-5.1c-1.3-1.9-1.4-4.7-1.4-6.9
				c0-1.4,0.7-2.4,1.2-3.5c0.3-0.6,0.6-1.3,0.6-2c0-1.8-0.8-2-1.9-2.5c-0.4-0.2-0.8-0.4-1.3-0.7c-1.8-1.2-3.6-1.7-5.7-0.9
				c-2.3,0.8-3.5,2.1-6,2c-1.1,0-1.8,0.1-2.8,0.6c-1,0.5-0.6,0.6-1.6,0.4c-1.6-0.4-2.9-1.2-4.6,0.1c-0.8,0.6-0.9,1.4-1.5,2.1
				c-0.8,0.9-2,1.4-3,2c-1.9,1.1-3.6,2.3-6,2.4c-2.9,0.2-5.6-0.4-8.5,0.3c0,0-0.1,0-0.1,0c-2.1,0.4-3.9,0.1-6.1,0.4
				c-2.6,0.4-3.9,0.5-6.3-0.6c-1.8-0.8-3.4,0.2-4.7,1.5c-1.5,1.7-1,3-1.6,4.8c-0.1,0.3-0.2,0.5-0.3,0.7c-0.6,0.7-1.4,0.2-2.6,0
				C999,579.7,997.7,579.8,997.9,580.7z"/>
			<path class="st4" d="M1049.5,650.7c0-1.2,0.8-0.9,1.8-1.1c1.1-0.2,1.2-1.3,2.1-1.7c0.8-0.3,2.8-0.5,3.6-0.2
				c0.9,0.4,1.6,1.4,2.3,2.1c0.7,0.6,0.3,0.9,1,1.6c0.9,0.9,2.1,1.5,3.3,1.9c0.7,0.3,5.9,1.1,3.2,2c-0.8,0.2-1.9-0.6-2.5-0.2
				c-0.5,0.3-0.6,1.8-0.9,2.3c-0.5,0.8-1.3,1.9-2.3,2.2c-1.1,0.3-2.7,0-3.8-0.2c-1.9-0.4-4.7-0.9-5.5-2.6
				C1050.9,654.8,1050.1,652.8,1049.5,650.7z"/>
			<path class="st4" d="M804,687.4c2.8-0.2,3.5-1.6,5.8,0.4c2.6,2.2,6,3.4,8.7,5.9c1.8,1.7,3,4.8,0.8,6.9c-0.7,0.7-1.4,1.2-2.2,1.3
				c-1.6,0-1.7-0.6-2.7-1c-0.8-0.3-2.1,0.2-3-0.4c-0.6-0.4-0.9-1-1.6-1.5c-2.5-1.9-6.8-1.4-10-0.7c-1.7,0.4-2.2,1.6-3.8,1.9
				c-1.6,0.4-2.2,0.5-3.5-0.5c-0.7-0.5-1.1-1.4-1.6-2c-1.1-1.3-1.5-2-0.8-3.1c0.8-1.2,3.5-0.9,4.9-1.5
				C799.4,691,799.5,687.7,804,687.4z"/>
			<path class="st4" d="M1095.9,547.6c-1.2,0-1.9-0.7-1.9-2c-0.1-1.2,0.4-1.6,2-1.7c1.5,0,2.2,0.3,2.2,1.1
				C1098.3,546,1097,547.6,1095.9,547.6z"/>
			<path class="st4" d="M1089.6,573.1c0,1.2-0.6,1.8-1.5,1.7c-0.9,0-1.7-0.8-1.6-1.5c0-0.7,1-1.4,2-1.3
				C1089.3,572,1089.7,572.4,1089.6,573.1z"/>
			<path class="st4" d="M946.9,646.7c0,1.4-0.7,2.1-1.8,2c-1-0.1-2-0.9-2-1.8c0-0.9,1.3-1.7,2.4-1.6
				C946.6,645.4,947,645.9,946.9,646.7z"/>
			<path class="st4" d="M786.2,618.5c-0.3,1.2-1.3,0.9-1.8,0.8c-0.3-0.1-0.7-0.1-1-0.2c-0.4-0.1-0.8,0-1-0.5c-0.2-0.4-1-0.5-1.2-0.6
				c-0.7-0.3-1-0.8-0.7-1.7c0.1-0.2,0.1-0.3,0.2-0.5c0.5-0.5,1-1,1.4-1.5c0.3-0.4,0.8-0.6,1.3-0.6c0.4,0,0.6,0,1.1-0.1
				c0.4,0,1.1,0.2,1.1,0.9c0.1,0.7,0.3,1.1,0.5,1.8C786.5,617.3,786.3,618.1,786.2,618.5z"/>
			<path class="st4" d="M1011.3,529.4h49.5c-1.8,1.7-3.5,1.6-5.9,1.8c-0.3,0-0.6,0.1-0.9,0.1c-0.9,0.1-1.7,0.6-2.6,0.8
				c-0.7,0.2-1.5-0.2-1.8-0.8c-0.2-0.6-0.4-1.2-0.9-1.5c-0.4-0.2-0.8-0.1-1.2,0c-0.4,0.2-0.9,0.3-1.3,0.4c-1.1,0.2-2.3,0.8-3.6,0.7
				c-0.5,0-1-0.1-1.4-0.3c-0.6-0.2-1.1-0.4-1.7-0.5c-0.7-0.2-1.3,0.6-0.8,1.1c0.6,0.7-1.7,0.8-3.2,1.6c-0.8,0.4-1.6,1-2.5,1.6
				c-0.6,0.4-1.2,0.8-1.9,1c-3.2,1.3-5.3-0.1-8.1-1.2C1019,532.6,1015.3,530.6,1011.3,529.4z"/>
			<path class="st4" d="M971.8,529.4h19.6c-1.4,0.7-2.6,1.7-3.9,2.7c-1.1,0.9-2.3,1.8-3.7,2.3c-2.6,1-7.2,2.6-9.5,1.6
				c-1.9-0.8-4-3.7-2.4-5.2C972.3,530.5,972.2,529.8,971.8,529.4z"/>
			<path class="st4" d="M849.3,576c0.3-1.1,0-1.7-0.7-1.8c-0.6-0.1-1.2,0-1.3,0.6c-0.3,1.1-0.1,1.7,0.7,1.8
				C848.7,576.7,849.2,576.3,849.3,576z"/>
			<path class="st3" d="M835.5,704.2c0,0.1,0.1,0.3,0.1,0.4c0.2,0.8,0.7,1,1.2,1.5c0.6,0.7,0.9,1.3,1.2,2.3c0.6,2,1.6,3.9,2.1,6
				c0.3,1.5,0.3,3.4,1.6,4.6c1.5,1.3,3,1.8,4,3.6c0.2,0.3,0.8,1.2,0.6,1.6c-0.3,0.5-1.6,0.1-1.2,0.8c0.1,0.2,0.8-0.1,0.9,0.9
				c0.1,1.2,0,1.2,1.3,1.8c1.7,0.8,3.6,2.1,5.6,1.7c1-0.2,1.7-0.6,2.7-0.3c1.2,0.4,1.2,1.1,2.6,1.1c1.3-0.1,4.4-1.2,5.5-0.1
				c1.1,1.1-0.1,4.4-0.4,5.7c-0.5,2.1-1.1,4-0.5,6.2c0.2,0.7,1.1,1.9,1,2.7c-0.1,0.7-0.9,1.3-1.3,1.8c-0.8,0.9-2.6,2.9-1.9,4
				c0.3,0.4,0.9,0.7,1.5,1c0.4,0.2,0.8,0.4,1,0.7c0.6,0.6,0.9,1.3,1.1,2c0,0,0,0,0,0h59.3c-0.2-0.8-0.5-1.6-1.3-2.4
				c-1.1-1-2.9-2.5-1.9-4.2c0.5-0.7,0.7-0.4,1.3-0.8c0.5-0.3,0.7-0.6,1-1c0.2-0.3,0.7-0.4,1-0.1c0.1,0.1,0.2,0.1,0.3,0.2
				c0.2,0.2,0.4,0,0.5-0.2c0.2-0.4,0.6-1.5,0.7-1.7c0.2-0.4,0.4-0.8,0-1.4c-0.1-0.2-0.4-0.3-0.3-0.5c0.1-0.2,0.5-0.2,0.7-0.3
				c0.6-0.3,0.6-0.6,0.6-1c0-0.4-0.4-0.7-0.9-0.7c-3-0.3-6.9-0.2-8.1-2.4c-0.5-0.9-1.4-2.1-1-3c0.3-0.7,0.6-0.8,0.8-1.6
				c0.1-0.5,0.3-1,0.7-1.5c0.4-0.6-0.2-1.4-1-1.2c-2.1,0.4-4.1,1.2-5.8-0.1c-1.7-1.4-1.5-3.1,0-4.7c0.7-0.7,1.6-1.5,2.6-1.8
				c0.9-0.3,1.8-0.1,2.4-0.9c0.7-1-0.1-1.9-0.2-2.9c-0.2-1.2,0.4-2.1,0.8-3.3c0.3-0.9,0.5-2.2,0.2-3.1c-0.3-0.9-1.2-1.4-1.8-2.1
				c-1-1.3-1.4-3.4-1.3-5c0-1,0.5-2.9-0.3-3.8c-0.9-1.1-3.1-0.7-3.5,0.5c-0.4,1,0,2.3-0.7,3.3c-0.7,1.1-2.7,1.7-3.9,1
				c-1-0.6-1-1.7-1.4-2.5c-0.4-0.8-0.8-1.2-1.5-1.8c-1.7-1.4-2.3-2.3-2.2-4.5c0-0.4,0-2,0.3-2.4c0.3-0.4,1.1-0.3,1.5-0.7
				c0.9-0.8,1.2-2.7,0.6-3.6c-0.8-1.3-2.8-2.9-4.1-3.9c-1.8-1.3-3.1-2.5-4.2-4.3c-0.7-1-1.1-1.7-2.3-2.3c-0.8-0.4-1.7-0.7-2.4-1.2
				c-0.6-0.5-0.7-1.4-1.3-1.9c-0.7-0.6-1.8-0.6-2.7-0.8c-1.3-0.2-2.8-0.5-4.2-0.6c-1,0-1.9,0.1-2.8,0.6c-1.3,0.7-0.9,1.7,0.1,2.7
				c0.2,0.2,0.4,0.4,0.6,0.6c1,0.9,2.1,1.9,1.5,3.3c-0.2,0.4-0.6,0.4-0.7,0.7c-0.1,0.1-0.1,0.6-0.2,0.7c-0.1,0.2-0.2,0.6-0.4,0.8
				c-0.3,0.3-0.8,0.3-1.1,0.7c-0.3,0.4-0.2,0.9-0.2,1.3c0,0.3,0,0.7,0,0.9c-0.1,0.8-0.4,1.7-0.9,2.4c-0.8,1.2-2.3,1.6-3.8,1.7
				c-1.8,0.1-2.1-0.4-3.3,1c-1.2,1.5-2.5,1.8-4.6,1.4c-1-0.2-1.9-0.9-2.9-0.9c-1,0-2,0.5-3,0.7c-2.6,0.5-3-0.4-4.4-2.1
				c-0.3-0.4-0.7-0.8-1-1.2c-0.9-1-1.7-2-2.2-3.3c-0.4-1.1-0.6-2.4-2-1.7c-1,0.5-1.6,1.3-2.3,2c-0.6,0.5-1.2,0.9-2.2,1.1
				c-1,0.2-1.9,0.1-3,0.3c-1.3,0.3-1.1,0.4-1.6,1.4c-0.4,0.7-1.1,1.1-1.5,1.7c-0.4,0.7-0.1,1.4-0.4,2c-0.3,0.6-0.7,0.8-1.2,1.2
				c-0.9,0.8-1.2,1.5-1.5,2.5C836,701,835.3,702.8,835.5,704.2z M902.4,731.6c-0.7-0.7,0.6-1.5,1.2-0.9
				C904.1,731.2,902.9,732.1,902.4,731.6z M901.8,717.7c0.5-1.1,1.8,0.4,1.5,1.1c-0.2,0.4-1.1,1-1.5,0.6c-0.4-0.4,0.1-0.4,0.1-0.8
				C901.9,718.4,901.7,717.9,901.8,717.7z M886.9,752.1c0.7,0.6-0.9,1.9-1.6,1.4C884.2,752.8,886.3,751.5,886.9,752.1z M883.4,749.1
				c0.3,0.7-0.4,1-0.8,0.3C882.1,748.7,883,748.4,883.4,749.1z M882.2,724.7c0.5,1.1-0.9,1.6-1,0.5
				C881,724.2,881.7,723.5,882.2,724.7z"/>
			<path class="st3" d="M823.8,733.2c0.5,0.3,2.9,0.1,3.6,0c0.6-0.1,1.2-0.7,1.8-0.7c0.7-0.1,1.6,0.5,2.2,0.8
				c1.7,0.6,2.2,0.8,2.8,2.3c0.3,0.6,0.5,1.2,0.5,1.9c0,0.8-0.6,1.8-0.5,2.6c0.2,1.5,1.7,1.1,3.3,0.6c1.2-0.5,3-0.1,3.8-0.5
				c1.6-0.8,1.5-1.7,0.6-2.9c-0.4-0.6-0.8-0.9-0.6-1.6c0.1-0.3,0.4-0.6,0.6-1c0.4-0.5,0-1-0.6-1.2c-0.4-0.1-1-0.2-1.5-0.3
				c-1-0.2-2,0.1-3-0.1c-1-0.2-2-0.7-3-1c-1.2-0.4-2.5-0.7-3.7-1.2c-1.2-0.5-3.9-1.6-5.2-0.9c-0.5,0.2-1.4,1.2-1.7,1.6
				C823,732,823,732.8,823.8,733.2z"/>
			<path class="st3" d="M844.9,750.8c0.5-0.5,1.3-0.8,2-1.1c0.7-0.3,1.3-0.5,1.9-0.9c1.1-0.7,2-0.3,2.7,0.2c0.2,0.2,1.6,1.7,1.9,1.9
				c1,0.9,2.7,1.3,3.1,1.7c0.5,0.6-0.4,0.9-0.6,1c-0.2,0.1-0.3,0.5-0.4,0.7h-1.7c-0.5-0.3-1-0.6-1.5-0.8c-1.1-0.4-2.3-0.5-3.5-0.3
				c-0.2,0-0.4,0.1-0.6,0.1c-1.1,0.3-2.9,1.3-4,0.5C843.1,753.1,844.1,751.4,844.9,750.8z"/>
			<path class="st3" d="M932.6,736.5c0.4-0.3,0.7-0.9,0.6-1.4c-0.1-0.3-0.1-0.6-0.2-0.9c-0.3-0.6-0.8-0.9-1.6-0.8
				c0,0-0.6,0.1-0.7,0.1c-1.3,0.2-1.7,0.2-1.7,2.1c0,0.5,0.1,0.9,0.2,1.4c0.2,0.8,1,1.2,1.7,0.7C931.5,737.4,932,736.9,932.6,736.5z
				"/>
			<g>
				<path class="st3" d="M943.4,657.7c1.3,1.5,2.1,1.2,2.4,3.3c0.2,1.4,0.6,2.6,1.2,3.7c0.6,1.1,1.4,2.2,2.3,3.3
					c0.4,0.5,0.7,1.1,1.1,1.7c0.2,0.3,0.5,0.6,0.8,0.8c0,0,0,0,0,0c0.8,0.6,1.5,0.6,1.6,1.8c0.1,1.2-0.9,1.8-1.6,2.7
					c-0.7,0.9-0.8,2-0.9,3.1c-0.1,1,0.4,2.2,0.2,3.2c-0.2,1-1.1,1.5-1.3,2.4c-0.3,1.2,0.7,2.4,0.9,3.6c0.3,1.3,0.1,2.2,0.9,3.3
					c0.7,0.9,1,1.6,1.5,2.6c0.5,1.1,1.2,1.1,2.2,1.8c1.2,0.8,0.8,1.2,0.7,2.4c0,1,0.5,1.6,0.7,2.4c0.5,2-1.7,3.2-2.1,5.1
					c-0.5,2.1,0.8,3.4,2.9,4c0.1,0,0.2,0.1,0.3,0.1c2.2,0.6,4.3,1.4,6.5,0.8c1.6-0.4,3-0.2,4.6-0.2c1.1,0,2.2-0.3,3.2-0.2
					c1.2,0.1,2.2,0.4,3.4,0.2c1.2-0.2,2.1-0.4,3.4-0.3c1.2,0.1,2,0.2,2.9-0.6c0.6-0.5,0.6-1.3,1.3-1.1c0.6,0.2,0.6,1.2,1.2,1.3
					c1,0.1,1-0.8,1.5-1.2c0.6-0.4,1.5-0.5,2.2-0.8c0.6-0.3,1.2-0.7,1.8-1c0,0,0.1,0,0.1,0c1-0.3,1.3-0.2,2,0.2
					c0.9,0.5,1.6,1.2,2.6,1.7c1,0.5,2,1.1,3,1.5c1.6,0.8,4.6,2,6,0.4c0.6-0.7,0.4-2.8,1.3-3.1c0.6-0.3,2.5,0.8,3.1,0.9
					c0.9,0.1,1.8-0.2,2.7-0.1c1.8,0.3,1.3,1.8,2.4,2.7c0.8,0.6,2,0.6,2.9,1.3c0.9,0.6,1.1,1.3,1.3,2.3c0.3,1.6,1.3,2.4,4.1,1.7
					c0.9-0.2,1.1-1.5,1.7-1.5c0.8-0.1,0.6,1.6,2.3,0.3c2-1.5,0-3.9,0.2-5.8c0-0.4,0.3-1.6,0.7-1.8c0.8-0.6,0.4-0.1,1.1,0.3
					c0.6,0.4,0.6,0.9,1.5,0.3c0.5-0.3,0.9-1.4,1.1-1.9c0.7-2.2-0.7-4.7-0.6-7c0-1.2,0.2-2.4,0.4-3.6c0.2-1.1,0.6-2.1,1.2-3.1
					c0.3-0.5,1.5-1.6,1.6-2.2c0.1-1.2-0.5-0.5-1-1.2c-1.1-1.6,1.4-1.3,2.7-1.2c1.6,0.2,2.6,0.5,2.1-1c-0.2-0.6-1.1-1.2-0.6-1.8
					c0.5-0.7,1-0.3,1.5,0c0.4,0.2,0.8,0.5,1.2-0.4c0.3-0.9-0.2-1.8,0.4-2.7c0.5-0.8,3.5-3.1,2-4c-0.7-0.4-1.3,0.2-1.8-0.6
					c-0.3-0.5,0-1.4,0.3-1.9c0.3-0.4,0.9-0.6,1-1.1c0.1-0.4-0.3-0.6-0.3-0.8c-0.1-0.6,0.1-1.1-0.1-1.6c-0.4-1.3-3-2.4-4.1-3.1
					c-2.3-1.5-5.8-3.2-7.4-5.4c-0.6-0.8-0.7-1.5-0.6-2.4c0.1-0.8,0.8-1.5,0.5-2.3c-0.8-2.1-3.8-1.8-5.4-1c-2,1.1-2.6,0.4-4.5-0.8
					c-0.7-0.4-1.7-0.7-2.2-1.3c-0.6-0.6-0.8-1.8-1.1-2.6c-0.6-1.4-3.1-4.4-2.4-6c0.6-1.2,2.8-1,4-1.2c2.7-0.3,5.2-1.3,7.9-0.7
					c1.2,0.6,1.7-2.2,1.9-2.8c0-0.1,0-0.1,0-0.2c0.1-0.6,0-1.1,0-1.7c0-1.1,0.5-1.5,1-2.6c0.8-1.7-0.3-3.5,0.7-5.2
					c1.2-2,3.7-2.6,5.6-3.7c2.2-1.3,3.5-2.9,4.2-5.2c0.3-1.1,0.9-1.8,1.4-2.8c0.5-0.9,0.6-0.8-0.2-1.3c-0.7-0.4-1.9-0.2-2.6-0.5
					c-1-0.4-1.5-1.3-2.3-2c-1.7-1.5-3.3-1.8-5.5-0.7c-5.2,2.5-2.8,7.3-4.3,11.6c-0.5,1.6-1.3,3.8-2.9,4.6c-0.2,0.1-0.5,0.2-0.7,0.3
					c-2,0.7-4.8,0.8-6.7,1.3c-1.5,0.4-3,0.4-4.6,0.6c-1.4,0.2-2.1,1-3.3,1.5c-2.2,1-2.5-1.5-2.6-2.8c-0.2-1.2-0.3-2.3-1-3.3
					c-0.8-1.1-1.5-1.1-2.7-1.7c-1.8-0.8-1.2-2.3-0.6-3.6c0.2-0.5,1-0.3,0.6-1.1c-0.1-0.2-0.5-0.3-0.7-0.5c-0.7-0.5-2.4-1.1-3.2-1.4
					c-1-0.4-2.4-0.2-3.4-0.7c-0.7-0.4-0.7-1.3-1.3-1.6c-0.7-0.5-1.6,0.2-2.4,0.3c-1,0.1-1.9-0.2-2.7-0.8c-1.6-1.2-1.8-3.4-2.4-5.2
					c-0.1-0.3-0.2-0.6-0.3-0.9c-0.7-1.5-1.4-3.6-3.4-3.8c-1.9-0.2-4.2,0.8-5.5,1.9c-0.7,0.6-1.3,1.5-2.4,1.5c-0.7,0-1.4-0.5-2.2-0.5
					c-1.5,0-3.7,0.8-4.2,2.2c-0.2,0.7-0.4,2.1-0.4,2.8c0.1,0.9,0.9,1.4,1.3,2.2c0.5,1,0.6,2,0.8,2.9c0.2,0.8,0.5,1.6,1.3,2.3
					c1.7,1.6,2.2,3.6,2.7,5.8c0.5,2.1,1.3,4.2,1.6,6.4c0.2,1.4,0.1,2.3-0.7,3.4c-0.6,0.8-1,1.3-1.4,2.2c-0.8,2.1-2.4,2.8-3.7,4.6
					c-0.3,0.4-0.4,1.1-0.9,1.4c-0.6,0.4-1.2,0.3-1.7,0.8c-0.7,0.6-0.7,1.6-1.4,2.3c-1.3,1.3-3.3,1.5-4.8,2.5
					c-1.1,0.7-1.6,1.6-2.9,1.9c-1.1,0.2-2.5,0-3.5-0.1c-2.3-0.2-4.6-1.1-7-1.2C941.6,653.7,941.9,656,943.4,657.7z M1032.1,672.3
					c-0.1,0.7-2.1,0.7-2.6-0.1c-0.2-0.4,0.8-1.1,1-1.2C1031.1,670.8,1032.2,671.5,1032.1,672.3z M1029.5,667.8
					c0.3,0,1.7-0.4,1.3,0.2C1030.3,668.8,1028.4,668.1,1029.5,667.8z M1011.2,684.4c-0.3-0.1,0.3-0.7,0.8-0.5
					C1012.8,684.2,1011.5,684.5,1011.2,684.4z M1025.1,673.4c0.2,0.4-0.5,0.8-0.8,0.5C1023.8,673.6,1024.8,673,1025.1,673.4z
					 M1022.4,686.6c0.2,0,0.3,0.1,0.5,0.1c-0.6,0.7-0.6,0.8-0.6,1.6c0,0.5,0.1,0.9-0.7,0.8C1020.1,688.8,1021.4,686.7,1022.4,686.6z
					 M1017.2,673.5c0.2,0.7-0.6,1-0.9,0.2C1016,672.9,1016.9,672.7,1017.2,673.5z M1014,680c0.6-0.3,0.9,0.7,0.4,0.8
					C1013.8,680.8,1013.4,680.3,1014,680z M1012.8,657.9c0.2,0.5-0.7,0.8-1,0.4C1011.5,657.7,1012.6,657.3,1012.8,657.9z
					 M1011.6,669.3c0.6,0.7-1.1,1.7-1.8,1.2C1008.8,669.6,1011,668.6,1011.6,669.3z"/>
				<path class="st3" d="M1030.6,716.9c0.3-0.6,0.6-1.3,1-1.5c0.7-0.5,1.9,0.5,2.4,1.1c0.9,0.9,1.3,2.2,2.1,3.3
					c0.3,0.4,0.9,0.7,1.4,0.7c1,0.2,0.7,1,0.5,1.2c-0.9,1-1,1.5-1.1,2.6c-0.1,0.5-0.1,1.1-0.3,1.5c-0.5,0.9-1.2,0.9-1.8,0.1
					c-0.5-0.6-0.8-2.9-1.8-3c-1.5-0.2-1.4-1.1-1.6-2c-0.2-1.1-0.5-1.1-0.9-2.6C1030.5,718.2,1030.3,717.4,1030.6,716.9z"/>
				<path class="st3" d="M944.5,712.2c0-0.7,0.2-1.7,1.3-2.1c1.2-0.5,2.3-0.2,3.4,0.2c0.5,0.2,0.4,0.9,0,1c-1.2,0.5-1.1,1-0.7,1.8
					c0.2,0.4,0.1,1.1-0.2,1.5c-0.8,1.2-0.7,2.1,0.6,3c0.2,0.1,0.4,0.3,0.1,0.5c-0.2,0.1-0.4,0-0.7,0c-0.9-0.1-1.5-0.3-1.3-1.2
					c0.1-0.3-0.4-0.7-0.7-1.1C945.5,714.5,944.6,713.8,944.5,712.2z"/>
				<path class="st3" d="M944.8,694.2c0.6,0.2,1.8,0.3,2.7,0.5c0.4,0.1,0.9,0.2,1.1,0.6c0.2,0.3-0.1,0.8-0.4,0.8
					c-0.8,0.2-1.6,0.1-2.3,0.7c-0.8,0.6-1.3-0.3-1.5-0.8c-0.2-0.4-0.3-0.8-0.3-1.3C944.1,694.4,944.4,694.1,944.8,694.2z"/>
			</g>
			<path class="st3" d="M778.4,663.5c-0.1-1.2-0.9-0.1-1.7,0.1c-1.1,0.4-2.2,0.1-3.2-0.5v7.1c1.1,0.5,2.5,1.4,3.7,1.5
				c0.8,0.1,1.4-0.4,2.2-0.4c0.9,0.1,1.5,0.9,2,1.4c0.4,0.5,0.6,1,0.9,1.4c0.3,0.4,0.7,0.7,1.5,0.5c1.8-0.4,3.2-0.9,5.1-0.5
				c1.9,0.3,3.3,0.8,5.2,0.4c1.9-0.4,3.3-0.2,4.8,0.9c2.5,1.8,4,4,3.7,7c-0.1,0.5-0.1,1.1-0.6,1.3c-0.6,0.3-1-0.1-1.6,0.4
				c-1,1-0.6,3.1,0.3,4c0.1,0.1,0.1,0.1,0.2,0.2c1,1,2.1,1.6,2.8,2.9c0.1,0.1,0.1,0.2,0.2,0.3c0.8,1.3,1.8,2.7,3.4,1.3
				c0.6-0.5,1.2-1.1,1.8-1.7c0.8-0.8,1.5-1.5,2.3-2.3c0.1-0.1,0.1-0.1,0.2-0.2c1.6-1.5,0.3-2.4,0-4.1c-0.4-1.7,0.5-3.2,1.1-4.8
				c0.5-1.5,0.9-2.1,2.6-2.7c1.5-0.5,2.2-1.1,3.2-2.1c0.9-0.8,4.1-0.6,3-2c-0.1-0.2-0.7-0.3-0.8-0.6c-0.2-0.2-0.1-0.5-0.2-0.8
				c-0.1-0.5,0-1.1,0-1.6c0.1-0.4,0.2-0.8,0.3-1.3c0.3-0.7,0.6-1.4,0.5-2.2c-0.1-0.9-0.8-1.7-0.9-2.6c-0.1-1.6,1.8-2.8,2.9-3.8
				c1.4-1.3,2.6-2.9,3.9-4.3c1.1-1.1,1.8-2.4,1.1-3.9c-0.7-1.4-2.6-1.5-3.3-2.8c-0.4-0.8-0.2-1.7-0.2-2.5c0-0.8-0.1-1.6-0.1-2.4
				c0-1.9,0.1-4,1.1-5.7c1.4-2.6,4.6-4.3,7.9-4c1.9,0.2,3,0.8,3.8,2.3c0.2,0.4,0.3,0.6,0.5,0.8c0.3,0.3,0.6,0.5,1.1,0.8
				c0.7,0.4,1,1,1.6,1.4c1,0.6,2,0.6,2.9,1.4c0.8,0.7,1.4,1.7,2.3,2.3c0.9,0.6,1.6,0.5,2.4-0.1c1.5-1,3.1-1.6,4.8-2.4
				c1.7-0.8,3-0.9,4.9-0.5c0.6,0.1,1.4,0.4,2.2,0.6c0.9,0.2,1.9,0.3,2.4-0.4c0.4-0.4,0.4-1,0.7-1.4c0.5-0.7,1.2-1.3,1.9-1.8
				c1.4-1,3-1.7,4.5-2.5c1.2-0.7,1-2,2.6-1.7c0.9,0.2,1.6,0.6,2.6,0.7c1,0.1,2,0.1,2.9,0.5c0.7,0.3,1.4,0.9,2.2,0.5
				c0.6-0.2,0.8-0.9,1.3-1.3c0.7-0.5,1.3-0.7,1.8-1.4c0.5-0.7,0.9-1.4,1.2-2.2c0.4-1.3,0.2-2.9,1.2-3.9c0.5-0.5,1.5-0.7,1.9-1.3
				c0.5-0.7,0-1.6,0.4-2.3c1.6-2.6,5.5-0.8,7.5-2.6c1.1-1,2.2-2.5,2.8-3.7c0.8-1.5,1-3.3,1.9-4.7c0.6-0.8,1.8-1,3-1.2
				c0.5-0.1,0.9-0.1,1.3-0.3c1.5-0.5,3.5-0.3,3.1-2.2c-0.2-1.2-0.8-2.4-1.4-3.5v0l0,0c-0.1-0.1-0.1-0.2-0.2-0.3
				c-0.7-1.6-1.8-2.8-3.6-3.4c-0.5-0.2-3.2-1.5-3.5-1.1c-0.2,0.4,0.5,0.7,0.5,1c0.1,0.7-0.7,0.4-1.2,0.1c-0.4-0.2-1.1-0.9-1.2-1.3
				c-0.2-1,0.5-0.2,1.1-0.4c1.1-0.4-0.3-1.9-0.6-2.4c-0.1-0.1-0.2-0.3-0.3-0.4c-0.6-0.7-1.2-1.5-1.7-2.2c-0.3-0.5-0.6-0.9-0.8-1.4
				c-0.4-0.8-0.6-1.6-1.1-2.3c-0.6-0.8-1.4-1.5-2-2.2c-0.1-0.1-0.2-0.2-0.3-0.3l0,0c-0.7-0.8-1.7-1.6-2.7-0.7
				c-0.7,0.6-0.6,1.5-0.9,2.2c-0.4,0.7-1.1,1.2-1.8,1.6c-1.6,1-3.4,1.6-4.9,2.8c-0.9,0.7-1.6,1.4-2.4,2.2c-0.4,0.4-0.9,0.9-1.3,1.3
				c-2.9,2.6-5.8,4.2-10,4c-1.8-0.1-3.9-0.5-5.6,0.3c-1.4,0.6-1.7,2-2.9,2.8c-0.9,0.5-1.6,0.5-0.7-0.5c0.7-0.9,2.4-1.5,2.1-2.8
				c-0.3-1-1.9-1.5-2.8-1.9c-1.5-0.5-3-1-4.2-2c-0.4-0.3-0.8-0.8-1.2-1.1c-0.8-0.5-0.8-0.2-1.6,0c-1.6,0.5-2.8-1.2-4.4-0.7
				c-1.2,0.4-1.7,1.7-2.5,2.5c-1.2,1.1-2.9,2-4.6,2.3c-1.9,0.3-3.7-0.6-5.6-0.4c-0.8,0.1-1.8,0.3-2.4-0.3c-0.5-0.4-0.6-1.2,0-1.6
				c1.2-0.7,0.9,1.1,1.8,1c0.9-0.2-0.3-1.7-0.5-2c-1.5-2.1-3.3-3.6-2.9-6.3c0,0,0,0,0,0c0-0.1,0-0.2,0-0.3c0.3-1.5,1.2-1.8,2.6-2.1
				c0.5-0.1,0.9-0.4,1.1-0.6c0.3-0.4,0.2-0.8-0.1-1.2c-0.2-0.2-0.4-0.5-0.7-0.7c-1-0.7-1.5-2-2.7-2.5c-1.8-0.9-1.4,0.7-0.9,1.8
				c0.3,0.5,0.5,1.1,0.5,1.7c-0.1,1.2-0.6,0.8-1.6,1c-0.3,0.1-0.7,0.5-0.9,0.3c-0.2-0.2-0.3-1.4-0.5-1.7c-0.4-0.8-2.3-2.3-3.2-1.4
				c-0.4,0.4-0.4,1-0.9,1.4c-0.7,0.5-1.4,1-2.1,1.5c-0.6,0.4-2.2,2-3,1.1c-0.6-0.6,0.8-2.7-0.9-2.2c-0.5,0.2-1.2,1.1-1.8,0.8
				c-0.5-0.2-0.3-0.9-0.3-1.3c0-1-1.1-1.6-1.3-2.5c0-0.1,0-0.2-0.1-0.2c-0.2-1.4,1.3-0.2,2.2-0.2h0c0.1,0,0.3,0,0.4-0.1c0,0,0,0,0,0
				l0,0c0.8-0.5,0.3-1.1-0.3-1.5c-0.7-0.4-1.2-0.5-1.5-1.2c-0.2-0.6-0.1-1.2-0.8-1.5c-0.5-0.3-1.3-0.1-1.8-0.4
				c-0.6-0.2-0.8-0.6-1.4-0.7c0,0,0,0.9-0.7,0.1c-1.4-1.7,2-1.3,2.7-1.5c0.6-0.2,1-0.8,1.3-1.3c0.6-0.9,1.2-1.6,2-2.3
				c0.5-0.4,1-0.8,1.5-1.2c1-0.8,2-1.5,3-2.2c1.7-1.1,3-2.4,4.4-3.8c1.1-1.1,3.1-1.5,4-2.7c0.3-0.4,0.2-1.8,0.7-0.9
				c0.5,0.8-1.5,4.4-0.2,4.6c0.9,0.1,1.4-2.1,1.5-2.5c0.4-1.2,1.3-3,0.6-4.2c-0.6-1.1-2.9-1.3-4.1-1.5c-1.1-0.2-3.2,1-3.8-0.4
				c-0.2-0.5,0.4-1.2,0.2-1.7c-0.2-0.6-1-0.7-1.5-0.8c-0.5-0.1-1.2-0.4-1.7-0.2c-0.4,0.2-0.4,0.6-0.7,0.9c-0.9,0.8-1.4-0.1-2.4,0
				c-1.4,0.3,0.3,1.9,0.5,2.6c0.2,0.6,0.2,1.5-0.2,2.1c-0.5,0.8-1.5,0.2-2,0.8c-0.6,0.8,1.7,1.6-0.1,2.3c-0.5,0.2-1.1,0.2-1.6,0.5
				c-1.1,0.6-1.4,0.5-2.6,0.4c-1.4-0.1-3.5,0.1-4.6,0.9c-0.3,0.3-0.6,0.6-0.8,1c-0.4,0.9-0.6,2.1-0.9,3c-0.5,1.6-1.3,3.2-2.1,4.7
				c-0.8,1.5-1.9,1.9-3.5,2.7c-0.2,0.1-0.5,0.3-0.7,0.4c-1.2,0.9-2,2.1-2.2,3.5c-0.3,1.7-0.1,3.2-1,4.7c-1.1,1.7-2.4,2.9-2.6,4.9
				c-0.1,0.9-0.2,1.7-0.8,2.5c-0.4,0.5-1,1-1.4,1.5c-1.3,1.9,0.6,2.6,1.7,3.9c0.1,0.1,0.2,0.2,0.3,0.3c0.7,0.9,1.3,1.8,2.3,2.5
				c1.1,0.7,2.3,1.4,3.3,2.2c0.7,0.5,1.6,1.3,1.3,2.2c-0.1,0.4-0.9,0.8-0.9,1.2c0,0.6,0.7,0.4,1.2,0.5c1.4,0.3,2.1,1.8,0.7,2.6
				c-1,0.6-3.4-0.7-3.7,0.1c-0.3,0.9,2.2,1.6,2.1,3c-0.2,1.5-2.1,2.6-3.5,3.2c-0.7,0.3-1.5,0.6-2.3,0.9c-0.9,0.4-1.6,1-2.4,1.5
				c-1.3,0.7-2.4,0.6-3.5,0.4c-0.6-0.1-1.2-0.3-1.9-0.5c-1.3-0.4-2.5-0.4-3.7-0.9c-0.2-0.1-0.4-0.2-0.6-0.3
				c-1.5-0.8-2.6-2.2-4.6-2.4c-0.6-0.1-1.3,0-1.9,0.1v5.4c0.1,0.3,0.3,0.5,0.5,0.7c0.9,0.5,2.1-1.1,2.5,0.3c0.2,0.8-0.2,1.8-0.4,2.6
				c-0.1,0.5-0.3,1-0.2,1.6c0,0.2,0.1,0.5,0.2,0.7c0.2,0.4,0.4,0.8,0.4,1.3c0.1,0.8-0.3,1.4,0,2.2c0.3,0.8,0.6,1.5,0.9,2.3
				c0.7,1.7,1.4,3.5,2.6,5c0.9,1.2,2.3,2.5,4,2.5c1,0,1.7-0.3,2.6-0.7c1.1-0.4,2.2-0.7,3.2-1c2.1-0.7,3.7-1.4,6-1.2
				c0.3,0,0.6,0.1,1,0.1c0.6,0.1,1.2,0.2,1.8,0.2c1,0.1,2.2,0,3.2,0.2c1.2,0.3,1.3,1.6,2.5,1.9c0.7,0.2,1.6,0.1,2.3,0.2
				c1.2,0.2,2.2,0.6,3.2,1.2c0.7,0.4,1.3,0.9,2.1,1.2c0.8,0.3,1.4,0.5,1.8,1.3c0.7,1.5,1.4,3.1,1.7,4.8c0.1,0.8,0.6,1.2,1,1.9
				c0.5,0.9,0.3,1.7,0.2,2.6c0,0.9,0.2,1.8,0.3,2.7c0.2,1.1-0.1,2.1-0.4,3.2c-0.3,1.7,0.5,3.3-0.6,4.9c-1,1.6-2.4,2.2-4.3,1.4
				c-1.5-0.6-2.8-0.7-3.3,0.9c-0.1,0.3-0.2,0.7-0.2,1c-0.1,0.7-0.2,1.5-0.8,2c-1.2,1-3-0.2-4.2-0.6c-1.2-0.4-2-1.6-3.5-1.7
				c-0.7,0-1.5-0.4-1.9-0.4c-0.5,0.1-1.2,1.1-1.8,0.9c-0.9-0.4-2.3,0.3-3.8,0.9c-0.9,0.4-1.8,0.7-2.7,0.7c-1.3,0.1-2.4,0.7-3.8,0.6
				c-1.1-0.1-2.1-0.4-3.2-0.6c-1.6-0.4-4.2-1-4.4-2.9C777.9,664.6,778.4,664.1,778.4,663.5z M891.2,615.3c-1.3,0.6-2-1.7-1.1-1.9
				C891.2,613.3,892.4,614.7,891.2,615.3z M893,613.5c-0.3-0.5,0.5-1,0.9-0.5C894.4,613.6,893.4,614,893,613.5z M872.9,608.9
				c0.3-0.4,1.3,0.2,0.7,0.6C873.2,609.8,872.6,609.3,872.9,608.9z M850,638.2c-0.3-0.3,0.3-1.2,0.8-0.9
				C851.4,637.6,850.3,638.6,850,638.2z M859.6,621.8c0.3-1.1,1.8,0.1,1.6,1c-0.1,0.4-0.9,1.2-1.4,0.7c-0.4-0.4,0.1-0.5,0-0.8
				C859.9,622.5,859.6,622,859.6,621.8z M860.5,624.6c0.4,0.3-0.4,1.1-0.8,0.8C859,625,860,624.2,860.5,624.6z M858.3,619.3
				c0.6,1-0.6,1.6-1,0.6C857,618.9,857.6,618.1,858.3,619.3z M851,620.1c1.4-0.1,0.3,4.1-0.8,4c0.1,0-0.5-0.9-0.5-1
				c-0.1-0.5,0.1-0.6,0.2-1.1c0.1-0.5-0.6-1.1-0.4-1.5C849.6,620,850.5,620.1,851,620.1z M849.9,604.2c0,0.6-0.5,0.9-0.7,0.2
				C849,603.8,849.8,603.7,849.9,604.2z M849.6,610.6c0.2,0.4-1.1,0.7-1.4,0.3C847.8,610.1,849.4,610,849.6,610.6z M838,617.7
				c0.1-0.3,1-1.2,1.3-1.1c0.7,0.2-0.2,0.7,0,1.1c0.2,0.3,1.1,0.2,1.3,0.1c0.6-0.3,0.3-0.3,0.2-0.8c0-0.5-0.3-0.5,0.3-0.9
				c0.3-0.2,0.8-0.2,1.1-0.3c2.4-0.3,0,1.7-0.6,2.4c-0.5,0.5-1.4,2.2-2.4,1.9C838.6,619.9,837.8,618.3,838,617.7z M824.5,606.1
				c-0.3-0.5,0.7-1,0.9-0.5C825.7,606.1,824.8,606.6,824.5,606.1z M813.8,597.9c0.2-0.1,1.7-0.6,1.3,0.1
				C814.7,598.8,812.8,598.3,813.8,597.9z M802.3,604.9c0.3,0.7-0.4,1-0.8,0.3C801.1,604.5,802,604.2,802.3,604.9z M797.8,613.9
				c-0.3,0,0.2-0.8,0.8-0.6C799.4,613.6,798.1,613.9,797.8,613.9z M800,611.2c-0.6,0.1-1.1-0.4-0.5-0.7
				C800,610.1,800.4,611.1,800,611.2z M798.7,603.9c-1.1-0.7,1-2,1.6-1.4C801,603.1,799.5,604.4,798.7,603.9z M804.1,610.1
				c-0.3,1.4-2.7,0.2-2.8-0.8c0.1-0.1,0.1-0.3,0.2-0.4c0.8,0.6,0.8,0.6,1.8,0.6C803.8,609.5,804.3,609.4,804.1,610.1z M809.4,604.6
				c-0.4-0.3,0.4-1,0.7-0.6C810.5,604.3,809.8,604.8,809.4,604.6z M816.7,602.9c-0.5,0.6-3.3-0.3-3-1.2c0-0.1,1.9-0.6,2-0.6
				C816.5,601.2,817.3,602.3,816.7,602.9z"/>
			<path class="st3" d="M842.6,585.4c0.4,0.3,1.1-0.3,1.4-0.5c1.5-0.9,3.2,0.1,4.6,0.7c0.8,0.3,1.7,0.5,2.6,0.5
				c0.7,0,1.6-0.5,2.3-0.3c1.5,0.5-1.9,1.9,0.3,2.5c1.2,0.3,2.2-1.8,2.1-2.7c-0.1-1.1-2.1-1.1-3-1.5c-1.1-0.5-1.9-1.4-2.2-2.5
				c-0.4-1.4,0.1-2.4,1.2-3.4c0.5-0.5,1-0.9,1.4-1.5c0.4-0.6,0.6-1.3,1-1.8c0.9-1,2.3-0.2,3.1-1c0.7-0.8,0.6-2.8,0.6-3.8
				c0-0.8,0.3-1.5-0.1-2.3c-0.4-0.9-0.5-0.7-1.3-0.6c-1,0.1-0.6-0.7-1.3-0.6c-0.1,0-0.6,0.3-0.8,0.4c-0.3,0-0.8-0.1-1.2-0.1
				c-0.7,0-1.4,0.2-2.1,0.2c-0.8,0-1.3-0.4-2.1-0.3c-0.7,0-1.4,0.3-2.1,0.4c-1.4,0.2-2.9,0-1.8,1.6c0.9,1.3,1.6,2.3,1,3.9
				c-0.3,0.8-1,1.3-1.4,2c-0.3,0.5-0.4,1.2-0.5,1.8c-0.3,1.6,0,2.9,0,4.5c0,0.7-0.2,1.4-0.7,1.9c-0.4,0.5-1,0.7-1.2,1.3
				C842.5,584.3,842.3,585.2,842.6,585.4z M849.9,568.4c0.6-0.1,0.8,0.9,0.3,1.2C849.2,570.2,848.9,568.6,849.9,568.4z"/>
			<path class="st3" d="M1060,605.8c-0.3,1.4-0.7,2.4-1.3,3.7c-0.6,1.2-0.7,2-1.8,3c-0.3,0.3-0.7,1-0.9,1.2
				c-0.2,0.2-0.4,0.3-0.9,0.5c-0.9,0.5-7,1.6-6.1,3.2c0.2,0.4,1.2,0.5,1.6,0.6c0.6,0.3,0.3,1.6,0.4,2.2c0.4,1.8,0,3.8,0.7,5.6
				c0.6,1.7,2.1,2.4,3.9,3.1c0.3,0.1,2,0.7,3.2,0.9c0.2,0,0.3,0,0.5,0c0.2-0.1,0.4-0.2,0.5-0.4c0-0.1,0-0.1,0-0.2
				c0-0.2,0.1-0.4,0.4-0.4c0.2,0,0.4,0.1,0.7,0.3c0.6,0.4,1.5,1.1,2.5,1.5c1.3,0.5,3.4,1.5,5,1.7c0.6,0.1,1.6-0.2,2.1,0.1
				c0.5,0.2,0.5,0.8,0.8,1.1c0.5,0.5,1.6,1.4,2.2,1.7c0.2,0.1,2.8,1,3.5,0.8c0.6-0.1,0.4-1,0.8-1.2c0.9-0.7,0.6,0,1.6-0.1
				c0.2,0,2-1.2,1.9-1.4c-0.6-1-1.7,0.7-2-0.6c-0.2-0.7,0.2-1.1,0.8-1.3c0.4-0.1,0.8-0.2,1.1-0.2c1.2-0.1,2.3-0.3,3.4-0.3
				c1.3-0.1,2.1-0.5,3.3-0.9c0.8-0.3,1.4-0.5,2.1-0.6c0.2,0,0.6,0,1,0c0.4,0,0.9,0.1,1.2,0.1c0.4,0.1,1.1,0.5,1.5,0.4
				c0.4-0.1,0.4-0.5,0.6-0.6c0.3-0.1,0.5-0.2,0.9-0.1c0.4,0.1,0.2,0.4,0.3,0.7c0.3,0.5,1.1,0.1,1.2,0.1c0.2-0.1,1-0.5,1.2-0.8
				c0.4-0.5,0-2,0.6-1.9c0.4,0,0.7-0.2,0.9-0.5c0.4-0.8,1-2,1.1-2.1c0.8-1.1,1.5-1.8,3-1.5c0.5,0.1,1.3,1,0.2,1.1
				c-0.2,0-0.9,0.1-1.2,0.2c-0.9,0.2-0.3,0.9,0,1c0.4,0.2,1.3,0,1.7,0.1c0.7,0.1,1.5,0.5,2.2,0.5c0.6,0,2,0,2.3-0.6
				c0.3-0.5-0.2-0.6-0.1-1.1c0.1-1.5,4.4,1,5.5,1.1c1.9,0.3,5.4,0.3,6.3-1.6c0.4-0.8,0.2-1.7,0.7-2.5c0.5-0.9,1.6-1.4,1.6-2.5
				c0-1-0.8-1.9-0.9-2.9c-0.1-1.2,0.7-1.6,0.5-2.8c-0.1-0.7-0.6-0.5-0.8-1.2c-0.2-0.4,0.1-0.7,0.2-1.2c0.3-1.1,0.5-2.2,0.9-3.2
				c0.5-1.1,1.2-2,1.9-3c0.1-0.1,0.2-0.3,0.4-0.5c0.3-0.4,0.6-0.8,0.9-1c0.2-0.1,1-0.3,1.1-0.4c0.7-0.3,0.7-0.7,0.1-1.3
				c-0.8-0.6-1.5-1.3-2-2.2c-0.5-0.9-0.8-1.8-1.1-2.8c-0.4-1-1.2-1.9-1.5-2.9c-0.5-1.7,0.2-3.6-1.8-4.5c-0.2-0.1-0.3-0.1-0.5-0.2
				c-2.3-0.7-4.8,0.5-7-0.2c-1.1-0.4-1.4-1-2.7-0.9c-0.7,0-1.4,0.3-2,0.5c-1.3,0.4-3.6,1.4-4.8,0.3c-1.2-1.2,0-2.8-0.5-3.9
				c-0.9-2.3-2,1.3-2.8,1.8c-0.2,0.1-0.5,0.2-0.7,0.3c-0.8,0.2-1.7,0.1-2.6,0c-1.1-0.1-1.4-0.3-2.4-0.6c-0.1,0-0.2-0.1-0.3-0.1
				c-0.5-0.1-0.9-0.1-1.4-0.5c-0.7-0.5-1.2-2.1-1.3-2.9c-0.1-1,0.5-1.6-0.3-2.4c-0.3-0.3-1.1-0.2-1.5-0.5c-0.5-0.3-0.7-0.8-1-1.3
				c-1.1-1.4-3.7-2.4-5.5-1.6c-1.6,0.7-1.2,1.4-0.8,2.8c0.3,1.2,0,2.5,0.5,3.6c0.3,0.6,0.7,1.1-0.2,2.4c-0.4,0.5-0.7,0.9-0.9,1.4
				c-0.1,0.2-0.1,0.4-0.2,0.6c-0.1,0.4-0.5,0.7-0.9,0.7c-1.5-0.1,0.6,2-0.3,3.1c-0.6,0.7-3.6,0.7-4.2,1.1c-2.3,1.3-4.1,0.2-5.9-0.3
				c-0.2-0.1-0.4-0.1-0.6-0.2c-1.5-0.3-2.5,0-3.9,0c-0.3,0-0.6,0-0.8-0.1c-1-0.3-1.4-1.2-2.5-1.7c-1.6-0.7-2.2-0.1-3.6,0.5
				c-0.7,0.3-1.3,0.4-1.8,0.7c-0.4,0.2-0.7,0.4-1,0.9c-0.1,0.1-0.2,0.3-0.3,0.5c-0.5,0.9-0.9,2.2-0.6,3c0.2,0.5,0.8,0.9,1.3,1.1
				c0,0,0,0,0,0c0,0,1.3,0.3,1.2,0.2c0.2,0.2,0.5,0.9,0.7,1.2c0.3,0.4,0.5,0.8,0.9,1.1c1.2,1.1,2.1,1.1,1.9,3
				C1060.8,603.4,1060.2,604.6,1060,605.8z"/>
			<path class="st3" d="M853.8,529.4h1.7c-0.1,0.1-0.1,0.2-0.2,0.3c-0.4,0.3-0.6,0.3-1,0.1C854.1,529.7,853.9,529.6,853.8,529.4z"/>
			<path class="st3" d="M1029,550.9c2.6,3.3,9.1,0.4,12.4,2c1,0.4,1.8,1.1,2.6,1.8c0.9,0.7,2.1,1.9,2.8,0.9c0.7-0.9,0.1-1.8,1.1-2.7
				c1-0.9,2.5-1.4,3.7-1.9c1.5-0.6,4.9-2,6.2-0.2c0.1,0.1,0.2,0.2,0.2,0.4v0c0.3,0.7-0.2,1.5-0.3,2.2c-0.1,0.5,0,1.1,0.7,1.5
				c0.5,0.3,1,0.5,1.6,0.6c1,0.2,2,0.3,2.8,1c1.4,1.2,1,3.1,0.7,4.7c0,0.1,0,0.1,0,0.2c-0.1,0.9-0.2,1.9-0.7,2.7
				c-0.1,0.2-0.3,0.4-0.5,0.6c-0.5,0.5-1.2,0.8-1.4,1.3c-0.8,1.6,1.3,2.7,2.8,3.2c0.2,0.1,0.4,0.1,0.6,0.2c1.4,0.4,2.9,0.7,4.3,0.9
				c1,0.1,3.1,0.6,4,0.3c0.8-0.3,0.8-0.4,0.6-1.2c-0.3-1.5-0.9-2.3-0.4-3.9c0,0,0,0,0-0.1c0.5-1.4,1-2.2,0.8-3.7
				c-0.1-1,0-2.9-0.4-3.7c-0.4-0.8-1.7-1.4-2.3-2.3c-0.5-0.8-0.8-1.7-0.7-2.7c0.1-1.2,0.8-2.2,1.3-3.2c0.6-1.2,0.9-2.6,1.6-3.7
				c0.9-1.4,3.1-2,3.2-3.7c0-0.9-0.6-1.7-0.5-2.7c0.1-1.1,0.7-2.2,1.3-3.1c1.1-1.5,2.5-1.9,4.1-2.5c0.5-0.2,1.1-0.4,1.7-0.6
				c1.8-0.8,1.2-2.8,2.8-3.5c1.7-0.9,3.4,0.4,4.7,1.7c0.5,0.5,1.4,0.3,1.7-0.3c0.3-0.6,0.5-1.2,0.6-1.8h-53.2
				c-0.2,0.1-0.5,0.2-0.7,0.3c-1.4,0.5-3.5,0.4-4.6,1.4c-0.8,0.7-1.1,2-1.2,3.2c-0.1,0.5-0.1,1-0.2,1.4c-0.1,0.3-0.1,0.5-0.2,0.8
				c-0.4,1.6-1,3.1-1,4.7c-0.1,2.2,0,3.4-1.5,5.1C1028.9,547.8,1027.7,549.2,1029,550.9z M1035.9,548.5c-0.3-0.5,0.5-1,0.9-0.5
				C1037.3,548.6,1036.3,549.1,1035.9,548.5z M1043.8,543.6c-0.4,0.3-1-0.2-0.7-0.6C1043.4,542.6,1044.4,543.2,1043.8,543.6z
				 M1048.4,546c-1.3,0.6-2-1.7-1.1-1.9C1048.4,544,1049.6,545.5,1048.4,546z"/>
			<path class="st3" d="M1144,615.3c0.6-0.3,1.6-0.2,2.3-0.2c0.3,0,0.6-0.1,0.9-0.1v5.4c-0.1-0.2-0.2-0.5-0.3-0.7
				c-0.4-0.7-0.9-1.3-1.7-1.8C1144.4,617.3,1142,616.1,1144,615.3z"/>
			<path class="st3" d="M1139.3,654c0.9,0.1,1.1,1.2,1.2,1.8c0.2,1,0.6,1.2,1.3,1.9c0.7,0.8,0.2,1,0.2,1.9c0.1,1,1.3,1.4,2.2,1.8
				c0.9,0.4,1.9,1.1,3,1.7v7.1c0,0-0.1,0-0.1-0.1c-0.6-0.3-1.2-0.7-1.4-1.3c-0.2-0.6,0.2-1.1,0.2-1.6c0-1.1-1.8-1.9-2.6-2.7
				c-0.7-0.7-1.4-1.3-1.8-2.3c-0.2-0.7-0.3-1.4-0.8-2c-0.4-0.6-1.1-1.3-1.7-1.7c-0.6-0.4-1.4-0.6-1.7-1.4
				C1137.1,656.3,1138,654,1139.3,654z"/>
			<path class="st4" d="M1098,593.3c-0.8,0.2-1.6,0-2.1-0.5c0,0,0,0,0,0c-1.3-1.3-2.3-2.5-3.6-3.8c-0.5-0.5-0.3-1.2-0.1-1.3
				c0.5-0.7,0.9-1.1,1.6-1.7c0.8-0.6,2.6-0.4,3.4-0.2c2.1,0.4,4.3,1.7,4.1,3.1c-0.1,1.1-0.5,1.8-0.1,2.7c0.2,0.7-0.3,1-0.8,1.1
				C1099.6,592.9,1098.9,593.1,1098,593.3z"/>
			<path class="st4" d="M831.5,664.2c0.4,0.1,0.7,0.2,0.9,0.3c0.9,0.5,1.5,1.5,2.3,2.1c0.8,0.6,1.7,1.1,2.2,1.9
				c0.4,0.6,0.6,1.3,0.8,2c0.3,1.2,0.5,2.5,0.9,3.7c0.1,0.4,0.3,0.8,0.5,1.1c0.4,0.8,1.1,1.5,2.1,1.4c1.7-0.1,2.6-1.9,4.3-2.1
				c2-0.3,4.6-0.2,6.6,0.4c1.8,0.5,2.4,0.2,3.1-1.4c0.4-1,0.7-2.1,0.2-3.1c-0.3-0.7-1.1-1.4-0.9-2.2c0.3-1.1,1.4-0.7,2.2-0.2
				c0.9,0.5,2.1,1.5,2.5,2.4c0.4,1.2-1.1,2.6-0.2,3.6c0.7,0.8,2.2,0.5,3.1,0.9c0.8,0.4,1.3,1.1,2.1,1.6c1.5,0.9,4,1.4,5.6,0.3
				c1.5-1,1.8-2.5,4-2.1c1.9,0.3,3.4,1.2,3.3,3.1c-0.1,1.4,0,3.2,2,2.8c0.1,0,0.2,0,0.3-0.1c1.7-0.5,2.8-1.4,2.1-2.9
				c-0.1-0.3-0.2-0.5-0.3-0.8c-0.7-1.6-1.7-3-1.3-4.8c0.3-1.4,1.8-2.9,1.5-4.4c0,0.1-1.3,0.2-1.4-0.3c-0.3-0.8,1-0.7,1.5-0.9
				c1.8-0.4,1.3-2.2,1.7-3.4c0.4-1.1,1.9-2,2.6-0.6c0.6,1.1,0.2,2.5,1.9,2.7c1.5,0.2,3.4-0.5,3.1-2c-0.2-1.4-1.3-2.8-2-4
				c-0.9-1.6-2.7-2.1-4.4-2.9c-0.6-0.3-2.1-0.7-2.4-1.2c-0.3-0.4-0.1-1,0-1.4c0.2-1.3-0.7-2.8-1.4-3.9c-0.9-1.4-2.6-1.3-4.2-1.5
				c-0.5-0.1-1,0.3-1.1,0.7c-0.2,0.9-1.2,0.5-2.5,0.5c-1.8,0-3,1.4-4.8,1.3c-1,0-3.2-0.2-3.5-1.3c-0.3-1.3,1.9-1.9,1.9-3.2
				c0-3-4.9-3.1-6.2-5.2c-0.1-0.1-0.1-0.3-0.2-0.4c-0.4-1.3,0.6-3.5-0.9-4.3c-0.8-0.4-1.6-0.2-2.4-0.8c-0.7-0.5-1.1-1.1-1.4-1.8
				c-0.4-0.7-0.8-1.5-1.1-2.3c-0.2-0.5-0.2-1.2-0.6-1.6c-0.6-0.6-1.3-0.4-2-0.2c-1.1,0.4-2,0.7-3.1,0.9c-3.7,0.4-7.4,1.4-9.4,4.5
				c-0.4,0.7-0.7,1.5-0.9,2.4c-0.4,1.9-0.1,4,1.2,5.2c0.4,0.4,1,0.7,1.6,0.8c0.8,0.1,1.4-0.2,2.1,0.2c1.6,0.9,0.6,3.2,0.1,4.5
				c-0.8,1.7-2.4,3.1-3.9,4.4c-1.2,1-3.3,1.8-4.2,3c-0.7,1-0.3,2.1-0.5,3.1c-0.2,0.9-0.8,1.5-1.4,2.2c-0.5,0.5-1.1,1.2-1.8,1.7
				C830.5,663.1,830.7,664.1,831.5,664.2z"/>
			<path class="st4" d="M861.6,529.4h12.7c-0.3,0.5-0.4,1.2-0.9,1.5c-0.5,0.4-1.1,0.2-1.7,0.2c-2,0-3.7,0.5-5.7-0.2
				c-0.5-0.2-1-0.3-1.6-0.5C863.5,530.2,862.5,529.9,861.6,529.4z"/>
			<path class="st4" d="M837.4,575.3c-1.8,0.3-2.8-1.9-2.9-3.3c0-0.3,0.1-0.7,0.1-1.1c0-0.4,0-0.7,0.1-1.1c0.2-1,0.9-1.5,2.1-1.6
				c1,0,3,0.1,3.8,0.6c0.5,0.4,1.8,1.6,1.8,2.2c0,0.5-0.8,0.9-1.1,1.2c-0.5,0.5-0.9,1-1.4,1.4C839.1,574.4,838.3,574.8,837.4,575.3z
				"/>
			<path class="st4" d="M849.3,576c0.3-1.1,0-1.7-0.7-1.8c-0.6-0.1-1.2,0-1.3,0.6c-0.3,1.1-0.1,1.7,0.7,1.8
				C848.7,576.7,849.2,576.3,849.3,576z"/>
			<path class="st4" d="M986.6,636.3c0.7-0.7,0.2-1,0.9-1.8c0.8-0.8,2.2-1.6,3.4-2c0.9-0.3,2.4-0.3,3.5,0.9c0.8,0.9-1.7,2-2.6,2.5
				c-0.9,0.5-1.7,1.5-1.6,3.1c0,0.6,0.4,1.3,0.2,1.9c-0.1,0.5-1.2,1.1-1.5,1.2c-0.7,0.2-1.2,0.2-1.4-0.5c-0.2-0.5,0.2-1.2,0.1-1.7
				C987.2,639,985,637.8,986.6,636.3z"/>
			<path class="st5" d="M1067,667.5c0.9,0.4,0.9,1.4,0.3,2.2c-0.3,0.4-0.6,0.7-0.1,1.2c0.4,0.5,0.1,0.9-0.6,1c-0.5,0.1-1,0-1.4-0.1
				c-1-0.4-1.5-0.1-1.9,0.1c-0.3,0.2-0.8,0.6-1.3,0.9c-0.7,0.4-1.8,0.1-2.3-1.6c-0.2-0.5,0.2-1.1-0.3-1.7c-0.4-0.4-0.1-1,0.1-1.2
				c1.1-1,2.9-1.9,4.1-1.1c0.3,0.2,0.8,0.1,0.9,0C1065.2,666.5,1066.3,667.2,1067,667.5z"/>
			<path class="st5" d="M891,651.3L891,651.3c-0.6-0.1-0.9-0.8-0.4-1.2c0.3-0.3,0.7-0.5,1-0.7c0.8-0.5,1.8-0.5,2.4-1.2
				c0.7-0.8,0.3-2,0.3-2.9c-0.1-1.3,0.3-2.7,0.6-4c0.5-2.4,1.9-4.8,3.1-7c1-1.9,1.5-4.3,3.5-5.5c0.8-0.5,1.7-0.9,1.7-1.8
				c0-0.4-0.3-0.7-0.3-1c0-0.6,0.5-0.7,0.9-1.1c0.8-0.8,1.1-3.9,3-3.1c1.8,0.8,3.7,3.6,2.1,5.2c-0.4,0.4-1.3,0.6-0.8,1.2
				c0.3,0.5,1.5,0.3,2,0.4c0.8,0.1,1.7,0.3,2.5,0.6c1,0.3,1.5,1.3,2.2,2c0.8,0.8,1,1.8,1.9,2.5c0.8,0.6,1.4,0.7,2.4,1
				c1.1,0.3,0.7,0.8,0.3,1.6c-0.7,1.2-0.3,2.2,0.1,3.5c0.3,1-0.1,1.8,0.2,2.7c0.3,0.9,1.3,1.4,1.9,2.2c0.6,0.9,0.8,1.8,1.6,2.7
				c0.8,0.9,1.4,1.8,1.9,2.8c0.8,1.5,1.9,3.9,0.7,5.4c-0.6,0.8-1.8,1.3-2.7,1.9c-1.1,0.7-2.2,1.3-3.4,1.9c-2.1,1-4.5,1.8-6.3,3.3
				c-1,0.8-1.7,1.9-2.8,2.6c-1,0.6-2.3,0.5-3.3,1c-0.6,0.3-0.7,0.7-1.1,1.1c-0.5,0.4-1.1,0.4-1.7,0.7c-0.6,0.3-0.5,1-1,1.2
				c-0.5,0.2-0.9-0.2-1.3-0.2c-0.5-0.1-0.9,0.2-1.4,0.3c-1.3,0.2-2.6-0.3-3.6-1c-0.8-0.6-3.1-2.5-3.5-4c-0.1-0.5,0.4-1,0.9-1
				c0.4,0,0.8,0,1.1,0.1c0.5,0.2,0.8,0.7,1.4,0.9c1.3,0.4,2.5-0.5,1.5-1.6c-0.5-0.6-1.1-0.5-1.9-0.5c-0.7,0-1-0.1-1.7-0.3
				c-1.1-0.5-1.1-0.3-1.7,0.5c-1.4,1.8-2.1-2-2.1-2.9c0-1.3,0-2.5-0.1-3.8c-0.1-1.4,0.2-2.3,0.7-3.4
				C891.9,651.8,891.6,651.4,891,651.3z"/>
			<path class="st5" d="M863.3,572.8c0.9,1.8,3.9,4.7,6.2,3.4c0.7-0.4,0.6-0.9,1.7-0.9c0.9,0,1.3,0.5,1.7,1.1
				c0.6,0.9,1.3,2.5,1.3,3.6c0,1.6-0.2,3.5-0.6,5.1c-0.3,1.2-1.2,2.3-0.6,3.5c0.4,0.8,1.3,1.4,1.6,2.3c0.3,0.7,0.2,1.5,0.1,2.2
				c0,0.5-0.1,1-0.2,1.6c-0.2,0.7,0.6,1.3,1.4,1c0.3-0.1,0.6-0.2,0.7-0.2c0.6,0,1.2,0.1,1.7,0.2c0.3,0,0.5,0.1,0.8,0.1
				c1,0.1,2-0.1,2.9,0.1c2.2,0.5,7.3,6.6,9.2,3.1c0.4-0.7,0.2-1.6,0.7-2.4c0.4-0.7,1.2-1.1,1.8-1.6c0,0,0.1,0,0.1-0.1
				c0.6-0.4,1.1-0.8,1.6-1.1c0.7-0.4,1.4-0.8,2.2-1c1.6-0.4,1.6-0.8,1.1-2.5c-0.3-1-0.8-1.8-1.8-2.4c-0.6-0.3-1.4-0.4-1.8-0.9
				c-1.8-2,3.9-1.9,4.9-0.8c0.9,0.9,0.7,2.9,2.5,2.4c0.8-0.2,1.2-0.8,2.1-0.9c0.7-0.1,1.5,0.1,2.3,0.1c1.6-0.1,3.6-0.9,4.3-2.3
				c0.5-1-0.2-2.3,0.8-3.3c0.6-0.6,2.5-1.2,3.5-1.2c1.5,0.1,1.7,1.4,2.7,2.2c1.4,1.2,2.4,0.1,2.9-1.2c0.5-1.4,0.2-1.7-1.2-2.4
				c-1.8-0.9-3.5-1.5-4.5-3.2c-0.4-0.7-0.6-2.1-1-3c-0.2-0.3-0.6-0.4-1-0.2c-0.2,0.2-0.5,0.3-0.8,0.1c-0.9-0.7,0.8-1.3,0.9-1.9
				c0.1-0.6-0.2-1.2-0.6-1.7c-0.6-0.8-1.3-1.7-0.7-2.6c0.5-0.8,1.1-0.6,1.8-0.2c0.5,0.3,1,0.8,1.4,1c1.3,0.5,2.8-1,2.9-2.2
				c0.1-0.8-0.9-1.3-2-1.8c-0.8-0.3-1.6-0.6-2.1-0.8c-1.4-0.7-2-0.8-3.5-0.4c-1.2,0.3-2.3,0.4-3.5,0.6c-1.3,0.2-1.2,0.3-1.8-0.8
				c-0.8-1.3-0.9-0.9-2.3-1.6c-1.3-0.6-1.7-1.1-3.2-0.6c-0.7,0.2-1.3,0.6-1.9,1c-0.5,0.3-0.6,0.8-0.3,1.2c0.4,0.6-0.3,0.8-1.3,1.4
				c-1.6,0.8-1.2,2.3-2.6,3.3c-0.8,0.6-3.3,2.1-4,0.9c-0.7-1.2,0.7-2.4-0.9-3.4c-1.3-0.7-3.6-0.3-5-0.2c-1.8,0.2-2.3,0.3-3.5-1.1
				c-0.5-0.6-1-1.5-1.9-1.7c-0.9-0.2-1.1,0.3-1.8,0.5c-1.3,0.4-2.5-0.1-3.7-0.7c-0.3-0.1-0.6-0.3-0.9-0.4c-1.1-0.5-1.9-1.7-2.9-1.1
				c-0.1,0.1-0.2,0.1-0.3,0.2c-0.4,0.4-0.6,1.1-1,1.5c-0.6,0.8-1.4,1.4-2.1,2.1C863.4,566.1,861.8,569.8,863.3,572.8z"/>
			<path class="st5" d="M925.5,564c0.3-0.5,0.7-0.9,1.3-1.1c1.2-0.4,2.3-0.8,3.5-0.9c0.8-0.1,1.8,0.5,2.4,1c0.8,0.7-0.1,2.1-1.7,2
				c-0.9-0.1-1,0.4-0.5,1c0.3,0.4,0.6,0.7,0.9,1.1c0.1,0.1,0.1,0.2,0.2,0.3c0.1,0.3,0,0.6-0.3,0.8c-0.2,0.1-0.3,0.1-0.4,0.1
				c-0.5-0.1-1.1-0.2-1.5-0.5c-1-0.7-2.1-1.1-3.3-0.9c-1.1,0.2-1.3-0.7-1.3-1.1C925,565,925.2,564.5,925.5,564z"/>
			<path class="st5" d="M921.6,564.4c-0.3,0.2-0.7,0.3-1,0.3c-0.4,0-0.8-0.2-0.9-0.6c0-0.2,0-0.6,0-0.8c0.1-0.7,0.4-0.6-0.7-1.5
				c-0.3-0.2-0.1-0.5,0-0.6c1-0.5,1.7-0.1,3,1.5C922.4,563.2,922.4,563.9,921.6,564.4z"/>
			<path class="st5" d="M1006.1,615c0.2,0.6,0.4,1.4,0.8,2c0.3,0.5,0.8,0.7,1.3,1.1c0.7,0.6,1,1.4,1.6,2c0.5,0.6,1,1,1.4,1.6
				c0.7,1.1,1.7,1.9,2.5,3c0.3,0.4,0.5,0.7,1,0.9c0.2,0.1,1.3,0,1.3,0c0.4,0.4-0.4,0.9-0.3,1.3c0.2,0.5,1.1,0.3,1.6,0.5
				c0.6,0.2,1.3,0.7,2,1c0.5,0.2,0.9,0.4,1,0.9c0.1,0.4-0.2,0.9-0.2,1.3c0,0.5,0.1,1.1,0.2,1.6c0,0.2,0,0.3,0.1,0.5
				c0.1,1.1,0.3,3.2,1.7,3.6c0.9,0.3,2-0.8,2.7-0.5c0.4,0.2,0.4,1.5,0.6,1.8c0.3,0.5,0.4,2.8,0.5,3.7c0,0.1,0,0.1,0,0.2
				c0.1,0.9,0.4,1.5-0.1,2.4c-0.2,0.5-0.7,0.9-0.7,1.5c0,0.4-0.4,1.2,0.5,1.5c0.4,0.1,2.3,0.7,2.6,1c0.5,0.5,1,0.4,1.3,0.1
				c0.9-0.7,1.3-1.5,2.5-1.9c0.2-0.1,0.9-0.3,1.1-0.1c0.3,0.3-0.3,0.6-0.3,0.9c0.1,1,2.3,0.3,2.8-0.1c1.3-0.8,2.1-2,3.4-2.8
				c1.5-0.8,3-1.5,4.7-1.6c0.5,0,1.2,0.2,1.5-0.2c0.3-0.3-0.2-0.7,0-1c0.8-0.9,1.7,1.6,2,1.9c0.7,0.5,2.4,0.2,3.1,0.1
				c0.6-0.2,2.3-0.2,3-0.3c0.7-0.1,1.9,0,1.8-1.2c-0.1-0.5-0.6-0.4-0.3-1c0.2-0.4,0.9-0.6,1.3-0.6c0.4,0,0.7,0.2,1.1,0
				c0.2-0.1,0.1-0.3,0.2-0.4c0.3-0.2,0.7-0.3,0.9-0.6c0.7-0.8,0.2-2.7,0.3-3.6c0-1.5-0.4-3.6,0.4-5.1c0.1-0.2,0.2-0.3,0.3-0.5
				c0.1-0.2,0.3-0.3,0.5-0.4c0.1,0,0.1-0.1,0.2-0.1c0.3-0.1,0.6-0.2,1-0.3c0.2,0,0.4-0.1,0.5-0.2c0.9-0.8,0.3-2.4-0.7-2.9
				c-1.2-0.7-1.8-0.5-1.9-2c0-0.6-0.2-1.4,0-2c0.1-0.5,0.7-1,1-1.5c0.6-0.9,1.4-3.1,2.5-3.5c1.1-0.4,2,1.2,2.7,1.7
				c1.1,1,2.4,1.8,3,3.1c0.1,0.8,2,0,2.3-0.2c0.4-0.2,0.7-0.4,1.1-0.7c0.7-0.4,1.1-0.3,1.9-0.5c1.4-0.3,2.1-1.6,3.7-1.6
				c1.5,0,2.7,0.9,4.1,1.4c0.9,0.3,1.9,0.5,2.8,0.3c0.9-0.1,1.6-0.5,2.4-0.7c1.2-0.3,2.9-0.4,2.2-1.8c-0.6-1.3-0.6-1.5-0.5-2.8
				c0.1-2.1-1-2-2.2-2.4c-3.2-1.1-5.3,1.8-8.1,2.6c-1,0.3-2.4,0.6-3.4,0.2c-1.3-0.5-2.2-1.9-3.3-2.7c-1.1-0.8-1.9-1.9-3-2.6
				c-0.9-0.6-2.7-0.5-1.9-1.9c0.7-1.2,2.3-1.6,2.7-3.1c0.3-1.3-0.8-2,0.7-2.9c0.4-0.2,0.6-0.2,0.9-0.3c0.4-0.1,0.6,0.4,0.9-0.1
				c0.3-0.3-0.2-1.3-0.3-1.7c-0.2-1.2-1.1-2.3-0.7-3.4c0,0,0,0,0-0.1c0.2-0.6,0.3-0.6-0.3-1.1c-0.5-0.4-0.9-0.6-1-1.3
				c-0.2-1.1,0.5-1.9,1.2-2.7c0.3-0.3,0.5-0.5,0.8-0.8c0.7-0.8,1.9-2.2,1.6-3.3c-0.2-1-1.7-1.8-2.6-2.1c-0.6-0.2-1.7-0.1-2.3-0.5
				c-0.4-0.3-0.4-0.8-0.6-1.3c-0.5-0.8-1.9-1.7-3-1.4c-0.4,0.1-1.3,0.5-1.6,0.8c-0.6,0.4-0.6,1-0.9,1.5c-0.3,0.6-0.9,0.9-1.4,1.4
				c-0.6,0.6-0.7,1-0.8,1.8c0,0.1,0,0.1,0,0.2c-0.3,1.2-1.4,2.1-2.3,3c-0.2,0.2-0.5,0.5-0.7,0.7c-0.2,0.2-0.4,0.4-0.6,0.7
				c-0.8,0.9-1.7,1.9-2.8,2.5c-0.9,0.5-1.5-0.1-2.4,0.2c-5,1.2-9.6-0.2-10.2-0.5c-0.7-0.3-1.2-0.7-2-0.9c-0.6-0.2-1.2-0.1-1.7-0.4
				c-1.1-0.7-1.8-2.4-2.3-3.5c-0.4-0.8-0.9-2.7-2-2.9c-1.1-0.2-1.9,1.4-2,2.2c-0.1,0.6,0.1,0.9-0.3,1.4c-0.4,0.5-1.1,0.8-1.5,1.2
				c-1.2,1.2-1.5,2.8-2.2,4.3c-0.5,1.1,0.2,2.4-1.5,2.7c-0.9,0.2-1.7,0.1-2.7,0.3c-2.2,0.5-7.5,4-8.5,5.8c-0.3,0.6-0.5,1.5-0.6,2.2
				c-0.1,0.5,0.4,1,0.1,1.5c-0.3,0.5-1.2,0.6-1.7,1.1c-0.3,0.3-0.5,0.8-0.8,1.1c-1,0.7-2.7,0.1-3.9,0.8
				C1005,612.3,1005.6,613.7,1006.1,615z M1053.7,631.7c-0.4-0.5,0.1-0.5,0.3-0.8c0.1-0.1,0.3-0.1,0.3-0.3c0-0.2-0.1-0.2-0.1-0.3
				c0-0.1-0.1-1.6,0.6-1.4c0.4,0.1-0.2,0.7-0.2,0.9c0,0.5,0.5,0.4,0.6,0.7C1055.4,631.1,1054.4,632.4,1053.7,631.7z"/>
			<path class="st5" d="M773.5,598.1v-40.3c0.6,0.2,1.3,0.4,1.9,0.4c0.4,0.1,0.9,0.1,1.3,0.1c0.8,0,1.6-0.1,2.4-0.3
				c1.1-0.3,2.2-1,3.3-1.1c0.6,0,1.1,0.2,1.6,0.1c0.5-0.1,0.8-0.3,1.2-0.4c0.4-0.2,0.8-0.2,1.2-0.1c0.5,0.1,1,0.4,1.4,0.9
				c0.7,0.8,1.2,1.9,1.5,2.9c0.2,0.7,0.3,1.4,1.1,1.7c0.8,0.3,1.8-0.1,2.6-0.1c1.1,0.1,4.7,1.7,5.5,2.2c0.6,0.3,3.4,1.2,5.8,2.2
				c1.3,0.5,2.5,1.1,3.2,1.7c0.4,0.3,1.2,1.6,1.5,2.1c0.2,0.3,0.2,0.6,0.6,0.7c1.1,0.4,1.7-1.3,2.2-1.9c1.1-1,2.4-0.4,3.1,0.7
				c0.3,0.4,0.5,0.8,0.7,1.2c0.1,0.2,0.2,0.4,0.3,0.5c0.4,0.7,1,1.1,1.6,1.6c0.8,0.7,1,1.3,0.8,2.3c-0.1,0.9,0.2,1.5,0.2,2.4
				c0,0.8-0.1,1.1,1,1.2c0.7,0,1.9,0,2.5-0.2c1-0.4,1.3-0.7,2.3,0c0.7,0.5,1.4,1,2.3,1.2c0.7,0.1,1.7-0.1,2.4,0.1
				c0.2,0,0.3,0.1,0.5,0.2c0.8,0.6-0.2,1.6,0.5,2.2c0.6,0.5,1.6,0.4,2,1.3c0.1,0.3,0.2,1.1,0.3,2.2c0,0.4,0.1,0.8,0.1,1.2
				c0.1,0.9,0.1,1.9,0.2,2.5c0,0.9-1.9,1.9-3.2,1.1c-0.3-0.2-0.5-0.3-0.7-0.6c0,0,0,0,0,0c-0.1-0.2-0.3-0.3-0.4-0.5
				c-0.2-0.3-0.7-0.3-0.8,0c0,0.1-0.1,0.1-0.1,0.2c-0.4,0.5-1.7,0.5-2.3,0.4c-0.9-0.1-1.7-1-2.7-0.9c-0.8,0.1-1.4,0.7-1.9,1.3
				c-0.5,0.6-2,2.6-0.4,2.8c0.7,0.1,1.1-0.7,1.7-0.8c1-0.1,1.4,0.7,1.7,1.4c0.5,1.4,0.3,3.4-1.2,4.3c-0.7,0.4-1.9,0.6-2.8,0.4
				c-0.9-0.2-7.6,0.3-8.4,0.4c-1.1,0.2-0.9,1-1.6,1.8c-1.1,1.2-2.9-0.5-3.4-1.4c-0.8-1.6-0.6-3.8,0-5.4c0.4-1.2,1.9-2.3,2.2-3.5
				c0.1-0.4-0.4-0.7-0.7-0.4c0,0,0,0,0,0c-0.2,0.2-0.6,0.1-0.7-0.2c-0.6-1.4-0.8-3-2.3-3.9c-1.1-0.7-2-1.3-4.8-0.7
				c-1.1,0.2-0.4,1.1-0.2,1.8c0.3,1,0.2,1.6-0.5,2.4c-0.7,0.8-1.3,1.3-2.3,1.8c-0.9,0.5-1.7,0.4-2.7,0.6c-0.9,0.2-1.3,0.3-2,0.7
				c-0.6,0.4-1.2,1.1-0.3,1.5c0.6,0.3,1.1,0,1.4,0.8c0.3,0.9-0.7,1.9-1.2,2.5c-0.3,0.3-0.6,0.6-0.9,0.8c-0.3,0.2-0.5,0.4-0.8,0.5
				c-0.4,0.2-0.9,0.3-1.2,0.5c-0.3,0.2-0.1,0.6-0.5,0.8c-0.3,0.2-0.9,0-1.2,0.1c-0.4,0.1-0.6,0.4-1.1,0.3c-0.3-0.1-0.6-0.3-0.8-0.5
				c-0.3-0.3-0.8-0.1-0.8,0.3c0,0.2-0.1,0.5-0.2,0.7c-0.7,0.6-1.7,0.1-2.3-0.3c-1.8-1.3-3.5-2.3-5.8-2.7
				C775.5,598.1,774.4,598,773.5,598.1z"/>
			<path class="st5" d="M1036.4,688.9c0.6-0.7,1.3-0.7,1.7-1c0.7-0.5,0.9-0.7,1.6-1.2c0.5-0.4-0.1-1.2,1.2-1.2
				c3.6-0.5,2.2-2.9,2.7-4.8c0.3-1.2,0.3-1.6,1.7-1.1c0.6,0.2,1.5,0,2.1-0.3c0.5-0.2,1.2-0.5,1.8,0.1c1.3,1.4,4.1,1.7,3,3.9
				c-0.3,0.6,0.2,1.3,0.4,1.5c2.2,2.3,1.8,3.5,0.2,4.4c-2.1,1.2-2.7,2.6-2.9,4.1c-0.3,1.8-2,2.6-3.8,3.2c-1,0.3-2.1,0.7-2.7,1.4
				c-1.5,1.7-2.8,1.3-4.5,2.6c-1.4,1.2-2.6,0.7-2.8-0.5c-0.4-2.1-1.1-3.8-1-5.9C1035,692.4,1035.3,690.3,1036.4,688.9z"/>
			<path class="st5" d="M935.5,687.7c0.3,1.2-1.1,3,0.4,3.5c1.8,0.6,4.3,0.6,5.8,1.8c0.6,0.5,0.9,1,1.8,1c0.5,0,1.5-0.4,1.8,0.2
				c0.2,0.4-0.3,1.1-0.4,1.4c-0.3,0.8-0.4,1.8-1,2.5c-0.5,0.6-1.1,0.8-1.3,1.6c-0.2,0.8-0.4,1.9-0.1,2.7c0.3,0.7,1.1,1.2,1.6,1.8
				c0.6,0.7,0.7,1.3,0.9,2.2c0.2,0.8,0.4,0.8,1.2,0.9c1,0.2,1.1,0.9,1.8,1.5c0.7,0.6,1.6,0.9,2.6,0.8c1.1-0.1,1,0.2,1.8,0.8
				c1.9,1.3,2.5-0.8,4.1-1.3c0.5-0.1,1.1-0.2,1.6-0.4c0.4-0.1,0.7-0.4,1.1-0.6c0.8-0.4,1.7-0.2,2.5-0.5c0.8-0.3,1.8-0.6,2.6-1
				c0.8-0.4,1-1,1.5-1.6c0.5-0.6,1.2-0.6,2-0.8c1-0.2,1.9-0.3,2.9-0.1c1,0.2,1.9,0.2,2.9,0.7c0.8,0.4,1.8,0.9,2.5,1.4
				c0.6,0.5,0.8,1.1,2,0.9c1.4-0.3,1.5-0.5,2.5-0.5c0.4,0,0.7-0.4,1.1-0.5c0.2,0,0.3,0.1,0.5,0.2c0.2,0,0.4-0.1,0.5-0.2
				c0.2-0.2,0.3-0.8,0.5-0.9c0.1-0.1,0.2,0,0.4,0.1c0.2,0.1,0.4-0.1,0.5-0.2c0.7-0.6,1.4-1.3,1.9-2c0.5-0.7,0.9-1.6-0.2-2.1
				c-0.3-0.2-1.6-0.1-1.1-0.8c0.2-0.2,0.6-0.2,0.8-0.3c0.3-0.2,0.3-0.3,0.6-0.5c0.6-0.6,0.7-0.5,1.5-0.4c0.8,0.2,1.2-0.1,1.9-0.5
				c0.1-0.1,0.2-0.2,0.3-0.3c0,0,0,0,0,0c0.2,0.1,0.3,0.1,0.4-0.1c0.3-0.2,0.5-0.5,0.8-0.8c0.5-0.5,1.5-1.4,1.3-2.2
				c-0.2-0.6-0.9-0.9-0.6-1.6c0.6-1.5,3.9-0.4,4.8,0.1l0,0c0.4,0.2,0.9,0.3,1.4,0.3c0.1,0,0.3,0,0.4,0c0.2,0,0.4,0,0.6,0
				c0.1,0,0.1,0,0.1,0l0.1,0c0.4-0.1,0.8-0.1,1.2-0.3c0.1,0,0.2-0.1,0.2-0.1c0,0,0.1,0,0.2-0.1c0,0,0.3-0.2,0.4-0.2l0,0
				c0.2-0.1,0.4-0.4,0.5-0.5c0,0,0.1-0.2,0.2-0.3c0,0,0,0,0,0c0-0.1,0.1-0.2,0.1-0.2c0.4-0.9,0.9-1.6,1.8-2.1
				c0.8-0.4,1.8-0.5,2.7-0.7c0.2,0,0.4-0.1,0.5-0.1c-0.1,0,0.2-0.1,0.1,0c0,0,0,0,0,0c0,0,0,0,0,0c0,0,0,0,0,0
				c-0.1,0.1,0.2-0.1,0.2-0.1c0.1,0,0.1-0.2,0.1-0.2c0.1-0.3,0-0.7,0-1c0-0.5,0.1-1,0.2-1.5c0.2-0.5,0.9-1.6,1-2
				c0.3-0.9,0.4-1.6-0.5-2.3c-0.7-0.5-1.2-0.9-1.6-1.6c-0.4-0.6-0.5-1.6-1.2-2.1c-0.4-0.3-1.4-0.6-1.9-0.5c-0.8,0.2-1,1.1-1.4,1.6
				c-0.3,0.4-0.7,0.9-1.2,0.5c-0.6-0.6-0.5-0.7-1.2-1.4c-2.7-2.9-8.3-4.7-10.4-5c-2.7-0.5-2.4-1.8-4.5-1.6c-0.3,0-0.8,0.2-1.1,0.1
				c-0.5-0.2-0.5-0.6-0.6-1.1c-0.4-1.2-1-2.4-1.9-3.3c-0.5-0.5-1-0.8-1.8-0.6c-0.5,0.2-0.8,0.5-1.3,0.6c-0.7,0.1-0.8-0.3-1.4-0.3
				c-0.4,0-0.9,0.4-1.3,0.6c-0.6,0.2-1.2,0.3-1.7,0.5c-1.3,0.3-2.5,0.3-3.8,0.2c-1.7-0.2-3.9-2-5.6-1.3c-0.5,0.2-0.5,0.3-1.2,0.3
				c-0.6,0-1.3,0.1-1.9-0.2c-0.9-0.3-0.6-1.5-1.3-2.2c-0.6-0.7-2.5-0.8-3,0c-0.4,0.6-1.6,0.7-1.8,0.7c-0.6,0-1-0.3-1.6-0.3
				c-0.7,0-1.5,0.2-2.1,0.3c-0.7,0.1-1.3,0.4-1.2,1.2c0,0.2,0.3,0.8,0.4,0.9c0.2,0.2,0.5-0.1,0.7,0.2c0.2,0.3-0.6,0.8-0.6,1.2
				c0,0.3,0.3,0.5,0.4,0.8c0.2,0.7-0.9,1.2-1,2c-0.1,0.5,0,1.1-0.3,1.6c-1.5,2.6-5.6,5.1-7.3,5.3c-0.4,0-1.5,0.1-1.9,0.1
				c-0.5,0-0.7,0.1-1.1,0.5c-1.4,1.1-2.9,1.3-3.4,3.1c-0.2,0.8-0.6,1.6-0.8,2.4C935,686.2,935.3,686.8,935.5,687.7z"/>
			<path class="st5" d="M778,684.1c2.7,0.5,3.3,2.9,5.5,4.2c2,1.1,3.8,4.7,6.6,3.7c1.5-0.5,2.7-1,4.4-1c1.5,0,2.8,0,4.1-0.8
				c0.2-0.1,0.4-0.2,0.5-0.3h0l0,0c1.7-0.7,2.9,0.3,4.2,1.6c0.1,0.1,0.3,0.2,0.4,0.2c0.2,0,0.4-0.1,0.5-0.3c0.1-0.1,0.1-0.2,0.1-0.4
				c0.2-0.7,1.1-1,1.8-0.5c0.1,0.1,0.2,0.1,0.3,0.2c0.8,0.5,1.5,0.6,2.4,0.6c0.2,0,0.4,0,0.5,0c2.1,0.1,4.1,3.4,6,4
				c1.2,0.4,2.8,0.7,4.7,1.1c3.5,0.7,7.7,1.3,9.8,1.6c1.5,0.2,3.3-0.3,4.1,1c0.5,0.8,0.5,1.9,0.7,2.8c0.1,0.7,0.1,1.9,0.7,2.4
				c0,0,0.1,0.1,0.1,0.1c0.5,0.4,1.3,0.1,1.9,0c1.2-0.2,2.4-0.5,3.7-0.3c1.1,0.1,2.1,0.5,3.1,0.8c0.5,0.1,1,0.3,1.6,0.4
				c0.6,0.1,1.6,0.1,2.2,0.3c1.6,0.6,1.5,3.4,1.9,4.7c0.5,1.6,1.7,2.7,3.7,2.8c1.1,0,2.2,0.2,3.3,0.2c1,0,1.7-0.5,2.6-0.9
				c0.5-0.2,1.2-0.3,1.7-0.6c0.5-0.3,0.6-0.8,0.8-1.3c0.3-0.8,0.4-2.4,1-3c0.3-0.4,1.3-0.6,1.7-0.3c0.6,0.4,0.4,1.4,0.5,2
				c0.1,0.7,0.2,1.9,0.8,2.5c0.5,0.5,1.5,0.5,2,1c0.6,0.6,0.6,1.3,1.3,1.7c0.8,0.4,1.6,0.9,2.3,1.4c0.5,0.3,0.3,0.3,1,0.2
				c0.6,0,1.2-0.2,1.8-0.3c1.6-0.2,2.5-1.1,3.4-2.2c0.5-0.6,1.3-1.1,2.1-1.4c0.3-0.1,1-0.2,1.1-0.3c0.3-0.3,0.1-1.1,0.4-1.5
				c0.2-0.2,0.4-0.5,0.3-0.7c-0.1-0.5-0.4-0.5-0.7-0.7c-0.7-0.6-0.8-0.7-0.6-1.6c0.1-0.8,0.1-0.8-0.6-1.3c-0.8-0.5-1.1-1-1.5-1.9
				c-0.4-1-0.8-2-1-3c-0.2-0.9-0.1-1.8-0.4-2.6c-0.3-0.9-1.1-1.5-1.2-2.4c-0.1-1.1,0.5-1.6,1-2.5c0.6-1.2,2.1-3.7,1.5-4.9
				c0,0-0.1-0.1-0.1-0.1c-0.9-1.1-4.2-1.7-5.8-0.6c-0.7,0.4-1,1.4-1.7,1.8c-0.7,0.4-0.9-0.4-1.5-0.8c-0.6-0.4-1.3-0.6-1.9,0
				c-0.5,0.5-0.4,1.1-1.3,0.7c-1.6-1-1.2-3.2-2.2-4.5c-0.4-0.6-1-1.1-1.5-1.6c-0.5-0.5-1-1.5-1.6-1.8c-0.7-0.4-2.2-0.1-2.9,0
				c-1.1,0.1-1.4,0.5-1.2,1.4c0.4,1.7,1.9,2.8,2.6,4.5c0.4,1,0.5,1.5-0.2,2.4c-0.6,0.7-1.4,1.2-2.3,1.6c-0.7,0.3-1.6,0.7-2.5,1
				c-0.9,0.3-1.8,0.5-2.6,0.5c-1.6,0-2.7-1.3-3.4-2.4c-0.2-0.3-0.4-0.7-0.5-1c-0.5-1.2-0.7-2.5-2.2-3.3c-2.1-1.2-3.5-2.4-4.8-4.3
				c-0.6-0.9-1.2-1.8-1.7-2.8c-0.5-0.8-1.2-1.7-1.2-2.6c0-0.6,0.4-1.4,0.7-2.2c0.5-1.2,0.8-2.4,0-3.2c-0.3-0.3-0.6-0.5-1-0.5
				c-0.4-0.1-0.9-0.1-1.3-0.1c-1.2-0.2-1.7-0.7-2.4-1.5c-1.5-1.6-1.9,1.1-3.6,1.2c-1,0-1.5-0.7-2-1.2c-0.5-0.5-1-0.8-1.6-1.1
				c-0.4-0.2-1,0.1-1,0.5c-0.2,1.1-0.7,2.1-2.1,2.6c-1.3,0.5-2-0.5-3.1-0.8c-0.4-0.1-0.8-0.2-1.2-0.1c-1.9,0.4-3.5,1.1-5.5,0.3
				c-1.7-0.7-2.4-1.5-3.1-3c-0.5-1.1-1.5-1-2.5-1c-0.3,0-0.6,0-0.9-0.1c-1.2-0.2-2.1-1-3.1-1.6c-0.9-0.5-1.9-0.9-2.8-1.5
				c-1.3-1-1.7-2.4-1.4-3.9c0.2-1,0.1-1.1-0.5-1.9c-0.5-0.7-0.8-1.5-1.4-2.2c-1.2-1.5-3.2-1.8-3.8-3.7c-0.2-0.6-0.1-1.4-1.1-1.1
				c-0.9,0.3-1.9,1.4-2.5,2c-1.3,1.1-3.6,3-3.5,4.7c0.1,2,2.1,1.2,3.4,2.1c1.2,0.8,3.1,2.4,3.5,3.7c0.2,0.8-0.1,1.5-0.6,2.2
				c-0.4,0.6-1.5,1.3-1.6,2.1c0,0.2,0,0.4,0.1,0.5c0.4,1.2,2.8,1.4,1.2,3.2c-1.3,1.4-4.6,1.8-6.5,1.8c-1.2,0-1.5-0.7-2.4-1.3
				c-0.6-0.4-0.8-0.2-1,0.4c-0.2,0.4-0.3,0.7-0.4,1.1c-0.2,0.7-0.4,1.3-0.6,1.8c-0.7,1.5-1.7,2.5-3.5,3.5c-1.5,0.7-3.2,1.9-3.6,3.5
				C774.5,683,776.4,683.7,778,684.1z"/>
			<path class="st5" d="M985.1,531.7c0.4,0.4,1.9,0.3,2.4,0.4c0,0,0,0,0,0c0.9,0.2,1.8,0.5,2.7,0.7c1.9,0.4,2.8-0.7,2,1.4
				c-0.2,0.6-0.8,1.5-0.1,2c0.8,0.5,0.8-0.5,1.2-0.9c1.4-1.6,7-3.8,9.2-3.1c0.8,0.3,1.3,1.3,2,1.5c0.9,0.2,0.8-0.6,1.5-0.7
				c1-0.2,1,1.6,2,2.2c0.8,0.5,2.5,1.7,3.5,1.6c1.3-0.2,1.9-2.6,2.9-1.4c0.9,1.2-0.2,4.6-1.5,5.2c-1.5,0.7-3.1,0-4.6,0.9
				c-1.7,1.1-1.6,2.6-1.3,4.3c0.1,0.7,0.2,1.3-0.1,1.9c-0.3,0.7-1,0.9-0.6,1.7c0.1,0.3,0.8,0.5,1,0.7c0.2,0.3,0.2,0.6,0.3,0.9
				c0.2,0.6,0.3,1.2,0.7,1.7c0.7,1,2,1.7,3.1,2.4c0.7,0.4,1.2,1,2,0.8c0.7-0.2,1.7-1.4,2.2-1.8c0.6-0.5,1.2-1,1.9-1.4
				c1-0.5,1.2-0.2,2.2-0.3c1.3-0.2,1.5-1.5,2.8-0.5c1,0.8,1.2,1.9,2.7,1.9c1.6,0,2.1-1.1,2.6-2.1c0.7-1.3,1.2-3.4,0.5-4.8
				c-0.7-1.5-1.9-1.8-0.8-3.6c0.4-0.7,1.1-1.3,1.2-2.1c0.1-0.7-0.3-1.1,0.2-1.7c0.5-0.5,1.5-0.6,2.1-1.1c0.5-0.4,0.8-0.9,1.2-1.2
				c0.2-0.2,0.5-0.3,0.7-0.5c0.5-0.3,1.1-0.6,1.6-1c0.6-0.5,1.1-1.1,1.8-1.5c1.3-0.9,3.4-1.3,4.5-2.4c0.4-0.4,0.5-0.7,0.6-1.1
				c0-0.4,0-0.8-0.1-1.2h-55.8C985,530.3,984.5,531.1,985.1,531.7z"/>
			<g>
				<path class="st5" d="M1107.4,529.6c-0.3-0.1-0.7-0.1-1.1-0.2h6.5c0.6,0.4,1.4,0.7,2,1.1c0.7,0.5,1.8,1,1.9,1.6
					c0.3,1.5,0.1,3.1,0,4.6c-0.1,0.6-0.9,0.6-1.4,0.2c-1.6-1.3-4.2-2.7-4.3-4.2C1110.8,530.3,1109,530,1107.4,529.6z"/>
				<path class="st5" d="M1094.3,529.4h3.7c-0.3,0.3-0.6,0.7-0.8,1.2c-0.2,0.6-1.2,0.9-1.8,0.2
					C1095,530.4,1094.7,529.9,1094.3,529.4z"/>
			</g>
			<path class="st5" d="M1109.7,575.9c0.6-1.8,1.4-3.1,3.1-4.2c0.7-0.5,1.5-1,2.3-1.2c0.8-0.1,1.4-0.1,2.1-0.3
				c0.2-0.1,0.4-0.1,0.6-0.2c2-1,3.8-2.4,5.6-3.7c0.8-0.6,1.7-1.3,2.3-2.1c0.1-0.1,0.1-0.1,0.1-0.2c0.3-0.6,0.3-1.2,0.5-1.9
				c0.3-0.7,1.1-1.3,1-2.1c0-0.3-0.3-0.6-0.3-1c0-0.2,0.1-0.5,0.3-0.7s0.1-0.5-0.2-0.6c-0.5-0.2-0.8-0.6-0.8-1.1
				c0-0.5,0.3-0.7,0.7-0.9c0.1-0.1,0.3-0.2,0.4-0.3c0.1-0.1,0.3-0.1,0.4-0.1c0.7,0.1,1.4-0.4,2.1-0.4c0.7,0,1.4,0.3,2.1,0.3
				c0.3,0,1.7-0.1,1.9-0.5c0.1-0.2,0.3-0.3,0.5-0.2c0.8,0,1.5,0.1,2.3,0c0.3,0,0.5,0.2,0.5,0.4c-0.1,2,2.8,2.3,4.5,1.9
				c2-0.4,3.7,0.3,5.5,0.9v40.3c-1.1,0.1-2.1,0.4-2.9,0.9c-0.9,0.6-1.5,1.5-2.6,2.1c-0.9,0.5-2,0.7-3,0.9c-2,0.5-3.9,1.1-5.7,2.1
				c-1.7,0.9-2.5,1.6-4.4,0.7c-1.1-0.5-2.5-0.5-3.7-0.9c-0.4-0.1-0.7-0.3-1-0.6c-0.7-0.6-1.1-1.2-2-1.6c-0.9-0.4-1.3-0.5-1.6-1.4
				c-0.2-0.8-0.4-1.4-0.8-2.1c-0.4-0.5-0.9-1-1.3-1.5c-1.1-1.5-0.8-3,0.3-4.4c0.8-1,1.6-2.1,2-3.3c0.1-0.3,0.2-0.6,0.2-0.9
				c0.3-2.1-2.1-1-3.4-1.8c-0.9-0.6-1.5-1.1-2.6-1.5c-0.9-0.3-1.9-0.3-2.8-0.5c-2-0.4-2.8-1.1-2.4-2.9
				C1109.9,579.4,1109.1,577.7,1109.7,575.9z"/>
			<g>
				<path class="st5" d="M773.5,738.6v-8.2c3-0.8,6-2.3,9-2.4c4.3-0.1,7.9-0.7,9.7-4.4c0.3-0.7,1.4-0.7,2.1-0.7
					c1.1-0.1,1.6,0.3,1.9-0.4c0.5-2.1,1.8-2.4,4-1.9c0.6,0.2,1.6-0.7,2.2-1.3c0.6-0.6,1.1-1.3,1.6-1.9c0.8-1.1,1.7-2.1,2.9-2.7
					c2.4-1.2,4.6-1.7,7.3-1.7c0.3,0,0.6,0.1,1,0.3c1.1,0.6,2.4,2,3.2,2.8c0.9,0.9,1.4,2.6,2.4,2.8c3.5,0.8,5.3,3,6.8,5.6
					c0.6,1.2,3.6,1.6,1.8,3.4c-0.1,0.1-0.2,0.2-0.4,0.3c-0.6,0.5-1.4,0.9-2.2,1.2c-0.6,0.2-1.1,0.4-1.7,0.6
					c-0.2,0.1-0.3,0.1-0.5,0.1c-0.6,0-1.3-0.3-1.9-0.3c-0.8,0-2-0.2-2.3,0.2c-1.7,2.2-4.8,3.8-5.7,6.3c-0.2,0.5-0.3,1.1-0.3,1.7
					c0,3.9-1.3,7.2-3.4,10.3c-0.6,0.8-1.8,2.2-2.5,2c-0.9-0.2-1-1.5-1.2-2.4c-0.3-1.5-0.1-3.1-2.4-3.4c-5.4-0.7-9.6-3.5-13.1-7
					c-1.9-1.9-4-2-6.4-1.6c-3.7,0.7-7.4,1.6-11.1,2.4C774.1,738.7,773.8,738.7,773.5,738.6z"/>
				<path class="st5" d="M811.2,754.4c0.3-1-0.1-1.6,1.1-1.8c1.1-0.2,2,0.2,2.7,1.3c0.1,0.2,0.3,0.4,0.5,0.5H811.2z"/>
			</g>
			<g>
				<path class="st5" d="M810.4,531.2c0-0.7,0.5-1,0.7-1.6c0-0.1,0-0.1,0.1-0.2h4.3c0.6,0.5,1.5,0.8,2,1.6c0.3,0.4,0.7,0.9,0.8,1.3
					c0.1,0.8-0.5,1.1-0.7,1.8c-0.2,0.9,1.7,1.4,0.5,2.4c-1,0.9-3.4,0-4.6-0.7c-1.2-0.7-2-1.6-2.6-2.7
					C810.6,532.7,810.4,531.8,810.4,531.2z"/>
			</g>
			<path class="st4" d="M956.2,663.4c0.4,0.5,0.7,1.2,0.9,1.9c0.5,1.9,0.5,4.2,2.2,5.5c1.5,1.1,4.3,1.8,6.6,2
				c0.8,0.1,1.3,0.9,0.8,1.6c-0.3,0.4-0.4,0.7-0.2,1.4c0.3,0.8,1.8,2.4,2.9,2.2c0.7-0.2,0.8-1.1,1.3-1.4c0.1,0,0.5-0.1,0.7-0.2
				c0.3-0.1,0.6-0.2,0.8-0.5c0.2-0.3,0.4-0.6,0.6-1c0.5-0.7,1.6-0.9,2.3-0.4c0.7,0.5,1.4,0.9,1.8,1.5c0.4,0.8-0.9,2,1.2,1.7
				c1-0.2,2-1.6,2.9-2c0.7-0.3,2.3-0.1,2.5,0.5c0.4,0.9,0.7,0.7,1,0.7c1.2-0.2,1.2-0.9,2-1.3c0.3-0.1,1,0.3,1.4,0.1
				c0.6-0.2,1.1-1.6,1.4-2.1c0,0,0-0.1,0.1-0.1c1-1.7,1.8-3,3.2-4.4c0.8-0.8,2.9-2,2.7-3.1c-0.1-0.8-2.3-3-3.1-3.4
				c-1.2-0.7-3.4-0.6-4.8-0.7c-1.3-0.1-2.4-0.1-3.3,0.5c-0.7,0.5-1.8,0.6-2.5,0c-1.3-1-2.5-2-4.2-2.3c-1.3-0.3-2.2-0.1-3.2-1
				c-0.8-0.8-0.6-1.3-1.8-1.8c-2.7-1.1-4.8-1.3-7.7-0.8c-1.5,0.3-2.8,0.4-2.7,2.2c0,0.5-0.4,1.1-0.9,1.4c-0.8,0.5-2.3,1.1-3.3,1.4
				C957.2,661.7,955,661.9,956.2,663.4z"/>
			<path class="st4" d="M945.7,669.1c-1-0.5-0.9-1.2-0.6-2c0.2-0.6,0.6-1.5,1.1-2c0.3-0.2,0.6-0.3,0.9-0.6c0.4-0.3,0.7-0.7,1.2-1
				c1.1-0.5,2-0.3,2.7,0.5c0.6,0.7,1.8,1.8,1.9,2.7c0.1,0.6-0.1,2.3-0.6,2.7c-0.6,0.4-2.5,0.1-3.3,0.1
				C947.8,669.7,946.8,669.6,945.7,669.1z"/>
			<path class="st4" d="M1146.1,627.6c0.3-0.5,0.7-1,1.1-1.3v3.5C1146.2,629.2,1145.6,628.5,1146.1,627.6z"/>
			<path class="st4" d="M1080.3,629.2c0.3-1.1,0.7-2.7,1.3-3.7c1-1.3,1.2-0.6,2.2,0.2c1.5,1.1,3.6,0.9,5.2,1.8
				c1.1,0.6,1.5,1.1,2,1.8c0.2,0.3,0.4,0.6,0.6,1.1c1.5,2.7,6.8,2.6,9.5,2c1.9-0.4,2.4,0.7,4.2,1.2c1.7,0.5,3.3,0,4.6-1
				c1-0.7,1.4-1.2,2.7-1.3c0.8-0.1,1.4,0.2,2.2-0.3c1.3-0.9,1-2.5,0.5-3.7c1.8-0.1,4.2,1.4,5.4-0.2c0.3-0.4,0.2-1.3,0.7-1.5
				c0.7-0.3,1.9,0.4,2.6,0.4c2,0,3.4-1.1,4.1,1.4c0.6,2,0.3,3,2.3,4.4c1.7,1.2,3.6,2.5,5.7,3.1c2.1,0.6,3.6,0.4,5.3,1.9
				c1.3,1.1,2.9,2.4,4.9,1.7c0.3-0.1,0.6-0.2,0.8-0.4v12c-0.3,0.1-0.7,0.2-1,0.2c-2.1,0.4-4,0.6-5.8,1.7c-1.6,1-2,1.3-3.3-0.2
				c-0.6-0.8-1.3-2.5-2.5-2.7c-0.9-0.2-1.5,0.6-2.3,0.8c-0.8,0.1-8.9,0.9-10.6,1.7c-1.5,0.7-2,1.4-3.8,1c-2-0.5-3.4-1.5-5.5-0.9
				c-0.7,0.2-1.3,0.6-2.1,0.6c-0.5,0-1-0.1-1.5-0.2c-0.5-0.1-0.9,0.5-0.6,0.9c0.1,0.1,0.2,0.2,0.3,0.4c0.3,0.5-0.2,1-0.8,0.8
				c-0.1,0-0.2-0.1-0.3-0.1c0,0,0,0,0,0h0c-0.1,0-0.3-0.1-0.4-0.1c0,0,0,0,0,0c-1.4-0.4-2.5-0.2-3.7,1c-1,1-2.2,1.6-3.4,2.3
				c-0.6,0.4-1.2,0.7-1.7,1.2c-1,0.8-1.4,1.4-2.8,1.2c-1.4-0.2-2.6-0.9-4-1.2c-0.7-0.2-1.4-0.4-2.1-0.7c-1.6-0.6-3.2-1.1-4.7-0.8
				c-1.9,0.4-3.7,0-3.6-2c0.1-1.9,1.9-3.3,2.6-4.9c0.4-1,0.3-1.9,0.2-2.9c-0.1-0.4-0.8-2.1-0.2-2.4c0.4-0.3,0.8,0.2,1.3,0.2
				c1.1,0.1,1.6-0.1,2.7-0.6c1.1-0.6,2.8-1.6,3.3-2.7c0.8-1.6-0.2-1.7-1.4-2.2c-2-1-0.4-2.2-0.7-3.8c-0.2-1.4-1.8-1.9-3.1-2.3
				c-0.9-0.3-1.8-0.6-2.8-0.5c-0.6,0.1-1.3,0.5-1.9,0.3c-0.7-0.3-0.9-0.9-0.9-1.5C1080,630.5,1080.2,629.7,1080.3,629.2z"/>
			<path class="st4" d="M776.6,634.9c1.7-2.6-1.3-3.8-3.1-5.1v-3.5c0.5-0.4,1.1-0.6,1.7-0.5c0.3,0.1,0.6,0.2,0.9,0.3
				c1.6,0.7,3.2,2.2,3.9,2.8c0.9,0.8,2.1,2.5,3.2,1.4c0.3-0.3,0.1-0.8,0.7-1.1c0.7-0.3,2.7-1.9,3.7-2.7c1.2-1,2.9-0.8,3.9,0.3
				c1,1.1,1,2.7,1.1,4.1c0.2,1.9,1.3,2.2,2.6,3.6c0.6,0.6,1.1,1.3,1.6,2c0.7,0.9,1.4,1.8,2.5,2.3c0.6,0.3,1.3,0.2,1.8,0.6
				c0.7,0.5,0.5,1.1,1.3,1.6c0.9,0.6,1.1,0.3,1.3,1.4c0,0.3,0.1,0.9,0,1.1c-0.2,0.4-0.8,0.8-1.1,1.2c-0.5,0.8-0.6,1.7-1,2.5
				c-0.6,1.3-2,2.5-3.6,2.5c-0.7,0-2.2-0.1-2.8-0.3c-0.7-0.2-1.1-0.8-1.8-0.9c-1-0.3-1.4,0-2.2-0.6c-0.4-0.3-0.6-0.9-0.8-1.2
				c-0.5-0.7-1.5-1.9-2.3-0.8c-0.8,1,0.6,2.5,0.4,3.7c-0.2,1-1.8,2.5-2.8,3.1c-1.4,0.8-4,1.8-5.7,1.1c-1.5-0.6-1.9-2.1-2.9-3.1
				c-1-0.9-2.1-0.8-3.2-0.5v-12C774.7,637.4,775.9,636,776.6,634.9z"/>
			<path class="st4" d="M862.1,751.6c0.1-0.1,0.2-0.2,0.3-0.3c1.2-1.1,2.5-2.1,4.3-2.1c1.8,0,3.5,1.8,5.3,0.9c0.5-0.3,1-0.9,1.7-0.7
				c0.5,0.1,0.9,0.8,1.2,1.1c1.3,1.4,0.5,2.4-0.6,3.7c0,0,0,0,0,0h-12.7c-0.2-0.1-0.4-0.2-0.5-0.3
				C859.9,753.3,861.2,752.3,862.1,751.6z"/>
			<path class="st4" d="M879.1,739.8c1.2,0,1.2,0.9,1.6,1.7c0.3,0.7,1.5,1.4,0.9,2.2c-0.5,0.7-1.7,0.7-2.4,1.1
				c-0.9,0.6-1.2,1.9-2.3,2.3c-1,0.3-1.4-0.5-2-1.1c-0.8-0.8-1.3-1.4-0.9-2.6c0.4-1.1,1.3-1.4,2.2-2.1c0.4-0.3,0.7-0.9,1.1-1.1
				C877.8,739.9,878.5,740,879.1,739.8z"/>
			<path class="st4" d="M1115.6,572.2c0.2-0.8,1.3-1.6,1.8-2.3c0.7-0.9,1.4-1.9,2.3-2.6c0.7-0.7,1.4-1.1,2-1.9
				c0.7-0.9,1.3-0.7,2.3-1c1-0.3,1.3-0.7,2.4-0.2c0.4,0.2,0.7,0.5,1.2,0.7c0.3,0.1,0.7,0,0.9,0.2c0.7,0.6,0.1,1.2-0.4,1.6
				c-0.8,0.6-0.6,1.3-0.5,2.2c0,0.8,0.2,1.6-0.1,2.3c-0.3,0.6-0.5,0.7-0.5,1.4c0,0.4,0.1,0.8,0.1,1.2c0,0.8-0.3,1.7-1,2.2
				c-1,0.8-1.5,0.7-2.3,0c-0.8-0.6-0.8-0.3-1.7,0.1c-0.9,0.4-1.9,0.2-2.7-0.2C1117.7,575.6,1115.3,573.8,1115.6,572.2z"/>
			<path class="st3" d="M1039.7,754.4c0.5-0.2,0.9-0.5,1.3-0.8c1-0.6,1.9-1.3,3.1-1.7c1.9-0.6,3.4,0,4.9-1.4c1-0.9,0.7-2,0.5-3.2
				c-0.1-0.6,0.5-1,1.1-0.7c0.5,0.3,0.9,0.6,1.2,1c0.3,0.4,1,0.4,1.3-0.1c0.3-0.6,0.4-1.4,0.8-2.1c0.7-1.3,2.3-1.7,3.2-2.8
				c1.7-2.1,0.6-5.5,2.1-7.6c0.6-0.9,1.7-1.1,2.7-1.5c0.9-0.4,1.5-0.9,2-1.6c0.2-0.3,0.3-0.6,0.5-0.9c0.5-1,0.8-1.8,1.8-2.5
				c1.1-0.8,2.4-0.7,3.5-1.3c2.2-1.2,0.7-3.7,2.6-5.3c0.7-0.5,1.7-0.7,2.1-1.4c0.1-0.2,0.2-0.3,0.2-0.5c0.1-0.5-0.2-1.1-0.5-1.7
				c-0.2-0.3-0.3-0.5-0.5-0.8c-0.2-0.3-0.4-0.6-0.5-0.9c-0.4-0.7-1.7-2.4-1.5-3.3c0.3-1,1.8-1.3,2.7-1.6c2.8-1.2,4.2-3,6.1-5.1
				c1.7-1.9,3.7-2.7,2.6-5.3c-0.1-0.2-0.2-0.5-0.3-0.7c-0.7-1.3-1.6-2.4-1.9-3.8c0-0.1,0-0.2,0-0.2c0-0.3-0.1-0.5,0-0.8
				c0.1-0.8,0.5-1.5,1.1-2.1c0.8-0.8,2-1.5,2.9-2.2c0.9-0.7,1.3-1.3,2.4-1.7c1-0.3,2.2-0.2,3.2-0.5c1.4-0.4,1.4-0.4,2.7,0.4
				c0.5,0.3,0.9,0.5,1.4,0.8c0.8,0.6,1.5,1.7,2.7,1.6c3.1-0.3,0-3.5-0.5-4.6c-0.8-1.7-0.1-1.9,0.5-3.3c0.5-1.1-0.3-1.8-0.2-2.8
				c0.1-0.9,1.1-2,1.4-2.9c0.3-0.9,0.1-0.8,0.7-1.3c0.9-0.7,2.6-1.3,3.8-1.5c1.5-0.3,2.3,0,3.8,0.3c1.5,0.3,2.5-0.1,3.9-0.2
				c0.5-0.4,0.9-0.3,1.2,0.2c0.2,0.2,0.4,0.4,0.7,0.5c0.2,0.1,1.3,0.3,1.3,0.4c0.8,0.8-0.3,1.5-0.3,2.2c-0.1,1.1,1.5,1.3,1.7,2.1
				c0.2,0.7-0.5,1.4-0.5,2.2c0,1.3,0.5,2.7,1.2,4c0.5,1,1,1.9,1.5,2.6c0.5,0.9,1,1.6,1.2,2.6c0.2,1,0,1.7,0.7,2.6
				c0.8,1,1.9,0.9,2.9,1.6c0.8,0.5,3.2,2.7,3.9,3.3c1.7,1.5,0.9,2.4-0.8,4.2c-1.1,1.1-2.6,1.2-4.1,1c-0.4-0.1-2.1-0.7-2.4-0.6
				c-0.7,0.3-0.3,1.7-0.7,2.2c-0.6,1-1.1,0.8-2.1,0.7c-1.5-0.1-1.5-0.1-1.5,1.5c0,1.3,0.7,2,1.2,3.2c0.4,1.1,0.3,2.3,0.2,3.4
				c-0.1,0.9,0.2,2.6-0.1,3.4c-0.4,0.9-2.6,2.4-3.6,2.5c-1.3,0.2-1.5-0.5-1.9-1.5c-0.9-2.1,0.2-4.6-1.1-6.7
				c-1.8-2.9-10.8-1.2-12.6,1.3c-1,1.5-0.8,4-0.3,5.6c0.4,1.1,1,2,0.8,3.2c-0.2,1.2-1,2.3-1.4,3.5c-0.8,2.9-0.2,6,0.2,8.9
				c0.2,1.3,0.2,2.6,1.1,3.6c0.9,0.9,2.2,1.6,3.2,2.4c0.9,0.6,1.8,1.3,1.7,2.4c0,0.1,0,0.2,0,0.3c-0.2,1-1.2,1.3-1.8,2
				c-0.7,0.8-1,1.4-1.1,2.4c-0.1,0.5,0.2,1.4-0.3,1.7c-1.2,0.9-3.2-0.9-4.6,0.4c-0.6,0.5-0.6,1.2-0.6,1.9v0c0,0.3,0,0.5,0,0.8
				c0,0.2-0.1,0.4-0.1,0.6H1039.7z"/>
			<path class="st5" d="M961.1,747.6c0.1,1,0.9,1.6,2.2,1.7c0.3,0,0.7,0,1.1-0.1c1-0.1,2.2-0.3,3,0.2c0.2,0.1,0.4,0.3,0.5,0.4
				c0.3,0.3,0.6,0.5,1.1,0.5c0,0,0,0,0,0c0.3,0,0.5-0.1,0.7-0.3c0-0.1,0.1-0.1,0.1-0.2c0.5-1.6,2.2-0.3,3.6-0.2
				c0.8,0.1,1.4-0.4,2.2-0.4c0.9,0,1.2,0.6,1.9,0.9c1.8,0.7,3.7-0.1,5.6,0.9c1.1,0.6,2.2,1.3,2.4,2.6c0,0.3,0,0.6-0.1,0.9h55.8
				c0-0.1,0-0.3-0.1-0.5c0-0.1,0-0.2,0-0.3c-0.2-1.5-0.2-2.3-1.7-3.3c-1.6-1.1-2.1-2.2-2.6-4c-0.6-2.2-1-4.4-1.7-6.6
				c-0.4-1.3-0.8-1.8-2.3-1.2c-0.6,0.2-1.1,0.8-1.8,0.7c-0.7-0.1-0.8-0.8-1.3-0.9c-0.4-0.1-1,0.4-1.5,0.5c-1,0.2-1.8,0.1-2.7-0.3
				c-1.1-0.4-1.9-1-3.2-1.2c-0.9-0.1-1.8,0-2.6-0.1c-0.9-0.1-1.3-0.3-2.1-0.1c-0.5,0.1-0.9,0.5-1.4,0.4c-2.3-0.3-3.4-5.7-4-7.3
				c-0.5-1.4-0.8-4.3-2.4-5c-0.9-0.4-2.8-0.7-3.5-0.3c-0.6,0.4-0.8,0.9-1.6,1.3c-0.7,0.4-1.3,0.8-2.1,1.1c-1.6,0.7-3.3,0.8-5,0.4
				c-2-0.4-6.2-1.9-8.2-0.9c-1.1,0.5-1.2,2.2-1.3,3.2c0,0.7,0.2,1.3-0.1,1.9c-0.2,0.6-0.9,1.1-1.3,1.6c-1.1,1.3-1.5,2.8-2.8,4
				c-1.4,1.3-2.2,1.8-4.2,1.6c-2.1-0.1-2.5,1.2-4.1,2.1c-0.8,0.4-1.6,0.4-2.4,0.7c-0.8,0.2-1.1,0.7-1.7,1.1
				c-1.6,0.9-3.8,0.9-5.6,1.3c-0.3,0.1-0.7,0.1-1.2,0.2c-1.4,0.2-3,0.4-3.4,1.4C961.1,746.6,961,747.2,961.1,747.6z M1007.1,747.1
				c1,0.1,1,1.1,0,1C1006.1,748.1,1006.1,747.1,1007.1,747.1z M1001,748.6c0.3-0.8,3.1,0.1,1.7,1.2
				C1001.7,750.6,1000.7,749.5,1001,748.6z"/>
			<g>
				<path class="st5" d="M1093.1,747.3c1.6-0.5,2.9-1.6,4.4-2.2c1.1-0.4,2.5-0.5,3.7-0.7c0.1,0,0.2,0,0.2,0c2.9-0.4,6,1.7,8.7-1.6
					c1.7-2.1,5.6-1.5,8,0.2c0.9,0.6,2.2,1,3.3,1.2c1.7,0.2,3.6,0.1,5.3,0.2c0.3,0,0.5,0,0.8,0c4.8,0.2,5.6-0.5,6.8-5.1
					c0.3-1.2,0.9-2.9,2-3.4c1.8-0.9,4.3-0.7,4-3.6c-0.1-1.1,1.3-0.6,2.1-0.7c1.8-0.2,3.1-0.7,4.7-1.1c0,0,0,0,0,0v8.2
					c-0.4,0-0.7-0.1-1-0.2c-3.1-0.8-3.4-0.5-4.4,2.1c-0.5,1.5-1.2,3.3-2.5,4.1c-3.3,2.1-7,3.8-10.6,5.7c-1.7,0.9-5.5,3.5-7.1,3.8
					c-0.1,0-0.2,0-0.3,0c-1.5-0.1-2.7-1.4-4.2-1.8c-1.8-0.5-5.1-1.2-5.4-0.7c-0.8,1.4-0.1,2.2,0.9,2.8h-6.4
					c-1.9-0.3-3.9-0.2-5.8-0.4c-1.1-0.1-1.9-0.1-2.5,0.4h-3.7c-0.4-0.5-0.8-0.9-1.2-1.4v0c-0.6-0.6-1.1-1.3-1.6-2
					C1089.8,748.8,1090.5,748.1,1093.1,747.3z"/>
			</g>
			<path class="st5" d="M1070.3,686.8c1.9,0.2,3.9,0.1,5.5,1.1c1.1,0.7,1.5,2.2,2.5,3.1c0.3,0.3,0.9,0.2,1.1-0.1
				c0.2-0.3,0.6-0.7,0.8-0.7c1.1,0,0.3,1.2,0.2,1.7c-0.2,0.9,0.4,1.4,1.1,1.8c0.5,0.3,1.1,0.6,1.5,1c0.9,0.9,0.7,2.3-0.8,2.1
				c-0.2,0-0.5-0.1-0.7-0.1c-0.4-0.1-0.7-0.2-1-0.2c-0.7-0.1-1.3,0-1.9,0.9c-1.8,3,0.8,3.2,3.8,3.2c0.4,0,0.8,0,1.2,0
				c2.1,0,3.2-0.9,4.8-1.9c0.6-0.4,1.8-1.4,2.5-1.4c0.7,0,1.3,0.8,1.9,1c1,0.4,2.9,0.5,4,0.4c1.5-0.2,2.5-1.2,3.5-2.2
				c0.4-0.3,0.3-0.9-0.1-1.2c-1.1-0.7-0.2-1.6,0.3-2.7c0.2-0.5,0.2-0.9,0.2-1.4c0-0.4,0-0.8,0.1-1.3c0.1-0.8,0.6-1.5,1.1-2.1
				c0.9-1,2.2-2,3.1-0.4c0.7,1.2,0.7,2.4,2.7,2.2c1.7-0.2,3.1-1.3,4.6-2c1.2-0.6,2.1-0.5,3.1-0.1c0.3,0.1,0.7,0.3,1,0.5
				c0.7,0.3,1.5,0.8,2.3,0.5c0.6-0.3,0.9-1,1.5-1.3c1.3-0.8,3.4-0.5,4.9-0.3c1.6,0.2,3,0.9,3.3-1.1c0.2-1.7,0.8-3,1.4-4.6
				c1-2.8,0.7-6.3-1.6-8.5c-1.6-1.4-5.3-3.2-7.3-1.6c-1.1,0.8-0.9,2.6-3,2c-1.3-0.4-2.8-2-3.4-3.1c-0.9-1.5-1.4-3.4-1.8-5
				c-0.3-1.3,0.1-3-1.1-4c-0.8-0.7-1.9-0.9-2.6-1.6c-0.6-0.6-0.9-1.4-1.1-2.1c-0.3-0.7-0.4-1.7-0.1-2.6c0.1-0.3-0.1-0.6-0.3-0.7
				c0,0,0,0,0,0h0c-0.1-0.1-0.3-0.1-0.4-0.1c0,0,0,0,0,0c-0.2,0-0.3,0.1-0.5,0.2c-0.7,0.6-1.3,1.4-1.6,1.6c-0.9,0.4-2.1,0.4-3,0.8
				c-0.6,0.2-1.3,0.5-1.9,0.7c-0.3,0.1-0.5,0.1-0.8,0.1c-2.7,0-5.3-1.8-8.1-1.4c-1,0.1-1.7,0.7-1.7,1.7c0,0,0,0.1,0,0.1
				c0,0.9,0.5,1.8,0.4,2.8c-0.1,0.8-0.7,1.6-1.2,2.3c-0.5,0.8-0.9,1.6-1.6,2.3c-0.5,0.6-1.5,1.1-1.8,1.8c-0.5,1.2,1.5,2.7,2.5,3.2
				c0.9,0.4,3.8,0,4,1.2c0.2,0.9-1.4,1.4-2.1,1.7c-0.9,0.3-2.1,0.6-3.1,0.2c-1.1-0.5-1.8-2.2-3.2-1.4c-0.8,0.4-1,1.3-1.7,1.7
				c-0.8,0.5-1.9,0.6-2.8,1.1c-1.5,0.9-2.8,2.6-2.3,4.3c0.3,0.9,1,1.7,0.6,2.6c-0.2,0.7-0.9,1.2-1.5,1.7c-1.7,1.3-2.6,0.6-4.3-0.1
				c-1.7-0.8-2.8-0.1-2.8,1.5C1068.2,685.9,1068.7,686.6,1070.3,686.8z"/>
			<path class="st3" d="M938.1,734.9c0.7-1.2,1.6-2.4,2.8-3.2c0.9-0.6,2.8-1.1,3.3-2.1c0.5-1-0.4-2.1-1.2-2.7
				c-0.7-0.6-2.9-2-1.5-3.2c1.8-1.6,6.8,4.1,8.3,4.7c3.6,1.5,5-0.9,7.5-2.6c1.5-1.1,3.3-0.4,5,0c1.4,0.3,4.1,0.6,4.6,2
				c0.5,1.2-0.7,2.2-1.5,2.9c-1.1,1.1-1.4,1.8-1.9,3.2c-0.4,1-1.3,2-1.4,3.1c-0.1,1.2,0.8,1.8,0.5,3c-0.3,1.5-0.4,1.3,0.8,2.3
				c1,0.8,1.2,1.4,1.2,2.5c0,0.1,0,0.3,0,0.4c-0.1,1.2-0.2,2.3-0.3,3.5c0,0.2,0,0.4-0.1,0.5c-0.2,1.7-0.3,3.5-0.3,5.2h-16.5
				c-0.5-0.7-1.1-1.2-1.6-1.9c-1.3-1.9-1.7-4.2-2.7-6.2c-0.5-0.9-1-1.8-1.9-2.5c-1-0.9-2.6-1-3.5-1.9c-0.4-0.3-0.6-0.7-0.8-1.2
				C936.5,738.9,937.3,736.4,938.1,734.9z"/>
			<path class="st3" d="M947.6,529.4h16.5c0,0.6,0,1.2,0.1,1.8c0.3,3.6,2,6.8,3.6,10.1c1.5,3.2,2.6,6.6,3.2,10.1
				c0.2,1.2,0.3,2.2,1.5,2.9c1.4,0.8,3.5,1.3,5.1,1.8c3.1,1.1,6.5,0.6,9.6,1.8c1.3,0.5,2.4,1.2,3.3,2.1c1.1,1.1,1.6,2.2,3.3,2.7
				c3.2,0.9,5.5,2.2,8.3,3.9c1.4,0.9,4.3,3.2,6,2.1c1-0.6,1.5-2.1,2.2-2.9c0.9-1,2.1-1.8,3.4-2.2c1.5-0.4,3-0.3,4.5-0.1
				c0.9,0.1,3.2,0.1,3.5,0.8c0.5,1.1-1.4,2.6-2.1,3.1c-1.1,0.9-1.4,1.4-0.4,2.5c0.9,1,1.6,2,2.1,3c0.6,1.3,0.8,2.7,0.3,4.4
				c-0.3,1.3-1,2.5-0.8,3.9c0.1,0.9,0.5,1.7,1,2.5c0.3,0.6,0.8,1.1,1.2,1.6c2.2,2.7,2.2,5.3-0.1,8.1c-0.7,0.9-1.3,2.2-2.6,2.3
				c-1.3,0.1-2.3-1-3.3-1.6c-2.1-1.4-4.5-2.5-5.7-4.7c-0.1-0.1-0.1-0.2-0.2-0.3c-1.4-2.7-2.7-5.2-5.1-7.5c-1.2-1.1-1.9-1.7-3.6-1.7
				c0,0-0.1,0-0.1,0c-2.3-0.1-4-1-6.2-1.7c-3.8-1.2-7.4-1.7-11.1-0.2c-2.8,1.2-6.3,2.2-8.5,4.2c-1.1,1-1.4,2.1-2.1,3.3
				c-0.4,0.6-0.8,0.9-1.3,1.1c-0.4,0.2-0.9,0.3-1.4,0.5c-1.7,0.6-2.3,0.9-3.6-0.4c-0.5-0.5-0.9-0.8-1.4-1c-0.4-0.2-0.9-0.3-1.6-0.5
				c-2.3-0.7-4.2-2.7-4.9-4.8c-0.8-2.5,0.3-5.2-0.6-7.7c-0.5-1.3-1.7-2.2-2.3-3.5c-0.3-0.7-0.4-1.4-0.3-2.1c0-0.4,0.6-1.3,0.4-1.7
				c-0.3-0.7-1.8-0.8-2.5-1.4c-1-0.8-1.6-2.1-1.8-3.3c-0.2-1.1,0-2,0.6-3c1-1.6,1.5-2.5,1.7-4.5c0.3-3.3,1-7.1-0.4-10.3
				c-1.3-3-4-5.4-5.4-8.4c-0.7-1.4-0.9-2.9-1.4-4.3C948,530,947.8,529.7,947.6,529.4z"/>
			<path class="st5" d="M939.9,593.1c-0.5,2.7-3.5,1.1-5,0.4c-2.5-1.1-2.5,0.5-4.5,1.2c-2,0.6-2.8-1.5-4.7-1.3c-2,0.2-2.9,0.7-5,1
				c-0.5,0.1-2,1-1.1,1.6c2.6,1.8,3.9,6.4,5.3,7.9c2.1,2.3,4.2,0.8,6.8,1.3c2.6,0.5,4.1,3.1,6.3,4c2.7,1.1,4.2-0.8,6.3-2.1
				c1.9-1.1,4-0.9,5.9-1.6c2.4-0.9,4-2.2,6.8-1.7c2,0.4,3.5,2,5.5,1.2c1.6-0.7,4.4-3.2,5.6-4.5c1.5-1.6,1.1-4.8,1.5-6.8
				c0.3-1.4,0.2-2.8,0.9-4.1c0.6-1.2,1.8-2,2.7-3c0.8-0.9,1.5-1.8,1.6-2.9c0-1.3-0.8-1.3-1.1-2.2c-0.5-1.6,0.1-2.3-2.5-2
				c-1.7,0.2-4.5,0.9-4.7,2.8c-0.1,1,1,1.9,0.7,2.9c-0.3,1-1.4,1.4-2.3,1.9c-2.4,1.4-4.3,2.8-7,3.8c-2.9,1.1-6.2,2.7-9.3,3.2
				c-3.1,0.5-1.3-2.7-2.5-4.4c-1.1-1.5-3.1-1.4-4.5-0.4c-0.6,0.4-1.7,1.2-1.9,1.8C939.2,591.7,940,592.3,939.9,593.1z"/>
			<path class="st3" d="M776,557.5c0.5,0.3,0.8,0.6,0.8,1c0,3.3,2.6,2.9,4.3,4.3c0.8,0.7,1.4,0.1,1.8-0.3c0.8-0.7,1.6-0.8,2.3-0.7
				c1.6,0.3,1.6-0.1,1.6-1.5c0.1-2.1-1.5-4.8,2.1-6.2c1.5-0.5-0.4-1-0.4-1.2c-0.1-1.2,1.8-0.7,2.5-1.4c0.3-0.3,0.6-0.6,1.1-0.9
				c0.3-0.3,0.6-0.7,0.6-1.1c0-0.2,0-0.4,0.1-0.6c0-0.3,0.4-0.4,0.6-0.2l0,0c0.2,0.3,0.4,0.6,0.7,0.8c0.8,0.6,1.6,1.2,2.5,1.8
				c0.2,0.1,0.5,0.3,0.7,0.2c2-0.1,4-0.5,5.5-1.8c0.8-0.6,1.1-0.6,1.7,0.2c0.4,0.4,0.6,0.9,1,1.2c0.3,0.3,1.9,0.4,2.1,0.1
				c0.4-0.6-0.5-1.4-0.6-1.5c-1.7-1.4-2.6-3.2-3.3-5.1c-0.3-0.9-0.3-1.9-0.9-2.7c-0.1-0.2-0.1-0.6,0.4-0.5c1,0.2,0.5-0.8,0.5-1.3
				c0-1.1-0.1-2.3-0.2-3.4c-0.1-0.4-0.4-0.8-0.8-1.1c-0.7-0.5-1.5-0.8-2.1-1.3c-0.8-0.6-1.6-0.8-2.5-0.5c-1.2,0.5-2,0.3-2.9-0.5
				c-0.7-0.6-1.3-0.4-2,0.3c-0.1,0.2-0.4,0.4-0.4,0.7c-0.1,1-0.8,1.7-1.2,2.5c-0.1,0.2-0.2,0.4-0.3,0.6c-0.2,0.4-0.8,0.4-1,0
				c0-0.1,0-0.1-0.1-0.2c-0.4-1-1.1-1.4-1.8-0.6c-1.6,1.7-4.2,2.5-5.4,4.6c-0.5,0.9-1.6,1.5-2.6,2c-1.8,1-3,2.2-3.4,4.2
				c-0.3,1.6-1,3.3-1.9,4.7C773.2,555.5,772.9,555.7,776,557.5z"/>
		</g>
	</g>
	<path class="st0" d="M858.5,362.8c0,4.8-5.6,96-5.6,96s-30.4,96.8-32,101.6c-1.6,4.8-9.6,43.2-1.6,42.4s22.4-35.2,22.4-35.2
		s2.4-16.8,2.4-21.6s31.2-78.4,31.2-80.8s9.6-124,9.6-124L858.5,362.8z"/>
	<path class="st6" d="M998.5,380.4c-1.6,6.4,10.4,167.2,7.2,170.4c-3.2,3.2-8.8,18.4-26.4,16.8c-17.6-1.6-110.8-1.5-116-20
		c-5.2-18.5,24.8-91.2,24.8-91.2l73.6-97.6L998.5,380.4z"/>
	<path class="st0" d="M959.3,187.6c0,39.9-20.6,90.2-50.8,90.2s-54.2-40.4-54.2-80.3s24.5-72.2,54.7-72.2
		C939.2,125.3,959.3,147.7,959.3,187.6z"/>
	<path class="st0" d="M876.4,248.7c2,5,20.1,38.1,20.1,46.2c0,8-15,18.1,1,19.1c16.1,1,79.3-29.1,77.3-31.1s-39.4-6.4-22.6-55.2
		c7-20.3-12.5-6-12.5-6L876.4,248.7z"/>
	<path class="st7" d="M888.9,175.6c-1.6,2.4-2.4,32.8-2.4,32.8s8,16,13.6,10.4c5.6-5.6,12.8-8,12-12.8s-8.8-32-8.8-32L888.9,175.6z"
		/>
	<path class="st8" d="M855.9,174.5l15.9-24.6c0,0,19.6-17.5,18.8-11.1c-0.8,6.4-12,14.4-3.2,9.6c8.8-4.8,23.2-19.2,21.6-12.8
		c-1.6,6.4,10.4,19.2,10.4,11.2s6.4-5.6,8-0.8c1.6,4.8,8,24,8,18.4c0-5.6,7.2-10.4,8.8-7.2s11.2,24.8,11.2,30.4
		c0,5.6-2.4,32,1.6,23.2s7.2-44,7.2-44s27.2-1.6,15.2-8.8s-16.8-10.4-19.2-13.6c-2.4-3.2,12.8-14.4,1.6-16.8
		c-11.2-2.4-21.6-2.4-21.6-9.6c0-7.2-3.2-7.2-16-8.8c-12.8-1.6-10.4-1.6-18.4-8.8s-14.4,8.8-17.6,13.6c-3.2,4.8-16.8-10.4-20,1.6
		s7.2,14.4-2.4,20.8c-9.6,6.4-12,11.2-11.2,17.6C855.3,160.4,855.9,174.5,855.9,174.5z"/>
	<g>
		<path class="st9" d="M894,178c-2.5,12.3-8.2,22.4-21.5,22.4c-13.3,0-19.3-4.8-20.8-15.2c-1.8-12.9,3.7-16,18.6-18.4
			C883.4,164.7,895.5,170.8,894,178z"/>
		<path class="st9" d="M901.4,177.3c2.5,12.3,8.2,22.4,21.5,22.4c13.3,0,19.3-4.8,20.8-15.2c1.8-12.9-3.7-16-18.6-18.4
			C912,164,899.9,170.1,901.4,177.3z"/>
		<path class="st10" d="M926.3,168c0,0-34.2-4.8-55.7,0.8"/>
		<path class="st10" d="M890.3,177.2c0-1.9,8.2-5.7,16.3-0.8"/>
	</g>
	<path class="st6" d="M892.1,294c2.4-0.4,36.8,26.1,70-14.9c0,0,52.4-6.7,59.6,16.5c7.2,23.2,20,95.2,15.2,97.6s-62.4,4.8-63.2-4
		c0,0,22.4,173.6,5.6,168.8s-116.8,8.8-117.6-14.4c-0.8-23.2,10.4-166.4,10.4-166.4s-19.2,3.2-19.2-12
		C852.9,350,849.7,300.4,892.1,294z"/>
	<path class="st6" d="M972.9,378.8l61.6-2.4l2.4,12.8c0,0-20.8,31.2-63.2,0C931.3,358,972.9,378.8,972.9,378.8z"/>
	<path class="st4" d="M972.4,894.9c1,5,4,30,4,33s-3,14-3,14s42,2,41-1s-4.2-48.9-4.2-48.9L972.4,894.9z"/>
	<path class="st4" d="M856.4,879.9c-3-2.7-1,37-1,37l20,12c0,0,16-6,18-13s0.8-41.7,0.8-41.7S867.4,889.9,856.4,879.9z"/>
	<path class="st11" d="M849.4,909.9c0,0,12,3,18,6s4,12,8,10s14-5,18-10s6,4,6,11s0,30-3,34s5,4-28,7s-65,7-66,4s-15-25,2-36
		s40-10,40-10L849.4,909.9z"/>
	<path class="st11" d="M972.4,925.9l19,13l7-6c0,0,22-13,24-10s4,20,4,20s24,17,24,25s1,15,1,15s-6,2-15,3c-15.1,1.7-42-5-45-7
		s-25-3-24-17S972.4,925.9,972.4,925.9z"/>
	<g>
		<path class="st12" d="M897.4,359.9c-1,3.4-1,23.6-2,28.1s-8,16.9-8,16.9v59.6c0,0,26,9,26-6.8s5-54,2-56.3s-7-13.5-7-13.5l1-25.9
			L897.4,359.9z"/>
		<path class="st13" d="M895.6,410.7c0,0,15,4,21,0l-3,42c0,0-19,4-20-1S895.6,410.7,895.6,410.7z"/>
		<g>
			<defs>
				<path id="SVGID_3_" d="M895.4,410.9c0,0,15,4,21,0l-3,42c0,0-19,4-20-1S895.4,410.9,895.4,410.9z"/>
			</defs>
			<clipPath id="SVGID_4_">
				<use xlink:href="#SVGID_3_"  style="overflow:visible;"/>
			</clipPath>
			<path class="st14" d="M917.3,428.2c0,0.1,0.1,0.3,0.1,0.4c0,0.1,0,0.1,0.1,0.2c0,0.1,0,0.2,0,0.2c0,0,0,0,0,0c0,0,0,0,0,0
				c0,0,0,0,0,0c0,0.1,0,0.2,0,0.3c0,0.1,0,0.1,0,0.2c0,0.1,0,0.2,0,0.3c0,0.1,0,0.2,0,0.3c-0.1,0.1-0.1,0.3-0.1,0.4
				c0,0,0,0.1,0,0.1c-0.2,0.3-0.3,0.7-0.5,1c0,0,0,0,0,0.1c0,0,0,0,0,0.1c0,0,0,0.1-0.1,0.1c-0.1,0-0.1,0.1-0.1,0.2c0,0,0,0,0,0
				c-0.2,0.2-0.3,0.3-0.5,0.5c0,0,0,0,0,0c-0.2,0.1-0.3,0.2-0.5,0.4c-1.3,0.8-2.6,1.5-3.8,2.3c-0.4,0.3-0.4,0.3-0.3,0.8
				c0.4,1.2,0.8,2.4,1.2,3.7c0,0.1,0,0.2,0.1,0.2c0,0.1,0,0.1,0.1,0.2l0,0c0,0.1,0.1,0.2,0.1,0.3c0,0,0,0.1,0.1,0.1
				c0.1,0.2,0.2,0.5,0.4,0.7l0,0c0,0.1,0,0.1,0.1,0.1l0,0c0.1,0.1,0.1,0.3,0.2,0.3c0,0,0,0,0,0c0.2,0.3,0.5,0.6,0.8,0.7c0,0,0,0,0,0
				c0.3,0.2,0.6,0.3,1,0.2c0,0,0.1,0,0.1,0c0.3,0,0.6-0.2,0.9-0.3c0.4-0.2,0.4-0.2,0.6,0.2c0,0,0,0.1,0,0.1c0,0.1,0,0.2,0,0.3l0,0
				c-0.1,0.1-0.3,0.2-0.4,0.2c-0.5,0.3-0.9,0.6-1.4,0.8c-0.1,0-0.1,0-0.1,0.1c0,0,0,0-0.1,0c0,0,0,0,0,0c-0.1,0-0.1,0-0.2,0.1
				c-0.4,0.2-0.9,0.3-1.3,0.4c-0.8,0.2-1.4-0.2-1.9-0.7c-0.7-0.7-1.1-1.5-1.5-2.4c-0.5-0.9-0.8-1.9-1.2-2.9c0,0,0-0.1,0-0.1
				c-0.1-0.7-0.3-1.5-0.4-2.2c-0.1,0.1-0.2,0.2-0.2,0.3c-0.7,1.9-1.4,3.9-2.7,5.5c0,0,0,0,0,0c-0.1,0-0.1,0.1-0.2,0.1
				c-0.7,0.8-1.6,1.4-2.5,1.9c-0.6,0.3-1.3,0.5-2,0.7c-0.1,0-0.2,0-0.3,0c-0.2,0-0.4-0.1-0.6-0.1c-0.4-0.1-0.9-0.2-1.2-0.5
				c-0.2-0.1-0.2-0.4-0.1-0.6c0.1-0.2,0.3-0.1,0.4,0c0.1,0,0.2,0.1,0.3,0.1c0.3,0.1,0.5,0.2,0.8,0.1c0,0,0.1,0,0.1,0
				c0.1,0,0.3,0,0.4-0.1c0.7-0.5,1.4-1,1.7-1.8l0,0c0,0,0,0,0,0c0.1,0,0.1-0.1,0.1-0.2c0,0,0-0.1,0.1-0.1c0.1-0.1,0.1-0.1,0.1-0.2
				c0,0,0,0,0-0.1c0.1-0.1,0.1-0.2,0.1-0.3c0.1-0.1,0.1-0.1,0.1-0.2c0.1-0.1,0.1-0.2,0.1-0.3c0,0,0.1-0.1,0.1-0.2
				c0,0,0.1-0.1,0.1-0.1c0.6-1.2,1.2-2.4,1.7-3.7c0.2-0.6,0.5-1.1,0.7-1.7c0,0,0,0,0,0c0.3-0.4,0.4-0.9,0.7-1.4
				c0.4-0.7,0.8-1.5,1.1-2.2l0,0c0.3-0.6,0.7-1.1,1.1-1.7c0.2-0.2,0.3-0.4,0.5-0.5l0,0c0.4-0.4,0.9-0.8,1.3-1.2l0,0
				c0.3-0.2,0.5-0.3,0.8-0.5l0,0c0.2-0.1,0.4-0.3,0.6-0.4c0.2-0.1,0.1-0.2,0-0.3c-0.3-0.2-0.6-0.3-0.9-0.4c-0.9-0.3-1.8-0.4-2.8-0.3
				c0,0-0.1,0-0.1,0c-0.3,0-0.7,0-1,0.1c0,0-0.1,0-0.1,0c-0.4,0-0.8,0.1-1.2,0.2c-0.6,0.1-1.1,0.3-1.6,0.5l0,0
				c-0.3,0.1-0.5,0.2-0.8,0.4l0,0c-0.3,0.1-0.5,0.3-0.8,0.5c-0.3,0.2-0.6,0.4-0.8,0.7c-0.9,0.9-1.1,2-0.8,3.2
				c0.2,0.9,0.9,1.5,1.8,1.6c1.1,0.2,2.1,0,3.1-0.5c0.1,0,0.2-0.1,0.3-0.1c0.2-0.1,0.3,0,0.4,0.2c0.1,0.2,0.1,0.3-0.1,0.4
				c-0.1,0.1-0.2,0.2-0.4,0.2c0,0,0,0,0,0c-0.3,0.2-0.6,0.3-0.9,0.6c-0.1,0-0.2,0.1-0.3,0.1c0,0-0.1,0-0.1,0.1c0,0-0.1,0-0.1,0.1
				c-0.4,0.2-0.8,0.4-1.1,0.6c-0.1,0-0.1,0-0.1,0.1c-1,0.3-1.9,0.4-2.9,0c0,0-0.1,0-0.1,0c-0.1,0-0.2-0.1-0.2-0.1
				c-0.6-0.4-1.2-0.8-1.5-1.5c-0.2-0.4-0.3-0.9-0.4-1.4c0-0.1,0-0.2,0-0.3c0-0.1,0-0.1,0-0.2c0-0.1,0-0.2,0-0.3c0.2-1,0.6-2,1.4-2.7
				l0,0c0.3-0.2,0.6-0.5,0.9-0.7c0,0,0,0,0,0c0.4-0.3,0.8-0.6,1.2-0.9c0,0,0,0,0,0c0.1-0.1,0.3-0.1,0.4-0.2c0,0,0,0,0,0
				c0.7-0.4,1.3-0.9,1.9-1.3c0,0,0,0,0.1,0c0.1-0.1,0.2-0.1,0.3-0.2l0,0c0.1,0,0.1,0,0.1-0.1c0,0,0,0,0,0c0.8-0.6,1.7-0.9,2.6-1.2
				c0,0,0.1,0,0.1,0c0.7-0.2,1.4-0.2,2.1-0.3c0.1,0,0.3,0,0.4,0c0.3,0,0.6,0,1,0c0,0,0.1,0,0.1,0c0.2,0,0.5,0.1,0.7,0.1
				c0,0,0.1,0,0.1,0c0.2,0.1,0.4,0.1,0.7,0.2c0,0,0.1,0,0.1,0c0,0,0.1,0.1,0.2,0c0,0,0.1,0,0.1,0c0,0,0,0,0.1,0
				c0.1,0,0.2,0.1,0.3,0.1c0.1,0.1,0.2,0.1,0.3,0.1c0,0,0,0,0,0c0.1,0.1,0.2,0.1,0.2,0.1c0,0,0.1,0,0.1,0c0.2,0.1,0.4,0.2,0.6,0.3
				c0,0,0.1,0,0.1,0.1c0,0.1,0.1,0.1,0.2,0.1c0,0,0.1,0.1,0.1,0.1c0,0.1,0.1,0.1,0.2,0.1c0,0,0,0,0,0c0.2,0.2,0.4,0.3,0.6,0.5
				c0,0,0,0,0,0c0,0.1,0.1,0.1,0.2,0.2c0,0,0,0,0,0c0.1,0.1,0.2,0.2,0.3,0.3c0,0,0,0,0,0c0.2,0.3,0.5,0.7,0.7,1c0,0,0,0,0.1,0.1
				c0,0.1,0.1,0.2,0.1,0.3c0,0,0,0.1,0.1,0.1C917.1,427.7,917.2,427.9,917.3,428.2z M910.9,433.9c1.8,0,3.2-1,3.6-2.9
				c0.2-1.1-0.1-1.9-0.8-2.7c-0.1-0.1-0.1-0.1-0.2,0c-0.3,0.3-0.7,0.6-1,1c-1.1,1.2-1.9,2.6-2.5,4.2c-0.1,0.2,0,0.3,0.2,0.3
				C910.3,433.8,910.6,433.9,910.9,433.9z"/>
		</g>
	</g>
	<path class="st0" d="M1029.9,392c-1.6,4,0.8,53.6-5.6,56c-6.4,2.4-94.4-16.8-100.8-19.2c-6.4-2.4-27.2,4.8-33.6,0.8
		c-6.4-4-2.4-28-2.4-28l27.2-0.8l73.6,11.2l-2.4-20.8L1029.9,392z"/>
</g>
</svg>
