<?xml version="1.0" encoding="utf-8"?>
<!-- Generator: Adobe Illustrator 23.0.6, SVG Export Plug-In . SVG Version: 6.00 Build 0)  -->
<svg version="1.1" id="Layer_1" xmlns="http://www.w3.org/2000/svg" xmlns:xlink="http://www.w3.org/1999/xlink" x="0px" y="0px"
	 viewBox="0 0 160 220" style="enable-background:new 0 0 160 220;" xml:space="preserve">
<style type="text/css">
	.st0{fill:#FFFFFF;}
	.st1{fill:#4A6475;}
	.st2{fill:#DDB7B1;}
	.st3{fill:#134C8E;}  //shirt
	.st4{fill:#444444;}
	.st5{fill:#4F4F4F;}
	.st6{fill:#026FE8;}  // k8s logo
	.st7{fill:#F7F9FD;}
	.st8{fill:#FC49F5;} // hair
	.st9{fill:#756042;}
	.st10{fill:#CE9691;}
	.st11{fill:#1F3342;}
</style>


<defs>
<path d="M417.25 153.41C423.05 163.33 433.83 156.46 440.46 146.08C444.88 139.17 445.98 133.67 443.77 129.6C449.66 135.2 455.74 135.2 462 129.6C471.39 121.21 466.84 106.1 457.58 99.69C451.41 95.42 445.71 97.46 440.46 105.8C439.9 104.07 439.9 100.81 440.46 96.03C441.29 88.86 432.17 70.39 424.99 85.04C420.2 94.81 418.54 102.54 420.02 108.24C418.54 100.1 414.31 96.03 407.31 96.03C396.81 96.03 386.32 105.64 395.15 121.67C401.05 132.35 408.41 135.6 417.25 131.43C413.39 139.47 413.39 146.8 417.25 153.41Z" id="dfjzScP5j">
</path>
<path d="M193.52 50.5C182.92 52.03 169.43 70.59 175.08 81.65C178.85 89.02 187.71 90.85 201.64 87.15C194.54 90.63 191.93 96.69 193.83 105.33C196.68 118.29 209.79 131.57 219 125.08C225.14 120.76 226.33 110.41 222.55 94.04C224.2 94.23 226.86 95.62 230.54 98.22C236.06 102.12 263.53 99.29 254.62 85.85C250.09 79.02 243.88 74.97 236 73.69C235.02 73.53 235.07 72.1 236.07 72.01C240.04 71.66 242.93 69.38 244.74 65.16C249.24 54.69 249.13 46.94 232.23 48.89C220.96 50.19 214.05 53.87 211.51 59.91C206.58 52.61 200.59 49.47 193.52 50.5Z" id="cmx5UJ8uC">
</path>
<path d="M375.62 103.77C364.92 103.42 352.84 113.11 356.82 125.03C359.48 132.97 366.65 138.42 378.35 141.38C376.45 143.88 375.82 149.57 376.44 158.44C377.38 171.73 382.81 175.67 392.84 170.89C399.53 167.7 401.24 161.36 397.99 151.86C399.6 152.33 402.03 154.18 405.28 157.39C410.16 162.21 429.11 164.39 422.25 149.55C417.68 139.66 412.84 133.77 407.76 131.88C414.96 130.38 420.55 126.44 424.51 120.08C430.46 110.53 428.8 102.7 411.83 101.66C400.52 100.97 393.99 109.33 392.24 126.76C388.29 111.66 382.74 104 375.62 103.77Z" id="c1NuJotD2c">
</path>
<path d="M349.87 134.51C353.08 123.24 350.1 118.56 338.63 119.55C332.84 120.05 327.1 121.74 321.42 124.61C318.92 125.88 315.9 124.33 315.47 121.55C315.01 118.55 312.36 116.51 307.53 115.44C295.68 112.82 285.23 122.59 286.67 134.54C287.63 142.51 292.7 146.06 301.86 145.19C309.07 144.74 310.83 145.81 307.14 148.39C301.61 152.27 282.47 174.84 297.27 171.59C307.14 169.42 313.59 165.89 316.62 161C311.89 167.45 311.75 173.65 316.22 179.59C322.92 188.51 332.24 184.99 337.76 167.25C341.45 155.43 337.64 150.37 326.36 152.08C339.89 147.87 347.73 142.01 349.87 134.51Z" id="jGNjgLm3o">
</path>
<path d="M347.77 153.41C353.57 163.33 364.34 156.46 370.97 146.08C375.39 139.17 376.5 133.67 374.29 129.6C380.18 135.2 386.26 135.2 392.52 129.6C401.91 121.21 397.35 106.1 388.1 99.69C381.93 95.42 376.22 97.46 370.97 105.8C370.42 104.07 370.42 100.81 370.97 96.03C371.8 88.86 362.68 70.39 355.5 85.04C350.71 94.81 349.06 102.54 350.53 108.24C349.06 100.1 344.82 96.03 337.82 96.03C327.33 96.03 316.83 105.64 325.67 121.67C331.56 132.35 338.93 135.6 347.77 131.43C343.9 139.47 343.9 146.8 347.77 153.41Z" id="a1J7yx93j">
</path>
<path d="M229.21 25.33C218.61 26.86 205.12 45.42 210.78 56.48C214.54 63.85 223.4 65.68 237.34 61.98C230.23 65.46 227.63 71.52 229.52 80.16C232.37 93.12 245.49 106.4 254.7 99.91C260.84 95.59 262.02 85.24 258.24 68.87C259.89 69.06 262.56 70.45 266.23 73.05C271.75 76.95 299.23 74.12 290.31 60.68C285.78 53.85 279.58 49.8 271.7 48.52C270.71 48.36 270.76 46.93 271.76 46.84C275.73 46.49 278.63 44.21 280.44 39.99C284.93 29.52 284.82 21.77 267.92 23.72C256.65 25.02 249.75 28.7 247.2 34.74C242.28 27.44 236.28 24.3 229.21 25.33Z" id="jngblb9sA">
</path>
<path d="M334.86 22.37C324.17 22.02 312.08 31.72 316.06 43.63C318.72 51.57 325.9 57.02 337.59 59.98C335.69 62.49 335.06 68.17 335.68 77.04C336.62 90.34 342.05 94.28 352.08 89.49C358.77 86.31 360.49 79.96 357.24 70.46C358.84 70.94 361.27 72.78 364.52 76C369.41 80.81 388.35 82.99 381.49 68.16C376.92 58.27 372.09 52.38 367 50.49C374.2 48.98 379.79 45.04 383.76 38.68C389.71 29.13 388.04 21.31 371.07 20.26C359.76 19.57 353.23 27.94 351.49 45.36C347.53 30.27 341.98 22.6 334.86 22.37Z" id="b29jP3H3Aw">
</path>
<path d="M437.9 44.85C441.11 33.59 438.12 28.9 426.66 29.9C420.86 30.4 415.12 32.08 409.45 34.95C406.94 36.22 403.93 34.67 403.5 31.9C403.03 28.89 400.38 26.86 395.55 25.79C383.7 23.17 373.26 32.93 374.7 44.89C375.66 52.86 380.72 56.41 389.89 55.54C397.09 55.09 398.85 56.15 395.17 58.74C389.64 62.61 370.5 85.18 385.3 81.93C395.16 79.76 401.61 76.23 404.64 71.35C399.91 77.79 399.78 83.99 404.24 89.94C410.95 98.85 420.26 95.34 425.78 77.6C429.47 65.77 425.67 60.71 414.38 62.43C427.92 58.22 435.75 52.36 437.9 44.85Z" id="bcVoOhBLm">
</path>
<path d="M276.17 86.63C281.97 96.55 292.74 89.68 299.37 79.31C303.79 72.39 304.9 66.89 302.69 62.83C308.58 68.42 314.66 68.42 320.92 62.83C330.31 54.43 325.75 39.33 316.5 32.92C310.33 28.64 304.62 30.68 299.37 39.02C298.82 37.29 298.82 34.04 299.37 29.25C300.2 22.08 291.09 3.62 283.91 18.27C279.12 28.03 277.46 35.76 278.93 41.46C277.46 33.32 273.22 29.25 266.23 29.25C255.73 29.25 245.23 38.87 254.07 54.89C259.97 65.57 267.33 68.83 276.17 64.66C272.3 72.69 272.3 80.02 276.17 86.63Z" id="alX9NM2qz">
</path>
<path d="M163.59 96.56C152.99 98.1 139.5 116.66 145.15 127.71C148.92 135.09 157.78 136.92 171.71 133.21C164.61 136.69 162 142.75 163.9 151.39C166.75 164.36 179.86 177.63 189.07 171.15C195.21 166.82 196.4 156.48 192.62 140.1C194.27 140.29 196.93 141.69 200.61 144.29C206.13 148.19 233.6 145.36 224.69 131.92C220.16 125.08 213.95 121.03 206.07 119.75C205.09 119.59 205.14 118.16 206.14 118.07C210.11 117.72 213 115.44 214.81 111.22C219.31 100.75 219.2 93 202.3 94.96C191.03 96.26 184.12 99.93 181.58 105.97C176.65 98.67 170.66 95.54 163.59 96.56Z" id="imbLiCZnS">
</path>
<path d="M270.33 68.14C259.64 67.8 247.55 77.49 251.54 89.4C254.19 97.34 261.37 102.79 273.06 105.75C271.17 108.26 270.53 113.95 271.16 122.81C272.1 136.11 277.53 140.05 287.56 135.27C294.24 132.08 295.96 125.74 292.71 116.23C294.31 116.71 296.74 118.56 300 121.77C304.88 126.59 323.83 128.77 316.97 113.93C312.39 104.04 307.56 98.15 302.47 96.26C309.68 94.75 315.26 90.82 319.23 84.45C325.18 74.91 323.51 67.08 306.54 66.04C295.23 65.34 288.7 73.71 286.96 91.14C283 76.04 277.46 68.38 270.33 68.14Z" id="d2ScvK0VVM">
</path>
<path d="M502.87 123.04C506.08 111.78 503.1 107.09 491.63 108.09C485.83 108.59 480.09 110.28 474.42 113.15C471.91 114.41 468.9 112.86 468.47 110.09C468.01 107.09 465.36 105.05 460.52 103.98C448.67 101.36 438.23 111.12 439.67 123.08C440.63 131.05 445.69 134.6 454.86 133.73C462.06 133.28 463.82 134.35 460.14 136.93C454.61 140.8 435.47 163.38 450.27 160.12C460.13 157.96 466.58 154.43 469.61 149.54C464.88 155.99 464.75 162.18 469.22 168.13C475.92 177.05 485.23 173.53 490.76 155.79C494.44 143.96 490.64 138.91 479.35 140.62C492.89 136.41 500.73 130.55 502.87 123.04Z" id="a117XhOwA4">
</path>
<path d="M421.89 121.96C427.69 131.88 438.46 125.02 445.09 114.64C449.51 107.72 450.61 102.23 448.4 98.16C454.3 103.75 460.37 103.75 466.63 98.16C476.03 89.77 471.47 74.66 462.21 68.25C456.05 63.98 450.34 66.01 445.09 74.35C444.54 72.62 444.54 69.37 445.09 64.59C445.92 57.41 436.8 38.95 429.62 53.6C424.83 63.37 423.17 71.1 424.65 76.79C423.17 68.66 418.94 64.59 411.94 64.59C401.44 64.59 390.95 74.2 399.79 90.22C405.68 100.9 413.05 104.16 421.89 99.99C418.02 108.03 418.02 115.35 421.89 121.96Z" id="ceyYOB7cb">
</path>
<path d="M234.84 96.56C224.23 98.1 210.75 116.66 216.4 127.71C220.17 135.09 229.02 136.92 242.96 133.21C235.86 136.69 233.25 142.75 235.15 151.39C237.99 164.36 251.11 177.63 260.32 171.15C266.46 166.82 267.64 156.48 263.87 140.1C265.52 140.29 268.18 141.69 271.86 144.29C277.37 148.19 304.85 145.36 295.94 131.92C291.41 125.08 285.2 121.03 277.32 119.75C276.34 119.59 276.39 118.16 277.38 118.07C281.36 117.72 284.25 115.44 286.06 111.22C290.56 100.75 290.45 93 273.55 94.96C262.28 96.26 255.37 99.93 252.82 105.97C247.9 98.67 241.91 95.54 234.84 96.56Z" id="a2kTu1MeOr">
</path>
<path d="M322.54 68.14C311.85 67.8 299.76 77.49 303.74 89.4C306.4 97.34 313.58 102.79 325.27 105.75C323.37 108.26 322.74 113.95 323.36 122.81C324.3 136.11 329.74 140.05 339.76 135.27C346.45 132.08 348.17 125.74 344.92 116.23C346.52 116.71 348.95 118.56 352.2 121.77C357.09 126.59 376.03 128.77 369.17 113.93C364.6 104.04 359.77 98.15 354.68 96.26C361.88 94.75 367.47 90.82 371.44 84.45C377.39 74.91 375.72 67.08 358.75 66.04C347.44 65.34 340.91 73.71 339.17 91.14C335.21 76.04 329.67 68.38 322.54 68.14Z" id="a5bTF70kDb">
</path>
<path d="M426.43 72.53C429.64 61.27 426.66 56.58 415.19 57.58C409.39 58.08 403.65 59.76 397.98 62.63C395.47 63.9 392.46 62.35 392.03 59.58C391.57 56.57 388.92 54.54 384.08 53.47C372.23 50.85 361.79 60.61 363.23 72.56C364.19 80.53 369.25 84.09 378.42 83.22C385.63 82.77 387.39 83.83 383.7 86.42C378.17 90.29 359.03 112.86 373.83 109.61C383.7 107.44 390.14 103.91 393.17 99.02C388.44 105.47 388.31 111.67 392.78 117.61C399.48 126.53 408.79 123.02 414.32 105.28C418 93.45 414.2 88.39 402.91 90.1C416.45 85.9 424.29 80.04 426.43 72.53Z" id="b35Y85yH0G">
</path>
<path d="M147.49 137.22C166.47 137.22 182.16 152 183.3 170.95C186.95 231.78 196.07 383.88 210.68 627.23C190.8 627.23 178.38 627.23 173.41 627.23C163.48 627.23 155.18 619.69 154.22 609.81C145.07 515.29 120.19 258.39 111.26 166.17C109.76 150.66 121.96 137.22 137.54 137.22C146.29 137.22 139.68 137.22 147.49 137.22Z" id="eoRlRX90x">
</path>
<path d="M499.14 137.22C517.06 137.22 530.9 152.96 528.62 170.73C516.88 262.03 484.34 515.01 472.2 609.45C470.89 619.62 462.24 627.23 451.99 627.23C447.08 627.23 434.79 627.23 415.14 627.23C437.71 381.34 451.81 227.66 457.45 166.19C458.96 149.78 472.72 137.22 489.2 137.22C497.94 137.22 491.33 137.22 499.14 137.22Z" id="f28f1I7Mej">
</path>
<path d="M218.4 137.22C237.1 137.22 252.31 152.3 252.47 171.01C252.99 231.84 254.3 383.91 256.38 627.23L205.81 627.23C192.55 381.38 184.25 227.73 180.94 166.27C180.09 150.49 192.65 137.22 208.46 137.22C217.2 137.22 210.59 137.22 218.4 137.22Z" id="b4XTskvW5e">
</path>
<path d="M289.31 137.22C307.86 137.22 322.79 152.46 322.42 171C321.2 231.83 318.16 383.91 313.29 627.23L257.12 627.23C253.69 381.4 251.54 227.76 250.69 166.31C250.46 150.31 263.37 137.22 279.37 137.22C288.11 137.22 281.5 137.22 289.31 137.22Z" id="fd2DJcBom">
</path>
<path d="M360.22 137.22C378.54 137.22 393.08 152.66 391.98 170.95C388.33 231.78 379.2 383.88 364.6 627.23L312.63 627.23C316.92 381.4 319.61 227.76 320.68 166.3C320.96 150.16 334.13 137.22 350.28 137.22C359.02 137.22 352.41 137.22 360.22 137.22Z" id="aa6yd3GEA">
</path>
<path d="M431.48 137.22C449.58 137.22 463.74 152.83 461.99 170.85C456.08 231.7 441.3 383.83 417.65 627.23L362.88 627.23C377.71 381.38 386.99 227.72 390.69 166.26C391.68 149.95 405.19 137.22 421.53 137.22C430.28 137.22 423.67 137.22 431.48 137.22Z" id="b1WMzuu2q8">
</path>
</defs>

<g transform="rotate(-10 80 110)">
<g transform="translate(-885 -75)">
// face
<path class="st2" d="M907.8,115.5c-3.9,14.2,2.6,77.6,5.2,86.6c2.6,9,29.7,80.1,68.5,58.2c38.8-22,42.7-45.2,42.7-45.2
	s15.5-80.1,0-100.8S907.8,115.5,907.8,115.5z"/>
// hair
<path class="st8" d="M1033.1,126.5c-2.6-8.2-12.9-32.7-32.3-35.4c-9.3-1.3-40.1-5.5-50.4-2.7c-10.3,2.7-39.5,12.7-47.8,25.9
	c-15.5,24.5-3.9,158.8,65.9,161.6c35,1.4,63.3-28.2,63.3-68.9c0-5.1,1.3-15.3,1.2-21.8C1034,171.6,1035.4,133.6,1033.1,126.5z
	 M991.8,236.9c-3.9-9.5-11.7-6.6-23.3-8.2c-15.5-2.1-18.1,4.4-20.7,9.6c-0.9,1.7-8.3-4.2-9-5.2c-12.5-16.3-22-12.9-28-58.5
	c0-10.8,1.2-23.8,6-30.4c4-5.4,10.3-9.5,14.2-8.2c3.9,1.4,2.6,16.4,3.9,13.6c1.3-2.7,7.8-19.1,14.2-25.9c6.5-6.8,6.5,16.4,9,17.7
	c2.6,1.4,14.2-24.5,14.2-24.5s14.2,12.3,14.2,17.7c0,5.5,7.8-8.2,10.3-12.3c0,0,12.9,23.2,12.9,20.4s7.8-12.3,7.8-9.5
	c0,2.4,12.9,36.5,2.5,64.7C1018.9,216.4,994.9,244.5,991.8,236.9z"/>
// Mushtash
<path class="st9" d="M929.7,230.1c0,0,12.9-16.4,18.1-15c5.2,1.4,41.4-1.4,44-1.4c2.6,0,16.8,17.7,16.8,17.7s2.6-32.9-25.9-31.5
	c-7.7,0.4-28.4,0-31,0C949.1,199.9,929.7,205.5,929.7,230.1z"/>
// nose
<path class="st10" d="M958.2,178.9c0,28.6-2.6,30.6,12.9,30.6c11.9,0,9-30.6,9-30.6H958.2z"/>
</g>
</g>

<g transform="rotate(5 80 220) translate(6 100) scale(.25 0.25)">

<use xlink:href="#dfjzScP5j" opacity="1" fill="#f9f2c3" fill-opacity="1"></use>
<use xlink:href="#dfjzScP5j" opacity="1" fill-opacity="0" stroke="#000000" stroke-width="1" stroke-opacity="1"></use>
<use xlink:href="#cmx5UJ8uC" opacity="1" fill="#fef78c" fill-opacity="1"></use>
<use xlink:href="#cmx5UJ8uC" opacity="1" fill-opacity="0" stroke="#000000" stroke-width="1" stroke-opacity="1"></use>
<use xlink:href="#c1NuJotD2c" opacity="1" fill="#fffb5f" fill-opacity="1"></use>
<use xlink:href="#c1NuJotD2c" opacity="1" fill-opacity="0" stroke="#000000" stroke-width="1" stroke-opacity="1"></use>
<use xlink:href="#jGNjgLm3o" opacity="1" fill="#ffe9a1" fill-opacity="1"></use>
<use xlink:href="#jGNjgLm3o" opacity="1" fill-opacity="0" stroke="#000000" stroke-width="1" stroke-opacity="1"></use>
<use xlink:href="#a1J7yx93j" opacity="1" fill="#f9f2c3" fill-opacity="1"></use>
<use xlink:href="#a1J7yx93j" opacity="1" fill-opacity="0" stroke="#000000" stroke-width="1" stroke-opacity="1"></use>
<use xlink:href="#jngblb9sA" opacity="1" fill="#fef78c" fill-opacity="1"></use>
<use xlink:href="#jngblb9sA" opacity="1" fill-opacity="0" stroke="#000000" stroke-width="1" stroke-opacity="1"></use>
<use xlink:href="#b29jP3H3Aw" opacity="1" fill="#fffb5f" fill-opacity="1"></use>
<use xlink:href="#b29jP3H3Aw" opacity="1" fill-opacity="0" stroke="#000000" stroke-width="1" stroke-opacity="1"></use>
<use xlink:href="#bcVoOhBLm" opacity="1" fill="#ffe9a1" fill-opacity="1"></use>
<use xlink:href="#bcVoOhBLm" opacity="1" fill-opacity="0" stroke="#000000" stroke-width="1" stroke-opacity="1"></use>
<use xlink:href="#alX9NM2qz" opacity="1" fill="#f9f2c3" fill-opacity="1"></use>
<use xlink:href="#alX9NM2qz" opacity="1" fill-opacity="0" stroke="#000000" stroke-width="1" stroke-opacity="1"></use>
<use xlink:href="#imbLiCZnS" opacity="1" fill="#fef78c" fill-opacity="1"></use>
<use xlink:href="#imbLiCZnS" opacity="1" fill-opacity="0" stroke="#000000" stroke-width="1" stroke-opacity="1"></use>
<use xlink:href="#d2ScvK0VVM" opacity="1" fill="#fffb5f" fill-opacity="1"></use>
<use xlink:href="#d2ScvK0VVM" opacity="1" fill-opacity="0" stroke="#000000" stroke-width="1" stroke-opacity="1"></use>
<use xlink:href="#a117XhOwA4" opacity="1" fill="#ffe9a1" fill-opacity="1"></use>
<use xlink:href="#a117XhOwA4" opacity="1" fill-opacity="0" stroke="#000000" stroke-width="1" stroke-opacity="1"></use>
<use xlink:href="#ceyYOB7cb" opacity="1" fill="#f9f2c3" fill-opacity="1"></use>
<use xlink:href="#ceyYOB7cb" opacity="1" fill-opacity="0" stroke="#000000" stroke-width="1" stroke-opacity="1"></use>
<use xlink:href="#a2kTu1MeOr" opacity="1" fill="#fef78c" fill-opacity="1"></use>
<use xlink:href="#a2kTu1MeOr" opacity="1" fill-opacity="0" stroke="#000000" stroke-width="1" stroke-opacity="1"></use>
<use xlink:href="#a5bTF70kDb" opacity="1" fill="#fffb5f" fill-opacity="1"></use>
<use xlink:href="#a5bTF70kDb" opacity="1" fill-opacity="0" stroke="#000000" stroke-width="1" stroke-opacity="1"></use>
<use xlink:href="#b35Y85yH0G" opacity="1" fill="#ffe9a1" fill-opacity="1"></use>
<use xlink:href="#b35Y85yH0G" opacity="1" fill-opacity="0" stroke="#000000" stroke-width="1" stroke-opacity="1"></use>
<use xlink:href="#eoRlRX90x" opacity="1" fill="#e73b3b" fill-opacity="1"></use>
<use xlink:href="#eoRlRX90x" opacity="1" fill-opacity="0" stroke="#000000" stroke-width="2" stroke-opacity="1"></use>
<use xlink:href="#f28f1I7Mej" opacity="1" fill="#fcebeb" fill-opacity="1"></use>
<use xlink:href="#f28f1I7Mej" opacity="1" fill-opacity="0" stroke="#000000" stroke-width="2" stroke-opacity="1"></use>
<use xlink:href="#b4XTskvW5e" opacity="1" fill="#fcebeb" fill-opacity="1"></use>
<use xlink:href="#b4XTskvW5e" opacity="1" fill-opacity="0" stroke="#000000" stroke-width="2" stroke-opacity="1"></use>
<use xlink:href="#fd2DJcBom" opacity="1" fill="#e73b3b" fill-opacity="1"></use>
<use xlink:href="#fd2DJcBom" opacity="1" fill-opacity="0" stroke="#000000" stroke-width="2" stroke-opacity="1"></use>
<use xlink:href="#aa6yd3GEA" opacity="1" fill="#fcebeb" fill-opacity="1"></use>
<use xlink:href="#aa6yd3GEA" opacity="1" fill-opacity="0" stroke="#000000" stroke-width="2" stroke-opacity="1"></use>
<use xlink:href="#b1WMzuu2q8" opacity="1" fill="#e73b3b" fill-opacity="1"></use>
<use xlink:href="#b1WMzuu2q8" opacity="1" fill-opacity="0" stroke="#000000" stroke-width="2" stroke-opacity="1"></use>

</g>

</svg>
