<?xml version="1.0" encoding="UTF-8" standalone="no"?>
<!DOCTYPE svg PUBLIC "-//W3C//DTD SVG 1.1//EN" "http://www.w3.org/Graphics/SVG/1.1/DTD/svg11.dtd">
<svg version="1.1" xmlns="http://www.w3.org/2000/svg" xmlns:xlink="http://www.w3.org/1999/xlink" preserveAspectRatio="xMidYMid meet" viewBox="0 0 640 640" width="640" height="640">
<defs>
<path d="M408.77 101.87C422.64 121.47 425.44 185.94 425.44 220.8C425.44 280.5 409.64 325.68 382.59 355.25C380.43 357.62 340.08 389.22 329.95 388.88C319.81 388.54 318.76 388.63 315.05 388.88C311.35 389.13 306.89 390.81 300.11 388.88C293.33 386.94 244.25 353.33 231.92 328.14C219.59 302.95 211.12 259.75 211.12 225.47C211.12 178.66 212.16 124.84 228.64 96.67C245.11 68.5 286.53 52.73 321.95 52.73C366.04 52.73 394.9 82.27 408.77 101.87Z" id="b1mZksrloP">
</path>
<path d="M157.45 508.97C159.58 464.59 160.62 377.26 160.32 360.05C159.67 322.62 183.42 210.01 194.2 171.87C202.64 142 205.59 112.17 225.25 84.14C236.93 67.48 250.86 59.31 267.04 59.63C270.34 59.69 273.07 62.24 273.36 65.53C273.76 70.07 274.56 79.25 274.99 84.13C275.21 86.63 273.94 89.03 271.75 90.25C243.07 106.31 225.85 131.73 220.09 166.52C211.06 221.04 214.48 276.98 225.25 320.33C232.47 349.4 235.33 363.81 235.8 387.26C236.92 443.3 224.41 494.41 225.25 512.34C227.01 550 223.05 587.4 213.37 624.56C211.92 630.14 206.63 633.84 200.89 633.3C184.48 631.76 145.18 628.05 128.76 626.51C123.94 626.05 121.05 620.93 123.16 616.57C144.72 572.02 156.15 536.15 157.45 508.97Z" id="b8yCUPL3WV">
</path>
<path d="M295.7 248.34C303.45 216.24 310.98 200.07 318.28 199.83C328.55 199.48 333.13 219.04 341.02 244.54C348.92 270.04 354.85 275.73 349.85 283.33C342.31 294.78 331.3 285.8 320 286.37C307.51 287.01 298.18 293.99 289.85 281.33C286.99 276.98 288.94 265.99 295.7 248.34Z" id="f1NQBJArao">
</path>
<path d="M187.1 625.6C190.85 600.6 205.72 579.6 202.1 525.6C198.47 471.6 170.85 463.73 172.6 409.6C174.35 355.47 202.97 350.37 209.1 309.1C215.22 267.83 197.97 288.25 197.1 244.5C196.22 200.75 187.22 177.45 205.6 134.1C217.85 105.2 239.52 85.03 270.6 73.6" id="b1WAEts5sV">
</path>
<path d="M365.12 53.92C380.03 59.89 424.85 92.8 443.06 161.83C447.86 180.05 458.88 226.54 460.37 298.36C461.86 370.18 448.9 360.44 482.35 467.6C503.36 534.93 520.98 586.78 535.2 623.13C536.95 627.62 533.66 632.48 528.84 632.51C504.13 632.7 439.44 633.17 414.59 633.35C409.49 633.39 405.37 629.21 405.49 624.11C405.98 603.1 403.92 577.99 399.3 548.77C391.53 499.53 368.15 470.7 369.52 445.15C370.9 419.6 379.93 406.75 388.83 386C397.73 365.24 396.99 358.11 408.62 316.31C420.24 274.5 422.02 256.29 420.34 237.78C415.08 179.95 422.92 172 395.56 138.42C384.89 125.32 371.58 99.92 333.09 87.51C310.3 80.15 294.14 78.59 284.62 82.81C281.88 84.02 278.76 82.24 278.42 79.26C277.74 73.36 276.71 64.44 276.11 59.23C275.49 53.82 279.03 48.8 284.34 47.57C311.81 41.22 338.74 43.34 365.12 53.92Z" id="a1d14Qaenu">
</path>
<path d="M202.1 625.6C210.72 603.85 219.34 591.85 216.84 540.1C214.34 488.35 196.47 476.35 192.1 418.6C187.72 360.85 214.85 371.22 219.1 307.6C223.35 243.97 196.22 220.85 209.1 164.1C212.96 147.07 224.51 137.72 231.2 126.34C246.82 99.79 261.24 82.96 270.6 80.6" id="a2AVgChb62">
</path>
<path d="M415.16 213.25C426.21 213.25 435.16 222.2 435.16 233.25C435.16 313.27 435.16 533.33 435.16 613.35C435.16 624.4 426.21 633.35 415.16 633.35C369.46 633.35 252.33 633.35 206.62 633.35C195.58 633.35 186.62 624.4 186.62 613.35C186.62 533.33 186.62 313.27 186.62 233.25C186.62 222.2 195.58 213.25 206.62 213.25C252.33 213.25 369.46 213.25 415.16 213.25Z" id="a23Lxwzf2">
</path>
<path d="M175.6 622.6C186.43 607.1 191.27 589.93 190.1 571.1C188.35 542.85 173.35 558.98 168.6 509.6C163.85 460.23 163.22 452.23 171.1 373.6C178.97 294.97 198.69 223.47 200.1 195.1C201.51 166.72 185.03 161.56 193.4 131.43C201.78 101.31 216.13 90.85 233.6 74.6C245.24 63.77 256.91 60.6 268.6 65.1" id="d1qjej3YIq">
</path>
<path d="M154.1 620.77C186.36 581.69 199.7 547.52 194.1 518.27C185.71 474.39 173.9 497.27 172.52 425.27C171.7 382.43 154.91 360.11 158.93 311.36C162.95 262.61 185 261.45 188.6 230.27C197.49 153.27 192.6 160.77 208.1 117.27C223.6 73.77 243.97 66.52 270.6 68.27" id="e9D2rYXIH">
</path>
<path d="M132.1 620.71C138.85 621.88 146.68 606.21 155.6 573.71C168.97 524.96 188.27 506.83 190.27 452.71C192.27 398.58 181.47 376.71 183.6 345.08C184.52 331.33 186.79 318.69 189.27 300.04C193.64 267.04 181.1 274.67 183.6 239.54C186.1 204.42 192.85 185.46 202.6 144.21C212.35 102.96 214.85 77.44 229.1 70.19C238.6 65.36 251.77 63.5 268.6 64.62" id="a89BUW9T8d">
</path>
<path d="M149.6 617.2C188.77 558.45 210.6 521.62 215.1 506.7C221.85 484.33 210.22 464.44 208.6 423.87C206.97 383.29 215.1 385.03 208.6 344.4C202.1 303.78 200.54 302.25 202.6 247.2C204.66 192.15 199.84 165.32 216.84 124.2C228.18 96.78 246.1 82.95 270.6 82.7" id="eNhaLTHO">
</path>
<path d="M482 624.35C445.23 558.08 421 505.02 409.3 465.15C397.6 425.28 398.73 397.28 412.68 381.13C432.68 350.05 444.05 316.89 446.8 281.65C449.63 245.32 443.63 207.15 428.8 167.15L371.05 107.25C360.96 96.76 354.27 90.45 350.97 88.32C326.8 72.72 304.41 68.37 283.8 75.27" id="b3baNQK5MZ">
</path>
<path d="M514.5 622.96C503.75 605 499.08 580.08 500.5 548.21C502.63 500.39 471.63 493.1 459 439.04C446.38 384.98 474.67 391.46 464.67 352.46C454.67 313.46 458.88 302.02 459 285.71C459.13 269.39 452.25 167.46 419.5 110.21C411.64 96.47 398.75 85.69 391.37 78.65C368 56.37 351.75 62.6 328 56.71C309.04 52.01 294.64 54.48 284.79 64.13C283.81 65.09 282.88 66.11 282 67.21" id="a3eaklLN4j">
</path>
<path d="M427.5 624.2C440.57 626.2 443.52 608.7 436.36 571.7C425.61 516.2 388.09 479.07 393.5 414.2C398.91 349.32 415.75 377.07 427.5 312.2C439.25 247.32 439 195.7 431.5 142.7C424 89.7 415 89.07 404.5 78.7C394 68.32 367.88 54.2 333.5 47.2C310.58 42.53 293.42 46.86 282 60.2" id="aigtFG8u">
</path>
<path d="M500.5 617.2C489.3 561.88 481.46 525.93 477 509.35C470.3 484.48 458.34 488.99 449.72 455.74C441.09 422.49 445.42 405.78 442.5 376.35C437.38 324.72 448.38 327.22 441.5 272.35C434.63 217.47 437.38 208.6 415 156.85C392.63 105.1 412.63 102.47 375.5 78.35C350.75 62.27 319.08 61.27 280.5 75.35" id="b43duv7pb">
</path>
<path d="M492 624.35C484.44 605.13 459.63 564.35 445 504.85C437.1 472.72 433.02 441.71 432.74 411.83C433.06 401.45 433.31 392.95 433.5 386.35C435 334.22 449.5 338.22 451 296.35C452.5 254.47 438.25 187.47 417 130.85C402.87 93.19 382.3 84.87 371 79.85C337.27 64.85 308.43 64.6 288.58 66.85" id="a3ij9qigLu">
</path>
<path d="M408 618.85C428.25 630.52 434.92 622.35 428 594.35C417.63 552.35 412.5 558.48 402.5 523.35C396.7 502.98 376.08 491.77 372.58 465.28C370.05 446.09 382.04 410.32 388.5 398.35C403.88 369.85 418.13 366.22 428 336.85C437.88 307.47 421.29 274.08 421.1 231.68C420.92 189.29 428.35 190.46 427.26 167.27C425.43 128.49 402.84 114.02 384.17 99.18C358.05 78.43 323.49 68.82 280.5 70.35" id="c46IwAtvS">
</path>
<path d="M253.75 286.68C253.75 287.51 253.08 288.18 252.25 288.18C251.42 288.18 250.75 287.51 250.75 286.68C250.75 285.86 251.42 285.18 252.25 285.18C253.08 285.18 253.75 285.86 253.75 286.68Z" id="b1XuiXc67v">
</path>
<path d="M402.75 306.68C402.75 307.51 402.08 308.18 401.25 308.18C400.42 308.18 399.75 307.51 399.75 306.68C399.75 305.86 400.42 305.18 401.25 305.18C402.08 305.18 402.75 305.86 402.75 306.68Z" id="g3xkOqTxs8">
</path>
</defs>
<g>

<use xlink:href="#a23Lxwzf2" opacity="1" fill="#d31a35" fill-opacity="1"></use>
<use xlink:href="#b1mZksrloP" opacity="1" fill="#b9b3cf" fill-opacity="1"></use>
<use xlink:href="#b1mZksrloP" opacity="1" fill-opacity="0" stroke="#be59b6" stroke-width="3" stroke-opacity="1"></use>
<use xlink:href="#b8yCUPL3WV" opacity="1" fill="#d31a35" fill-opacity="1"></use>
<use xlink:href="#f1NQBJArao" opacity="1" fill="#d31a35" fill-opacity="1"></use>
<use xlink:href="#a1d14Qaenu" opacity="1" fill="#d31a35" fill-opacity="1"></use>
<use xlink:href="#b1XuiXc67v" opacity="1" fill="#d31a35" fill-opacity="1"></use>
<use xlink:href="#g3xkOqTxs8" opacity="1" fill="#d31a35" fill-opacity="1"></use>


<use xlink:href="#a2AVgChb62" opacity="1" fill-opacity="0" stroke="#59be59" stroke-width="8" stroke-opacity="1"></use>
<use xlink:href="#d1qjej3YIq" opacity="1" fill-opacity="0" stroke="#59be8b" stroke-width="8" stroke-opacity="1"></use>
<use xlink:href="#e9D2rYXIH" opacity="1" fill-opacity="0" stroke="#59be59" stroke-width="8" stroke-opacity="1"></use>
<use xlink:href="#a89BUW9T8d" opacity="1" fill-opacity="0" stroke="#5986be" stroke-width="8" stroke-opacity="1"></use>
<use xlink:href="#eNhaLTHO" opacity="1" fill-opacity="0" stroke="#59be59" stroke-width="8" stroke-opacity="1"></use>
<use xlink:href="#b3baNQK5MZ" opacity="1" fill-opacity="0" stroke="#59be59" stroke-width="8" stroke-opacity="1"></use>

<use xlink:href="#a3eaklLN4j" opacity="1" fill-opacity="0" stroke="#59be59" stroke-width="8" stroke-opacity="1"></use>
<use xlink:href="#aigtFG8u" opacity="1" fill-opacity="0" stroke="#59be59" stroke-width="8" stroke-opacity="1"></use>
<use xlink:href="#b43duv7pb" opacity="1" fill-opacity="0" stroke="#be598c" stroke-width="8" stroke-opacity="1"></use>
<use xlink:href="#a3ij9qigLu" opacity="1" fill-opacity="0" stroke="#59be59" stroke-width="8" stroke-opacity="1"></use>
<use xlink:href="#c46IwAtvS" opacity="1" fill-opacity="0" stroke="#63261a" stroke-width="8" stroke-opacity="1"></use>

</g>
</svg>