<?xml version="1.0" encoding="utf-8"?>
<svg version="1.1" id="Layer_1" xmlns="http://www.w3.org/2000/svg" xmlns:xlink="http://www.w3.org/1999/xlink" x="0px" y="0px"
	 viewBox="0 0 640 500" style="enable-background:new 0 0 640 640;" xml:space="preserve">


<style type="text/css">
	.hair{
   opacity:1;
   fill-opacity:1;
   fill:#282828;
  }
	.head{
   opacity:1;
   fill:#d2ac97;
   fill-opacity:1;
  }
	.nose{
   opacity:1;
   fill:#a7716c;
   fill-opacity:1;
  }
	.spot{
   opacity:1;
   fill:#b17c6c;
   fill-opacity:1;
  }
  
  
</style>

<defs>
<path d="M408.77 101.87C422.64 121.47 425.44 185.94 425.44 220.8C425.44 280.5 409.64 325.68 382.59 355.25C380.43 357.62 340.08 389.22 329.95 388.88C319.81 388.54 318.76 388.63 315.05 388.88C311.35 389.13 306.89 390.81 300.11 388.88C293.33 386.94 244.25 353.33 231.92 328.14C219.59 302.95 211.12 259.75 211.12 225.47C211.12 178.66 212.16 124.84 228.64 96.67C245.11 68.5 286.53 52.73 321.95 52.73C366.04 52.73 394.9 82.27 408.77 101.87Z" id="b1mZksrloP">
</path>
<path d="M157.45 508.97C159.58 464.59 160.62 377.26 160.32 360.05C159.67 322.62 183.42 210.01 194.2 171.87C202.64 142 205.59 112.17 225.25 84.14C236.93 67.48 250.86 59.31 267.04 59.63C270.34 59.69 273.07 62.24 273.36 65.53C273.76 70.07 274.56 79.25 274.99 84.13C275.21 86.63 273.94 89.03 271.75 90.25C243.07 106.31 225.85 131.73 220.09 166.52C211.06 221.04 214.48 276.98 225.25 320.33C232.47 349.4 235.33 363.81 235.8 387.26C236.92 443.3 224.41 494.41 225.25 512.34C227.01 550 223.05 587.4 213.37 624.56C211.92 630.14 206.63 633.84 200.89 633.3C184.48 631.76 145.18 628.05 128.76 626.51C123.94 626.05 121.05 620.93 123.16 616.57C144.72 572.02 156.15 536.15 157.45 508.97Z" id="b8yCUPL3WV">
</path>
<path d="M295.7 248.34C303.45 216.24 310.98 200.07 318.28 199.83C328.55 199.48 333.13 219.04 341.02 244.54C348.92 270.04 354.85 275.73 349.85 283.33C342.31 294.78 331.3 285.8 320 286.37C307.51 287.01 298.18 293.99 289.85 281.33C286.99 276.98 288.94 265.99 295.7 248.34Z" id="f1NQBJArao">
</path>
<path d="M365.12 53.92C380.03 59.89 424.85 92.8 443.06 161.83C447.86 180.05 458.88 226.54 460.37 298.36C461.86 370.18 448.9 360.44 482.35 467.6C503.36 534.93 520.98 586.78 535.2 623.13C536.95 627.62 533.66 632.48 528.84 632.51C504.13 632.7 439.44 633.17 414.59 633.35C409.49 633.39 405.37 629.21 405.49 624.11C405.98 603.1 403.92 577.99 399.3 548.77C391.53 499.53 368.15 470.7 369.52 445.15C370.9 419.6 379.93 406.75 388.83 386C397.73 365.24 396.99 358.11 408.62 316.31C420.24 274.5 422.02 256.29 420.34 237.78C415.08 179.95 422.92 172 395.56 138.42C384.89 125.32 371.58 99.92 333.09 87.51C310.3 80.15 294.14 78.59 284.62 82.81C281.88 84.02 278.76 82.24 278.42 79.26C277.74 73.36 276.71 64.44 276.11 59.23C275.49 53.82 279.03 48.8 284.34 47.57C311.81 41.22 338.74 43.34 365.12 53.92Z" id="a1d14Qaenu">
</path>
<path d="M415.16 213.25C426.21 213.25 435.16 222.2 435.16 233.25C435.16 313.27 435.16 533.33 435.16 613.35C435.16 624.4 426.21 633.35 415.16 633.35C369.46 633.35 252.33 633.35 206.62 633.35C195.58 633.35 186.62 624.4 186.62 613.35C186.62 533.33 186.62 313.27 186.62 233.25C186.62 222.2 195.58 213.25 206.62 213.25C252.33 213.25 369.46 213.25 415.16 213.25Z" id="a23Lxwzf2">
</path>
<path d="M253.75 286.68C253.75 287.51 253.08 288.18 252.25 288.18C251.42 288.18 250.75 287.51 250.75 286.68C250.75 285.86 251.42 285.18 252.25 285.18C253.08 285.18 253.75 285.86 253.75 286.68Z" id="b1XuiXc67v">
</path>
<path d="M402.75 306.68C402.75 307.51 402.08 308.18 401.25 308.18C400.42 308.18 399.75 307.51 399.75 306.68C399.75 305.86 400.42 305.18 401.25 305.18C402.08 305.18 402.75 305.86 402.75 306.68Z" id="g3xkOqTxs8">
</path>
</defs>
<g>

<use xlink:href="#a23Lxwzf2" class="hair"></use>
<use xlink:href="#b1mZksrloP" class="head"></use>
<use xlink:href="#b8yCUPL3WV" class="hair"></use>
<use xlink:href="#f1NQBJArao" class="nose"></use>
<use xlink:href="#a1d14Qaenu" class="hair"></use>
<use xlink:href="#b1XuiXc67v" class="spot"></use>
<use xlink:href="#g3xkOqTxs8" class="spot"></use>

</g>
</svg>