<?xml version="1.0" encoding="UTF-8" standalone="no"?>
<svg
   version="1.1"
   id="Layer_1"
   x="0px"
   y="0px"
   viewBox="-0 0 600 600"
   xml:space="preserve"
   width="600"
   height="600"
   sodipodi:docname="poo 2.svg"
   inkscape:version="1.1.1 (c3084ef, 2021-09-22)"
   xmlns:inkscape="http://www.inkscape.org/namespaces/inkscape"
   xmlns:sodipodi="http://sodipodi.sourceforge.net/DTD/sodipodi-0.dtd"
   xmlns="http://www.w3.org/2000/svg"
   xmlns:svg="http://www.w3.org/2000/svg"><defs
   id="defs832" /><sodipodi:namedview
   id="namedview830"
   pagecolor="#ffffff"
   bordercolor="#666666"
   borderopacity="1.0"
   inkscape:pageshadow="2"
   inkscape:pageopacity="0.0"
   inkscape:pagecheckerboard="0"
   showgrid="false"
   inkscape:zoom="0.38190587"
   inkscape:cx="43.204363"
   inkscape:cy="582.60429"
   inkscape:window-width="1312"
   inkscape:window-height="969"
   inkscape:window-x="0"
   inkscape:window-y="44"
   inkscape:window-maximized="0"
   inkscape:current-layer="Layer_1" />
   
  <g
   id="poo"
   transform="matrix(4.1786926,0,0,4.380562,-1866.3929,-1999.1813)">
   <path
   id="path6295-5-8-0"
   style="display:inline;fill:#ffffff;fill-opacity:1;stroke:#945f01;stroke-width:4.50723;stroke-opacity:1"
   d="m 542.05579,496.99107 c 1.36857,4.09434 -0.57813,10.65416 -5.4254,14.83084 -14.83104,7.80679 -37.37243,14.53311 -43.88999,15.65657 -7.52599,-0.16384 -10.99026,-2.74497 -12.51133,-7.29551 -1.68717,-5.04751 0.61441,-10.49481 3.79938,-13.03279 4.28164,-3.09477 15.04361,-6.26498 18.70304,-11.029 4.72827,-6.15548 1.45054,-12.94358 -0.44456,-17.40553 8.35612,-2.94562 15.92252,8.50557 25.86763,12.75143 0,0 12.4141,1.07492 13.90123,5.52399 z" />
     <path
   id="path6295-4"
   style="display:inline;fill:#ffffff;fill-opacity:1;stroke:#945f01;stroke-width:4.50723;stroke-opacity:1"
   d="m 576.81793,554.06907 c 0.77225,6.17788 -4.83865,14.24211 -14.37978,17.77844 -27.38089,4.05345 -67.12396,3.22099 -78.31589,1.86255 -12.39118,-3.5569 -17.1819,-8.60396 -18.04019,-15.47017 -0.95203,-7.61608 4.84056,-14.0092 11.03452,-16.05195 10.67256,-0.57398 30.1607,4.05507 45.35116,3.74236 14.89757,-0.3067 25.5255,-5.56095 33.36501,-5.53642 13.13183,-0.82713 20.14603,6.9621 20.98517,13.67519 z" />
     <path
   id="path6295-5"
   style="display:inline;fill:#ffffff;fill-opacity:1;stroke:#945f01;stroke-width:3.63935;stroke-opacity:1"
   d="m 557.25679,512.64244 c 1.89857,4.64259 -0.80204,12.08078 -7.52646,16.81672 -20.57452,8.85213 -51.84531,16.47913 -60.88687,17.75302 -10.44051,-0.18577 -15.24635,-3.11253 -17.35645,-8.2724 -2.34057,-5.72338 0.85232,-11.90008 5.27071,-14.7779 8.23033,-2.66823 24.44838,-3.12639 36.26841,-6.53209 11.59213,-3.34003 18.80696,-9.63793 24.94601,-11.25101 10.10152,-3.37706 17.2216,1.21885 19.28465,6.26366 z" />
     <path
   id="path6295"
   style="fill:#ffffff;fill-opacity:1;stroke:#945f01;stroke-width:4.42086;stroke-opacity:1"
   d="m 568.58317,532.39137 c 2.34392,5.54896 -0.99017,14.43928 -9.29192,20.09981 -25.40065,10.58029 -64.00656,19.69629 -75.16899,21.21888 -12.88952,-0.22204 -18.82266,-3.72018 -21.42772,-9.88739 -2.88959,-6.84075 1.05225,-14.22331 6.50706,-17.66296 10.1609,-3.18914 30.18318,-3.73674 44.77582,-7.80732 14.31126,-3.99209 23.21847,-11.51952 30.79754,-13.4475 12.47101,-4.03636 21.26124,1.4568 23.80821,7.48648 z" />
     </g>
     
</svg>
