<svg version="1.1" id="Layer_1" xmlns="http://www.w3.org/2000/svg" xmlns:xlink="http://www.w3.org/1999/xlink" x="0px" y="0px"
	 viewBox="0 0 700 700" style="enable-background:new 0 0 700 700;" xml:space="preserve">
 
<style type="text/css">
	.box{
   opacity:1;
   fill-opacity:1;
   fill:#000000;
   stroke:#000000;
   stroke-width:1;
   stroke-opacity:1;
  }
  .b0 { fill:#7EFF7A; }
  .b1 { fill:#7EFFFF; }
  .b2 { fill:#7BA3FE; }
  .b3 { fill:#CB70FE; }
  .b4 { fill:#FC49F5; }
  .b5 { fill:#FC4EA7; }
  .b6 { fill:#FD5258; }
</style>


<g transform="rotate(5 350 350)">
<g transform="translate(100 100)">

<rect class="box b6" x="200" y="0" rx="1" ry="1" width="100" height="100" />

<rect class="box b4" x="100" y="100" rx="1" ry="1" width="100" height="100" />
<rect class="box b5" x="200" y="100" rx="1" ry="1" width="100" height="100" />
<rect class="box b4" x="300" y="100" rx="1" ry="1" width="100" height="100" />

<rect class="box b3" x="0" y="200" rx="1" ry="1" width="100" height="100" />
<rect class="box b0" x="200" y="200" rx="1" ry="1" width="100" height="100" />
<rect class="box b3" x="400" y="200" rx="1" ry="1" width="100" height="100" />


<rect class="box b2" x="0" y="400" rx="1" ry="1" width="100" height="100" />
<rect class="box b1" x="100" y="400" rx="1" ry="1" width="100" height="100" />
<rect class="box b1" x="300" y="400" rx="1" ry="1" width="100" height="100" />
<rect class="box b2" x="400" y="400" rx="1" ry="1" width="100" height="100" />

</g>
</g>

</svg>
