<?xml version="1.0" encoding="utf-8"?>
<svg version="1.1" id="Layer_1" xmlns="http://www.w3.org/2000/svg" xmlns:xlink="http://www.w3.org/1999/xlink" x="0px" y="0px"
viewBox="0 0 450 450" style="enable-background:new 0 0 450 450;" xml:space="preserve">

<style type="text/css">
	.face{
   fill:#e0d1ba;
  }
  .hair-front{
    opacity:1;
    fill:#654b31;
    fill-opacity:1;
  }
  .hair{
    opacity:1;
    fill:#503b23;
    fill-opacity:1;
  }
  .eyes{
    opacity:1;
    fill:#FC49F5;
    fill-opacity:1;
  }
  .nose{
    opacity:1;
    fill:#cca994;
    fill-opacity:1;
  }
  .mouth{
    fill:#7EFF7A;
  }
</style>
<g transform="translate(-250 -300) scale(10)">
  <g id="hair-behind">
    <path class="hair"
       d="m 80.114878,83.630465 c 0,0.99501 -60.933265,5.537939 -61.509739,4.073179 -0.42438,-1.078305 -0.885151,-4.024831 0.375467,-6.674725 1.426532,-2.998656 3.46136,-3.522439 4.626622,-5.663613 2.115369,-3.886999 4.734234,-13.185523 4.072976,-12.635775 -1.967877,1.636031 1.277232,-10.688883 2.547581,-13.622943 3.259432,-7.528144 6.637706,-12.334223 8.376326,-13.497016 1.957892,-1.309443 6.523147,-5.164978 12.84736,-4.487004 1.791522,0.192057 2.563174,0.245423 2.039754,1.522926 0.08003,5.274167 6.838639,1.112554 8.343211,3.339576 0.830855,0.295378 1.634836,1.853063 2.749561,4.631133 0.282061,0.702941 0.02408,1.621517 1.045233,4.64846 0.27005,0.800489 1.235018,9.336717 3.374515,17.943253 2.417554,9.725069 11.111133,20.082696 11.111133,20.422549 z"
       />
  </g>


<g id="face-rotate" transform="rotate(4 49 50)">
  <g id="face">
    <path
       class="face"
       d="m 63.901411,51.713106 c 0.0273,1.65441 0.1294,4.681868 0.12996,6.313511 6.49e-4,1.890194 -0.213639,3.809021 -0.586724,5.374708 -0.471053,1.976814 -1.578071,3.459159 -2.388242,4.752492 -1.105125,1.764188 -1.713949,2.947581 -2.57188,3.526015 -0.470139,0.316977 -1.501183,0.9185 -2.465688,1.17796 -0.801397,0.215584 -1.782188,0.195223 -2.485671,0.140958 -1.856668,-0.204649 -7.457622,-2.478855 -9.906983,-5.608787 -2.771175,-3.27248 -2.541877,-8.829808 -2.541877,-13.992747 0,-5.116896 -1.190064,-11.47499 1.862788,-15.818953 2.113655,-3.007562 6.60783,-5.547323 9.867748,-4.923847 1.758384,0.330363 3.975352,1.037138 5.877601,2.309751 1.559361,1.043219 2.234421,2.216107 3.195799,3.818867 1.784397,2.974858 1.932476,8.03961 2.013169,12.930072 z"/>
  </g>
  <g id="hair-with-face">
    <path class="hair-front"
       d="m 59.85235,39.220905 c -2.154871,-4.075048 -4.716932,-3.885016 -5.826941,-3.805982 -4.660756,1.839277 -11.731929,5.097088 -13.440171,5.337353 -5.524443,0.777016 3.803352,-8.690979 8.098563,-9.598588 3.636678,-0.784791 8.261006,1.260789 7.737586,2.538292 -1.308684,3.19408 -0.220658,1.308275 0.247443,0.201113 0.589797,-1.395 4.914966,0.844205 5.619083,2.580337 2.032328,5.011082 -0.338181,2.233012 0.776544,5.011082 -1.17482,2.477275 -1.157674,0.69701 -3.212107,-2.263607 z"/>
  </g>
  <g id="eyes">
    <path class="eyes"
       d="m 50.343526,52.864495 c -4e-6,0.211999 -1.445611,-0.852134 -3.448266,-0.774219 -1.718717,0.06687 -3.341803,1.512873 -3.341803,1.512873 -0.266156,-0.584615 0.801081,-2.776811 3.085362,-2.878978 3.173745,-0.141949 3.704709,1.928324 3.704707,2.140324 z"/>
    <path class="eyes"
       d="m 61.968907,51.397797 c -4e-6,0.211999 -0.877815,-0.603724 -2.88047,-0.525809 -1.718717,0.06687 -3.022418,2.027438 -3.022418,2.027438 -0.266156,-0.584615 0.694294,-3.115549 2.9789,-3.020927 2.570462,0.106461 2.92399,1.307298 2.923988,1.519298 z"/>
  </g>
  <g id="nose">
    <path class="nose"
       d="m 56.218145,56.841927 c 0.93567,1.170119 2.444602,2.216476 1.520668,3.383073 -0.539434,0.681111 -1.565436,0.860588 -2.300393,0.944398 -3.076973,0.350875 -4.220629,1.288745 -4.376077,-0.834898 -0.127016,-1.735213 0.282874,-2.097141 0.477454,-3.804463 0.29874,-2.621253 0.872102,-4.717334 2.573091,-4.717334 2.441727,-10e-7 0.424395,2.927191 2.105257,5.029224 z"/>
  </g>
  <g id="mouth">
    <path class="mouth"
       d="m 48.404135,64.971254 c 1.779857,0.228783 3.963376,-0.326273 5.428158,-0.886109 0.497848,-0.190276 0.957104,0.144086 1.479774,0.03979 0.37655,-0.07512 0.719154,-0.368979 1.178982,-0.499424 0.659814,-0.10737 1.475058,0.328878 2.435344,0.146552 0.710371,-0.134876 1.828396,-0.739384 1.424292,-0.302497 -1.135017,1.227095 -2.281498,2.192611 -3.625718,3.001941 -0.349414,0.210375 -0.888872,0.416255 -1.286547,0.50682 -0.456858,0.104043 -0.940416,0.149347 -1.403503,0.07797 -1.650897,-0.254459 -4.436123,-1.372653 -4.94082,-1.605981 -0.07644,-0.03534 -1.06817,-0.527698 -0.689962,-0.479083 z"/>
  </g>
</g>


  <g>
    <path class="hair-front"
       d="m 59.650134,78.522169 c 0.228144,-1.849794 0.758497,-3.827268 1.37777,-5.890292 1.477455,-4.921949 3.461039,-10.33085 3.054284,-15.654596 -0.43013,-5.629676 -2.13123,-13.787726 -4.229838,-17.756376 -1.178184,-1.865469 0.511995,-4.977729 1.91232,-2.956775 1.046517,1.510338 1.704602,1.574 2.819327,4.35207 0.282061,0.702941 0.02408,1.621517 1.045233,4.64846 0.27005,0.800489 1.235017,9.336717 3.374515,17.943253 0.715691,2.879001 3.392408,10.697674 4.819769,13.41123 -5.444079,0.156323 -5.374076,1.193758 -14.17338,1.903023 z"/>
  </g>
  <g>
    <path class="hair-front"
       d="m 52.592232,34.866941 c 0.5772,0.358286 -0.539994,1.075118 -3.313861,3.208057 -2.118177,1.628752 -4.165508,4.283838 -4.957124,5.650331 -1.309354,2.260216 -3.458086,1.42812 -4.595958,8.187914 -0.788123,4.682024 -2.449603,4.991122 -3.013169,8.49482 -0.504358,3.1356 2.410005,11.387008 3.012565,15.988938 0.09031,0.689762 0.128694,1.297536 0.09584,1.793807 -7.683074,-0.956713 -11.293884,-3.056384 -16.213297,-2.825505 2.115369,-3.886999 4.734234,-13.185523 4.072976,-12.635775 -1.967877,1.636031 1.277232,-10.688883 2.547581,-13.622943 3.259432,-7.528144 7.26999,-12.671441 9.00861,-13.834234 1.957892,-1.309443 3.641158,-1.694963 6.482369,-1.789259 4.663999,-0.154793 5.875613,0.764448 6.873468,1.383849 z"/>
  </g>
  </g>
</svg>
