<?xml version="1.0" encoding="utf-8"?>
<!-- Generator: Adobe Illustrator 23.0.6, SVG Export Plug-In . SVG Version: 6.00 Build 0)  -->
<svg version="1.1" id="Layer_1" xmlns="http://www.w3.org/2000/svg" xmlns:xlink="http://www.w3.org/1999/xlink" x="0px" y="0px"
	 viewBox="500 0 820 1080" style="enable-background:new 0 0 1920 1080;" xml:space="preserve">
<style type="text/css">
	.st0{fill:#E56E1F;}
	.st1{fill:#105059;}
	.st2{fill:#EDD058;}
	.st3{fill:#FFFFFF;}
	.st4{fill:#A7AABD;}
	.st5{fill:#453B4C;}
	.st6{fill:#3752A6;}
	.st7{fill:#12131C;}
	.st8{fill:#D5D9EF;}
	.st9{fill:#605B65;}
</style>
<path class="st0" d="M1009.3,786.3l4.8,167.5c0,0-67.6,45.9-53.1,49.1c14.5,3.2,33.8-1.1,33.8-1.1s9.7,17.1,17.7,14.9
	c8-2.1,19.3-11.7,19.3-11.7s27.4,14.9,29,7.5c1.6-7.5-19.3-57.6-19.3-57.6l-8-157.9L1009.3,786.3z"/>
<path class="st0" d="M853.1,795.1c0,0,12.9,118.4,9.7,126.9s-79.7,30.9-63.6,36.3c16.1,5.3,29,1.1,25.8,5.3
	c-3.2,4.3-22.5,16-4.8,14.9c17.7-1.1,32.2,4.3,32.2,4.3s-4.8,20.3,16.1,8.5s31.4-55.5,31.4-61.9c0-6.4-12.9-133.3-12.9-133.3
	L853.1,795.1z"/>
<path class="st1" d="M713.4,205.6c0,0,26.8-102.2,97-97c70.2,5.1,88,44.3,89.4,77.9c2.6,62.6-21.7,164.7-26.8,195.4
	c-4.4,26.2,7.7,111.1,7.7,111.1L778.5,415c0,0,19.4-93,24.3-134.1c2.6-21.7-16.6-39.6-16.6-39.6L713.4,205.6z"/>
<path class="st2" d="M719.8,186.4c0,0-51.1,90.7-43.4,97c7.7,6.4,29.4,11.5,33.2,7.7c3.8-3.8,79.2-42.1,77.9-56.2
	c-1.3-14-29.4-48.5-34.5-49.8C747.9,183.9,724.9,182.6,719.8,186.4z"/>
<ellipse transform="matrix(0.6119 -0.7909 0.7909 0.6119 184.7643 704.6635)" class="st3" cx="810.4" cy="164.1" rx="9.3" ry="13.1"/>
<path class="st4" d="M789,385c0,0-75.6,127.1-73.1,198.6s15.3,172.4,76.6,209.4c0,0,57.5,54.9,84.3,42.1
	c26.8-12.8,75.3-11.5,75.3-11.5s61.2,39.6,76.6,39.6c12.8,0,62.9-41.4,83-53.6c23-14,51.1-2.6,66.4-26.8
	c4.4-6.9,34.5-21.7,34.5-21.7c17.9,1.3,30.6-33.2-98.3-130.2c0,0-67.7-70.2-126.4-102.2c-38.4-20.9-107.3-71.5-117.5-103.4
	C860.2,393.3,789,385,789,385z"/>
<g>
	<path class="st5" d="M868.2,424.1c-10.2-31.9-81.4-40.2-81.4-40.2S711.1,511,713.7,582.5c1.7,48.7,12.4,116.8,37.9,165.1
		c9.9-20.9,50-45.3,48.7-92.5c-1.3-47.8-6.3-51.6,34.5-76.6c17.3-10.6,7-86.2,8.9-98.3c2.9-18.4,15.1-40.3,33.4-42.2
		C872.9,433.8,869.8,429.3,868.2,424.1z"/>
</g>
<path class="st3" d="M878.1,438c-2.9-3.3-3.8-21.5-5.1-25.5c-1.3-3.8-36.9-15.3-43.7-18.5c-21.1-7.5-44.4-9.6-44.4-9.6
	s-3.8,9.2-12,24.5L878.1,438z"/>
<path class="st6" d="M979.6,722.4c0,0,32.5,80.8,155.1,54L979.6,722.4z"/>
<path class="st7" d="M1097.7,818.5c0,0,86.8,5.1,121.3-53.6l-89.3,6.4L1097.7,818.5z"/>
<path class="st8" d="M1155,776.4c0,0,61.2,44.1,82.1,38.3l-32.3-40.1L1155,776.4z"/>
<path class="st9" d="M878.1,587.4c0,0,79.2,209.4,295,192.8c0,0,8.9-8.9,2.6-11.5S1012.2,775.1,878.1,587.4z"/>
<path class="st9" d="M1111.2,776.3l120.4,5.1c11.6,0.5,18.3-12.8,11.1-21.9l-33.7-42.3c0,0,66.2,84.6-154.7,29.7
	C1006.6,735.1,1111.2,776.3,1111.2,776.3z"/>
<ellipse transform="matrix(0.6119 -0.7909 0.7909 0.6119 184.0559 704.6802)" cx="810.1" cy="164.8" rx="5.6" ry="7.9"/>

#rotate(15 50 100)
<g transform="translate(620 170)
                scale(4 4)">
<g transform="rotate(25)"> 
    <path style="fill:#6593C8" d="M36.23 0.53l-21.82 7.94c-0.4 0.14-0.73 0.42-0.94 0.79l-11.62 20.12c-0.21 0.37-0.29 0.8-0.21 1.21l4.03 22.87c0.07 0.42 0.29 0.79 0.62 1.07l17.79 14.93c0.32 0.27 0.73 0.42 1.16 0.42h23.23c0.42 0 0.83-0.15 1.16-0.42l17.79-14.93c0.32-0.27 0.54-0.65 0.62-1.07l4.03-22.87c0.07-0.42 0-0.85-0.21-1.21l-11.61-20.11c-0.21-0.37-0.55-0.65-0.94-0.79l-21.82-7.94c-0.43-0.16-0.86-0.16-1.26-0.01z"/>

    <g comment="the n text">
	<path style="fill:#FFFFFF" d="M32.61 27.01c0.43-0.42 0.89-0.8 1.35-1.16 0.47-0.35 0.97-0.65 1.49-0.9 0.53-0.25 1.09-0.45 1.7-0.59s1.27-0.21 1.98-0.21c1.18 0 2.22 0.2 3.13 0.61s1.68 0.97 2.3 1.7 1.09 1.6 1.41 2.6c0.31 1.01 0.47 2.11 0.47 3.32v13.75h-5.78v-13.74c0-1.2-0.28-2.14-0.84-2.8-0.56-0.67-1.39-1-2.48-1-0.81 0-1.57 0.17-2.29 0.52-0.71 0.35-1.39 0.84-2.04 1.47v15.56h-5.8v-21.65h3.57c0.73 0 1.21 0.34 1.45 1.01l0.38 1.51z"/>
</g>
</g>
</g>

<path class="st2" d="M719.8,186.4c0,0-51.1,90.7-43.4,97c7.7,6.4,29.4,11.5,33.2,7.7c3.8-3.8,79.2-42.1,77.9-56.2
	c-1.3-14-29.4-48.5-34.5-49.8C747.9,183.9,724.9,182.6,719.8,186.4z"/>


</svg>
