<?xml version="1.0" encoding="UTF-8" standalone="no"?>
<!DOCTYPE svg PUBLIC "-//W3C//DTD SVG 1.1//EN" "http://www.w3.org/Graphics/SVG/1.1/DTD/svg11.dtd">
<svg version="1.1" xmlns="http://www.w3.org/2000/svg" xmlns:xlink="http://www.w3.org/1999/xlink" preserveAspectRatio="xMidYMid meet" viewBox="0 0 160 220" style="enable-background:new 0 0 160 220;">

<defs>

<path d="M532.28 163.83C546.02 235.61 548.16 247.37 546.4 325.38C544.65 403.39 547.91 450.67 497 518.79C486.96 532.23 463.46 548.6 426.5 567.9C399.64 583.88 383.52 593.37 378.14 596.37C369.19 601.37 351.47 601.37 324.97 596.37C304.31 600.34 287.99 599.49 276 593.81C268.58 590.29 252.28 578.69 227.12 559.01C198.76 541.9 180.2 527.48 171.43 515.75C120.52 447.63 133.38 393.05 133.38 325.38C133.38 251.69 136.97 182.7 172.53 133.64C209.55 82.57 279.69 52.91 337.01 52.91C375.75 52.91 518.54 92.05 532.28 163.83Z" id="head"></path>

<path d="M301.94 319.18C310.48 323.89 301.94 338.1 301.94 344.53C301.94 359.84 271.52 364.95 235.98 364.95C228.96 364.95 216.73 365.17 199.29 365.62C186.58 365.94 175.19 357.79 171.41 345.64C169.79 340.43 168.98 336.92 168.98 335.11C168.98 330.11 167.93 323.13 165.84 314.19L192.51 307.76C212.54 308.14 227.03 308.71 235.98 309.46C267.19 312.07 290.15 312.68 301.94 319.18Z" id="llens"></path>

<path d="M337.78 303.88C338.63 305.17 341.64 322.4 346.83 355.56L361.09 382.56C382.34 404.02 390.22 420.25 384.72 431.24C382.03 436.63 370.01 436.63 348.66 431.24C332.99 435.78 323.43 438.04 320 438.04C316.89 438.04 308.61 435.78 295.17 431.24C278.5 436.74 269.05 436.74 266.83 431.24C263.79 423.7 269.91 411.48 285.19 394.6L302.08 356.8C304.76 329.29 308.9 311.66 314.5 303.88C322.9 292.22 336.5 301.96 337.78 303.88Z" id="nose"></path>

<path d="M151.71 157.97C204.56 86.49 258.55 41.26 340.08 51.08C421.61 60.89 435.27 71.74 464.23 86.77C533.19 122.56 561.28 182.79 548.51 267.47C548.51 305.59 548.51 329.42 548.51 338.95C548.51 341.3 545.8 342.61 543.96 341.14C538.1 336.49 533.22 334.04 529.31 333.8C521.35 333.31 528.39 372.35 522.55 373.54C516.71 374.73 513.98 307.61 513.27 295.11C512.57 282.6 493.26 255.5 495.15 241.64C507.45 151.21 425.51 105.62 394.61 105.1C363.7 104.57 316.34 131.21 296.02 137.58C275.7 143.96 187.04 151.09 170.95 185.04C154.86 218.99 168.11 216.19 161.7 259.02C155.28 301.85 146.42 287.68 147.38 299.83C150.8 343.15 150.7 368.52 147.06 375.95C145.93 378.27 142.43 377.36 142.56 374.78C143.61 355.02 142.56 344.5 139.41 343.2C137.51 342.41 135.82 343.93 134.35 347.75C133.46 350.06 130.12 349.83 129.56 347.42C110.54 266.82 117.92 203.67 151.71 157.97Z" id="hair"></path>

<path d="M344.25 317.93C336.05 323.2 346.3 341.07 346.73 347.48C347.76 362.76 376.36 365.74 411.82 363.34C419.52 362.82 435.13 361.61 458.64 359.71C470.54 358.74 479.91 349.18 480.64 337.28C480.88 333.33 480.95 330.6 480.85 329.07C480.51 324.08 480.02 318.35 479.37 311.87C443.9 308.47 420.14 307.18 408.08 307.99C387.52 309.38 355.57 310.65 344.25 317.93Z" id="rlens"></path>

<path d="M135.98 328.98L144.88 330.2L155.87 330.2L160.06 337.53L169.48 335.43C168.47 324.12 169.52 317.21 172.62 314.7C175.72 312.18 193.87 310.54 227.06 309.78C251 309.97 269.16 311.19 281.55 313.45C293.94 315.71 300.55 318.67 301.4 322.35C301.43 339.1 301.89 347.47 302.76 347.47C303.64 347.47 304.92 339.1 306.63 322.35L339.93 324.96C342.65 340.41 344.46 347.91 345.37 347.47C346.27 347.04 346.27 338.66 345.37 322.35C346.66 319.82 349.26 317.76 353.17 316.16C359.03 313.77 403.01 309.53 420.8 309.03C438.58 308.53 474.92 310.57 478.33 313.45C480.6 315.36 481.3 323.39 480.43 337.53L486.18 337.53L490.26 332.34L534.87 331.77L534.87 315.41L491.94 313.45C470.22 307.86 446.84 305.07 421.8 305.07C409.36 305.07 388.08 307.17 357.97 311.35L339.93 317.11C319.37 317.47 307.4 316.91 304.01 315.41C298.93 313.18 285.95 310.31 282.55 309.78C279.15 309.26 243.49 305.35 226.01 305.07C204.02 304.72 185.18 306.82 169.48 311.35L160.06 313.45L135.98 315.41L135.98 328.98Z" id="glasses"></path>

</defs>

<g transform="rotate(-6 80 110)">

<g transform="translate(-38 0)">
<g transform="scale(0.35 0.35)">
<use xlink:href="#head" opacity="1" fill="#ffd3ad" fill-opacity="1"></use>
<use xlink:href="#nose" opacity="1" fill="#CE9691" fill-opacity="1"></use>
<use xlink:href="#hair" opacity="1" fill="#291700" fill-opacity="1"></use>
<use xlink:href="#rlens" opacity="1" fill="#FC49F5" fill-opacity="1"></use>
<use xlink:href="#llens" opacity="1" fill="#FC49F5" fill-opacity="1"></use>
<use xlink:href="#glasses" opacity="1" fill="#112D42" fill-opacity="1"></use>
<use xlink:href="#glasses" opacity="1" fill-opacity="0" stroke="#112D42" stroke-width="1" stroke-opacity="1"></use>
</g>
</g>

</g>


</svg>
