<?xml version="1.0" encoding="UTF-8" standalone="no"?>
<svg
   version="1.1"
   id="Layer_1"
   x="0px"
   y="0px"
   viewBox="0 0 600 600"
   style="enable-background:new 0 0 600 600;"
   xml:space="preserve"
   xmlns="http://www.w3.org/2000/svg"
   xmlns:svg="http://www.w3.org/2000/svg"><defs
   id="defs853" />
<style
   type="text/css"
   id="style824"> 
	.green{fill:#00ff00;}
  .hair{ fill:#3b2112; stroke:#261710;}
  .skin{ fill:#f0af6e; stroke:#000000}
  .jacket{fill:#000000;}
  .tie{fill:#000000;}
  .shirt{ fill:#FFFFFF; stroke:#000000;}
  .glasses{fill:#CB70FE;}
  .nose{fill:#4a3521; stroke:#4a3521}
  .mouth{fill:#692510;}
  .glint{ fill:#FFFFFF;}
</style>

<g
   transform="scale(2, 2) translate(-120, -130)"
   id="g848">

  <path
   id="back-hair"
   class="hair"
   d="M 207.05 350.597 C 197.066 350.777 187.795 348.91 177.928 348.344 C 168.689 347.814 162.079 349.866 153.147 346.718 C 149.192 345.324 141.553 345.56 138.102 342.861 C 124.124 331.927 137.941 322.518 140.605 312.96 C 142.449 306.345 138.817 300.742 142.647 293.497 C 145.405 288.28 148.027 283.013 149.063 276.8 C 149.718 272.866 150.713 267.796 152.477 264.103 C 157.079 254.467 165.666 252.446 171.621 248.721 C 178.268 244.563 170.825 237.258 177.056 229.831 C 182.119 223.794 185.166 221.718 190.145 215.959 C 196.401 208.721 183.16 206.664 187.831 198.879 C 189.515 196.072 196.972 192.733 198.791 189.096 C 199.929 186.821 200.865 182.236 202.168 180.281 C 203.666 178.034 209.032 172.785 211.062 170.894 C 217.472 164.924 215.521 169.639 222.46 164.868 C 224.276 163.619 229.863 157.339 232.082 156.964 C 240.282 155.577 252.325 151.259 260.373 153.272 C 268.951 155.418 265.278 156.661 271.034 155.511 C 273.862 154.946 281.397 151.033 284.12 150.296 C 296.815 146.857 301.718 146.871 313.117 154.038 C 317.695 156.917 325.343 159.858 329.305 163.944 C 334.747 169.557 339.491 178.695 344.509 183.789 C 351.675 191.063 360.682 193.881 364.145 204.06 C 366.683 211.519 370.228 222.769 370.536 228.293 C 370.747 232.072 364.834 241.154 367.546 244.021 C 372.95 249.734 382.651 262.576 386.934 274.212 C 387.899 276.834 390.211 281.463 389.672 284.391 C 388.776 289.251 386.652 293.94 388.554 298.951 C 391.247 306.046 400.513 311.561 403.499 319.35 C 407.502 329.797 400.031 328.581 396.88 337.56 C 395.512 341.456 398.736 348.768 397.089 352.888 C 392.579 364.165 367.672 365.311 358.056 365.91 C 346.338 366.642 333.465 369.294 321.844 368.204 C 317.923 367.837 315.53 365.34 311.843 364.816 C 302.993 363.559 293.956 362.812 285.016 362.542 C 267.184 362.004 252.442 365.994 235.608 358.02 C 228.884 354.835 219.844 351.621 212.426 351.621 C 211.489 351.621 207.649 350.649 206.9 349.527" />
  
  <path
   id="neck"
   class="skin"
   d="M 250.835 308.987 C 249.714 315.199 250.442 314.024 248.523 321.417 C 247.003 327.273 241.833 341.47 241.833 341.47 C 241.833 341.47 277.66 343.056 278.378 342.337 C 278.873 341.842 277.881 329.123 278.199 322.825 C 278.527 316.33 281.27 303.647 280.061 304.857 C 279.259 305.66 258.172 307.945 252.048 308.661" />
  
   <g transform="rotate(6, 300, 250)">
  <path
   id="face"
   class="skin"
   d="m 259.115,312.854 c 5.759,-0.287 17.02834,0.82013 22.01834,-2.50687 4.17299,-2.78236 15.74905,-12.83473 23.12124,-20.98609 6.10379,-6.7489 9.74455,-12.36454 12.66702,-16.09844 3.075,-3.594 17.6484,-27.5486 20.3494,-38.1646 5.991,-23.551 -8.044,-51.198 -14.663,-58.656 -5.844,-6.585 -5.036,-9.912 -15.739,-14.426 -17.001,-7.17 -40.503,-5.968 -58.242,-1.045 -13.249,3.677 -28.066,15.315 -34.765,26.648 -5.228,8.847 -3.768,23.639 -4.239,33.677 -0.358,7.653 4.912,37.94 8.767,45.229 5.248,9.923 8.284,22.188 16.411,30.367 5.701,5.737 9.249,10.772 15.763,15.116 1.659,1.106 6.839,0.574 8.774,0.749"/>
</g>

   <path
   id="shirt"
   class="shirt"
   d="M 201.847 336.52 C 211.791 335.615 239.244 332.01 241.511 333.495 C 248.674 338.188 276.749 338.252 282.89 331.487 C 285.11 329.042 313.819 331.564 320.112 331.564 C 321.145 331.564 317.484 355.783 318.47 361.18 C 321.178 376.003 304.104 448.205 292.847 456.309 C 276.64 467.978 219.113 460.691 213.873 456.215 C 205.448 449.018 201.067 335.636 201.045 335.636" />
   
   <path
   id="tie"
   class="tie"
   d="m 235.172,479.483 c 0.887,-10.898 -0.418,-37.443 6.161,-64.487 6.359,-26.137 5.807,-42.84 5.113,-43.3 -4.291,-2.839 -11.576,-1.436 -14.307,-6.901 -0.402,-0.805 20.08326,-25.94294 23.60926,-27.35494 7.377,-2.952 21.588,27.844 18.479,28.881 -3.355,1.118 -14.51626,0.56994 -15.02026,5.61094 -0.588,5.878 7.808,25.336 -1.447,59.44 -6.316,23.274 -2.143,55.324 -4.75,64.131 -0.031,0.104 -2.782,9.48 -2.782,9.48 0,0 -0.714,-6.392 -1.799,-7.397 -4.363,-4.039 -11.177,-0.412 -13.866,-6.355 -1.712,-3.782 0.757,-6.647 1.896,-9.954 0.054,-0.157 1.154,-3.602 0.601,-3.602" />

  <path
   id="jacket"
   class="jacket"
   d="m 138.813,405.482 c -0.782,7.67 -4.321,21.091 -5.9,28.658 -1.226,5.879 -3.605,13.563 -0.879,19.376 1.629,3.474 6.396,4.313 9.631,5.553 8.132,3.116 25.25,5.518 29.898,-4.132 0.935,-1.942 5.599,-23.74 9.739,-22.493 0.866,0.261 4.04,4.123 4.245,5.002 1.587,6.793 0.305,14.859 -0.24,21.683 -0.078,0.971 -1.447,10.292 -1.447,10.292 0,0 143.026,3.765 143.568,2.058 2.461,-7.754 4.492,-27.969 8.135,-35.26 0.229,-0.459 7.932,6.156 8.529,6.992 3.49,4.888 0.79,14.273 5.072,18.55 0.243,0.243 42.755,-11.848 43.343,-12.436 0.63,-0.63 -1.562,-5.755 -1.911,-6.6 -2.896,-7.021 -5.607,-14.085 -8.538,-21.094 -4.307,-10.301 -9.552,-20.084 -14.098,-30.246 -1.933,-4.322 -2.243,-8.786 -5.096,-12.74 -1.195,-1.657 -5.282,-9.134 -5.282,-9.134 0,0 -5.176,-29.831 -10.224,-32.734 -10.667,-6.134 -31.28396,-9.38381 -42.04896,-5.74881 -3.959,1.337 -2.28448,9.38219 -2.19548,15.87419 0.141,10.33 -3.20456,23.05762 -6.53256,32.42662 -7.257,20.428 -49.542,88.993 -50.308,87.622 -15.649,-27.999 -24.26975,-76.11924 -26.53175,-103.30424 -0.991,-11.908 2.114,-23.629 1.836,-28.668 -0.193,-3.495 -24.37825,0.12524 -31.09025,3.48124 -3.857,1.929 -8.513,21.776 -7.305,17.502"/>

   <path
   id="collar"
   class="shirt"
   d="m 221.505,335.989 c 5.636,6.301 4.475,23.242 9.072,33.923 1.597,3.711 1.566,0.633 2.277,2.669 0.046,0.133 17.896,-25.246 20.961,-33.822 2.915,9.002 20.409,36.556 20.28,36.144 0.415,-1.042 0.114,1.667 2.3,-1.168 8.951,-11.608 29.789,-39.388 29.336,-40.458 -1.397,-3.297 -16.94423,-4.81689 -22.20523,-2.18189 -8.645,4.331 -31.31377,7.09789 -42.25677,2.31089 -5.711,-2.498 -20.05338,1.05957 -20.34638,1.05957"
/>
  
   <path
   id="front-hair"
   class="hair"
   d="m 200.025,349.284 c -9.984,0.18 -12.632,-0.856 -22.499,-1.422 -9.239,-0.53 -15.849,1.522 -24.781,-1.626 -3.955,-1.394 -11.594,-1.158 -15.045,-3.857 -13.978,-10.934 -0.161,-20.343 2.503,-29.901 1.844,-6.615 -1.788,-12.218 2.042,-19.463 2.758,-5.217 5.38,-10.484 6.416,-16.697 0.655,-3.934 1.65,-9.004 3.414,-12.697 4.602,-9.636 13.189,-11.657 19.144,-15.382 6.647,-4.158 -0.796,-11.463 5.435,-18.89 5.063,-6.037 8.11,-8.113 13.089,-13.872 6.256,-7.238 -6.985,-9.295 -2.314,-17.08 1.684,-2.807 9.141,-6.146 10.96,-9.783 1.138,-2.275 2.074,-6.86 3.377,-8.815 1.498,-2.247 6.864,-7.496 8.894,-9.387 6.41,-5.97 4.459,-1.255 11.398,-6.026 1.816,-1.249 7.403,-7.529 9.622,-7.904 8.2,-1.387 20.243,-5.705 28.291,-3.692 8.578,2.146 4.905,3.389 10.661,2.239 2.828,-0.565 10.363,-4.478 13.086,-5.215 12.695,-3.439 17.598,-3.425 28.997,3.742 4.578,2.879 12.226,5.82 16.188,9.906 5.442,5.613 10.186,14.751 15.204,19.845 7.166,7.274 16.173,10.092 19.636,20.271 2.538,7.459 6.083,18.709 6.391,24.233 0.211,3.779 -5.702,12.861 -2.99,15.728 5.404,5.713 15.105,18.555 19.388,30.191 0.965,2.622 3.277,7.251 2.738,10.179 -0.896,4.86 -3.02,9.549 -1.118,14.56 2.693,7.095 11.959,12.61 14.945,20.399 4.003,10.447 -3.468,9.231 -6.619,18.21 -1.368,3.896 1.856,11.208 0.209,15.328 -4.51,11.277 -29.417,12.423 -39.033,13.022 -11.718,0.732 -24.591,3.384 -36.212,2.294 -3.921,-0.367 -6.314,-2.864 -10.001,-3.388 -0.733,-0.104 -7.504,-5.482 -4.29,-29.342 1.358,-10.075 7.155,-20.021 10.227,-32.594 4.829,-19.764 7.215,-41.612 7.815,-46.972 1.926,-17.218 -15.327,-32.146 -18.777,-35.211 -17.895,-15.898 -23.839,-13.131 -28.521,-23.153 -5.496,-11.765 -10.74874,-9.32567 -9.50137,-16.4931 -16.34174,-1.68705 -10.9797,3.51787 -17.98239,5.53506 -6.53954,2.35835 -8.16407,7.34106 -12.50307,16.44406 -1.611,3.38 -14.79917,9.16198 -22.04517,21.48798 -4.605,7.832 -5.647,16.557 -5.57,22.133 0.223,16.226 5.547,65.832 2.942,82.213 -3.33,20.939 -9.824,19.658 -11.862,19.859"/>

    <path
   id="arm"
   class="jacket"
   d="m 186.46761,263.34872 c -3.339,-0.153 -8.42,-2.096 -11.017,3.376 -1.444,3.042 -11.995,30.172 -12.31,33.272 -0.406,4.002 -4.876,13.15 -8.803,26.895 -1.414,4.95 -10.149,28.819 -15.191,78.265 -0.782,7.67 -4.321,21.091 -5.9,28.658 -1.226,5.879 -3.605,13.563 -0.879,19.376 1.629,3.474 6.396,4.313 9.631,5.553 8.132,3.116 25.25,5.518 29.898,-4.132 0.935,-1.942 5.599,-23.74 9.739,-22.493 0.866,0.261 4.04,4.123 4.245,5.002 1.587,6.793 0.305,14.859 -0.24,21.683 -0.078,0.971 11.892,-124.025 5.18,-120.669 -3.857,1.929 -8.513,21.776 -7.305,17.502 2.701,-9.558 8.331,-18.823 10.288,-26.443 2.424,-9.44 3.279,-25.971 5.41,-30.224 1.583,-3.16 -2.674,-15.029 -7.867,-24.342 -0.378,-0.678 -6.242,-11.388 -6.603,-11.388" />

<path
   id="hand"
   class="skin"
   d="m 184.203,268.15 c 0.339,-2.817 0.139,-8.9 2.174,-11.544 1.726,-2.244 3.676,-4.068 5.462,-6.442 1.969,-2.617 3.4026,-6.06817 5.9806,-7.99317 2.486,-1.856 9.37,-6.231 10.353,-5.229 4.478,4.567 -9.11324,15.92074 -9.25824,18.92474 -0.256,5.276 0.0266,-6.55257 4.43664,-4.34257 2.607,1.306 0.584,16.155 1.6,18.846 1.638,4.341 2.35257,11.54021 1.25857,18.07921 -0.3,1.792 -7.66923,7.5233 -7.66923,7.5233 -4.53281,-9.34304 -9.65524,-21.83487 -14.45234,-27.18451" />

   <g transform="rotate(6, 300, 250)">
<path
   id="glasses"
   class="glasses"
   d="m 200.012,219.832 c 19.001,2.902 41.51,3.587 59.985,3.347 18.232,-0.237 35.633,-1.275 53.869,-1.275 1.699,0 11.099,-2.543 12.352,-1.128 0.973,1.099 -8.332,25.103 -16.253,26.327 -5.3,0.819 -36.50677,6.2266 -40.15577,-1.3614 -2.703,-5.62 -4.11823,-18.9616 -8.29123,-19.9396 -1.174,-0.275 -9.445,0.507 -10.059,1.025 -3.95,3.333 0.442,15.022 -4.516,21.494 -2.548,3.326 -31.468,1.259 -36.27,-4.344 -4.766,-5.561 -3.708,-9.741 -7.223,-16.879 -2.229,-4.527 -2.707,-5.677 -3.438,-7.334" />

   <path
      id="glint1"
      class="glint"
      d="m 212.77704,236.33043 24.00853,-8.8752 0.45514,2.61705 -23.66718,10.58196 z" />
   <path
      id="glint2"
      class="glint"
      d="m 273.55107,235.313 24.00853,-8.8752 0.45514,2.61705 -23.66718,10.58196 z" />

<path
   id="nose"
   class="nose"
   d="m 249.58914,265.93609 c 0.57344,0.36275 -3.0074,1.07855 3.62883,1.81465 4.36884,0.48459 11.37156,-0.7975 14.1766,-3.53889 0.53566,-3.51034 4.74356,3.99985 -5.04433,6.42418 -3.45343,0.42384 -16.07849,0.58451 -12.84064,-4.59509"
/>

<path
   id="mouth"
   class="mouth"
   d="m 262.69653,291.95272 c 0.0778,-0.56748 1.06182,-0.87652 1.58023,-0.92716 9.12844,-0.89171 15.70501,-2.70362 21.38933,-5.85669 5.28821,-2.9061 9.15104,-9.89104 9.15104,-9.89104 1.26427,-1.19315 3.22003,-0.0555 2.75881,0.48264 -1.291,3.873 -7.8206,9.41593 -11.3506,11.61993 -6.038,3.77 -22.83115,5.37484 -22.83115,5.37484"
/>

</g>

</g>
</svg>
