<?xml version="1.0" encoding="utf-8"?>
<svg version="1.1" id="Layer_1" xmlns="http://www.w3.org/2000/svg" xmlns:xlink="http://www.w3.org/1999/xlink" x="0px" y="0px"
	 viewBox="0 0 250 250" style="enable-background:new 0 0 250 250;" xml:space="preserve">
   
   <style type="text/css">
     .hair{
       opacity:1;
       fill:#7EFF7A;
       fill-opacity:1;
       stroke:#FC49F5;
       stroke-width:0.350757px;
       stroke-linecap:butt;
       stroke-linejoin:miter;
       stroke-opacity:1
     }
   </style>
   
   <g transform="translate(23 0) rotate(5 115 125)">
  <g
     id="layer2"
     style="display:inline">
    <path
       id="path848"
       style="fill:#FFE6D2;fill-opacity:1;stroke-width:0;stroke-dasharray:none"
       d="m 157.41466,133.39374 c 0,15.35575 0.37086,31.00841 -2.30704,42.81794 -3.06705,13.52567 -9.81307,22.77878 -20.23463,33.87943 -8.70115,9.26814 -8.0054,15.05951 -27.27845,15.76398 C 96.947507,226.24425 90.05049,220.26623 82.451265,212.4462 76.404937,206.22418 68.136115,196.95207 64.727165,186.71 59.9764,172.43649 57.43201,157.74695 57.43201,138.325 c 0,-23.13228 -6.353001,-55.455926 2.75536,-71.856253 1.927208,-3.470089 8.62159,-10.083778 15.003942,-13.652976 8.84521,-4.946498 21.727995,-8.20912 44.729848,-6.24766 11.67112,0.995242 29.64604,11.301155 33.04006,27.714663 3.09871,14.985443 4.45344,39.735486 4.45344,59.110966 z" />
  </g>
  <g
     id="beard">
    <path
       style="fill:#3f322e;fill-opacity:1;fill-rule:nonzero;stroke:#3f322e;stroke-width:0.350757px;stroke-linecap:butt;stroke-linejoin:miter;stroke-opacity:1"
       d="m 67.01939,194.15405 c -4.277211,-8.47517 -11.009636,-24.26847 -7.190533,-27.82645 3.819103,-3.55799 0.272529,-1.31033 2.73925,1.05669 2.46672,2.36703 3.72815,12.33887 7.190532,16.20276 3.462384,3.86388 8.203779,3.23702 11.641815,6.69244 3.438035,3.45542 5.200619,10.66297 7.875338,13.73711 2.674719,3.07413 4.508363,5.81839 6.848135,5.28351 2.33978,-0.53489 2.80138,-2.44378 2.73925,-5.28351 -0.0621,-2.83973 -7.341681,-6.38511 -5.478502,-9.51031 1.863182,-3.12521 6.951185,0.18598 10.614595,0.70447 3.6634,0.51849 9.75678,-0.25555 11.2994,2.46562 1.54262,2.72119 -2.10842,4.3347 -2.05442,6.69245 0.054,2.35775 0.2854,5.45177 2.39685,6.69243 2.11143,1.24067 2.4708,1.31952 7.53292,-1.40893 5.06214,-2.72843 14.42839,-14.1493 18.83235,-19.37284 4.40395,-5.22355 6.14376,-8.00776 8.21776,-11.27148 2.07398,-3.26374 3.33975,-4.54494 4.45127,-8.10138 1.11153,-3.55646 -0.18016,-11.20297 1.36963,-13.03265 1.54979,-1.82967 -1.57896,-2.87927 1.36963,-0.35224 2.9486,2.52704 0.55553,14.75329 -1.36963,22.19074 -1.92517,7.43744 -5.73987,15.11669 -10.27219,21.48625 -4.53232,6.36954 -11.85356,12.2228 -16.4355,16.20276 -4.58194,3.97994 -5.58594,6.23412 -10.6146,8.10138 -5.02867,1.86724 -12.87709,2.76512 -18.832344,1.05669 -5.955249,-1.70842 -9.389045,-5.28112 -15.06588,-10.567 -5.676821,-5.2859 -13.527915,-13.36334 -17.805126,-21.83851 z"
       id="path852" />
    <path
       style="fill:#3f322e;fill-opacity:1;stroke:#3f322e;stroke-width:0.350757px;stroke-linecap:butt;stroke-linejoin:miter;stroke-opacity:1"
       d="m 74.842422,178.05893 c 0.992345,1.24735 4.358172,5.61638 6.564372,5.27046 2.206201,-0.34594 1.304086,-2.52795 2.881927,-4.28224 1.57783,-1.75431 4.127962,-5.12595 6.884577,-5.76457 2.756619,-0.63863 5.666519,2.37018 7.845229,1.97641 2.178713,-0.39376 1.968133,-2.29788 4.322873,-2.96462 2.35475,-0.66677 7.19079,-0.2493 9.44631,0.4941 2.25551,0.74339 2.28232,2.3829 4.00265,2.63523 1.72034,0.25234 3.46018,-1.75807 5.44363,-1.64702 1.98346,0.11106 3.57672,0.86837 5.76385,2.47053 2.1871,1.60214 4.34266,6.92031 6.56436,7.57628 2.22172,0.65597 2.96285,0.42393 3.84256,-1.15291 0.87972,-1.57684 -0.39069,-4.25131 -1.60107,-6.58808 -1.21037,-2.33678 -3.8554,-5.09939 -5.92395,-6.75278 -2.06855,-1.65338 -3.8129,-2.31532 -6.08404,-3.29402 -2.27114,-0.97872 -5.24368,-2.13754 -7.52501,-2.47054 -2.28134,-0.333 -4.40525,-0.31032 -5.92395,0.1647 -1.51868,0.47502 -1.89244,1.75199 -3.04203,1.97642 -1.14958,0.22442 -1.75458,-0.26884 -3.36225,-0.6588 -1.60766,-0.38997 -3.83001,-1.7203 -6.244153,-1.81172 -2.41414,-0.0915 -5.202267,1.0166 -7.845219,1.64701 -2.642951,0.63041 -6.069062,0.88831 -8.005337,2.14114 -1.936256,1.25281 -2.110874,2.60509 -3.522344,4.28225 -1.411471,1.67716 -4.777506,4.30948 -4.963306,5.76456 -0.185799,1.45507 -0.512025,-0.25914 0.480321,0.98821 z"
       id="path854" />
  </g>
  <g
     id="hair">
    <path
       class="hair"
       d="m 65.236023,98.507912 0.48032,17.128988 -8.805866,28.82285 3.255778,24.85632 c -0.08111,6.09545 -0.391961,11.73968 -5.078324,8.79092 l -11.306199,-10.75369 -5.207397,-24.4184 2.11276,-5.41283 8.893283,-3.91834 7.330099,-19.77854 -10.727144,18.44661 -19.693119,2.63523 -2.401601,-10.21152 4.482986,-8.07039 0.48032,9.55271 1.761176,-8.3998 1.440956,7.74099 7.525015,-8.3998 12.168106,-14.32906 -14.249495,10.04681 -1.440957,-4.77635 3.202133,0.49411 9.766507,-6.58808 -5.123416,-1.31761 -3.202133,-12.023242 0.480321,-12.352641 2.081386,8.729198 0.320215,-12.18794 2.039903,0.375272 2.688767,5.69945 -1.44605,-7.321925 -4.75232,-3.792397 -0.451581,-1.548473 3.202133,-5.435164 5.513238,-6.015199 20.514391,1.692428 -18.662722,-4.735833 -0.48032,-3.623444 -4.963307,5.27046 2.721814,-8.07039 7.870472,-3.42905 8.818812,2.724958 -5.080716,-4.35359 2.000498,-0.871588 5.603732,-2.141123 3.682452,-0.988213 -7.685117,-4.117547 -1.280856,-3.788144 11.367573,6.752778 -6.244159,-9.552709 10.225942,7.748149 3.74335,-1.372206 2.340701,-4.062956 c -1.759471,-1.94266 -4.167351,-3.940906 -0.779642,-5.442323 v 0 l 6.244158,4.282249 3.682448,-6.423374 0.1601,6.09397 12.808543,-0.494106 -6.24416,-5.435163 3.68245,-1.976422 4.32288,3.294038 2.72181,5.764566 9.6064,3.294039 -9.76651,-12.187941 9.60641,4.941057 3.20213,6.917479 0.96064,-7.411585 1.60108,8.235095 4.64307,4.117547 0.64042,-5.599865 -1.60105,-5.599864 h 2.88191 l 1.60107,8.564498 -1.60107,4.28225 16.6511,-7.411585 11.68777,0.658808 -3.36222,2.63523 -9.12608,0.658806 -12.008,4.611654 16.01066,-0.494107 11.68778,5.270463 3.52235,8.564497 2.56171,8.893903 -5.60374,-8.399796 -24.49631,-6.258672 23.21546,7.74099 9.76651,11.529133 3.52235,9.882111 -3.36224,6.752777 -1.28086,-1.647018 0.32022,-9.388006 -15.85055,-12.023239 -3.20214,-1.317614 7.36489,9.388004 7.84523,1.976425 -3.04202,4.776357 5.28351,4.941057 2.88192,4.941054 -5.28351,3.952848 4.16278,6.423371 -1.28086,2.141125 -0.48033,1.64702 9.2862,1.317614 5.92395,-0.988213 -4.16278,-3.78814 -1.76117,-2.141124 3.68245,0.494105 4.32288,2.799932 3.36224,3.62344 -2.40161,4.611656 -0.16011,2.30583 0.16011,4.77635 -1.76116,4.28225 2.88191,-1.81172 1.60107,-9.05861 0.64042,10.21152 -7.68511,5.43517 -3.36223,7.08217 -4.8032,10.70564 -5.76386,6.25866 -3.20212,1.31762 -5.76385,13.50555 -4.16276,13.50556 -1.28085,-19.10542 -1.60108,-7.57629 -1.28084,-9.05861 -2.40161,-9.388 -2.24149,-10.54092 2.56171,-6.09397 3.04202,-5.43516 -4.32288,4.28225 4.00267,-5.59987 -7.04469,-4.282251 0.48032,-5.270462 1.12074,-0.823508 -4.32288,-9.223307 -1.44095,-4.282248 2.08138,-4.28225 0.64043,2.63523 v 0 l 2.88192,11.529131 1.60106,3.623444 -4.8032,-22.728862 -7.52501,-2.141126 c 0,0 -3.52235,-2.799931 -4.48299,-2.799931 -0.96062,0 -16.81119,-1.647019 -16.81119,-1.647019 l -7.68513,0.823511 -9.28617,3.623439 -6.244163,2.470531 -3.362249,1.482315 -2.241489,2.305825 -3.522349,16.634892 -6.72448,7.74099 -8.00533,1.976426 z"
       id="path857" />
    <path
       style="fill:#c5a096;fill-opacity:1;stroke:#c5a096;stroke-width:0.350757px;stroke-linecap:butt;stroke-linejoin:miter;stroke-opacity:1"
       d="m 103.84567,118.38758 c -2.97457,2.77434 -3.63041,12.35027 -4.848093,16.9566 -1.21769,4.60634 -1.6311,8.41973 -2.58565,10.63943 -0.95454,2.21972 -1.35037,1.44114 -1.93924,2.99236 -0.58886,1.55119 -1.399226,4.30011 -0.969612,6.31715 0.429612,2.01703 1.180682,3.44684 3.232052,4.98724 2.05139,1.54038 5.035653,2.40356 9.049773,2.65986 4.01412,0.25631 11.60502,-0.63041 14.54427,-2.32738 2.93927,-1.69697 3.069,-1.79792 3.55526,-4.32225 0.48627,-2.52435 -1.73264,-5.97873 -2.90884,-9.30952 -1.1762,-3.3308 -2.43043,-5.66671 -4.20169,-10.63944 -1.77125,-4.97272 -2.31745,-16.96356 -6.1409,-19.28397 -3.82346,-2.32043 -3.81275,-1.44442 -6.78733,1.32992 z"
       id="path859" />
  </g>
  </g>
</svg>

