<?xml version="1.0" encoding="utf-8"?>
<svg version="1.1" id="Layer_1" xmlns="http://www.w3.org/2000/svg" xmlns:xlink="http://www.w3.org/1999/xlink" x="0px" y="0px"
	 viewBox="0 0 640 625" style="enable-background:new 0 0 640 625" xml:space="preserve">
<style type="text/css">
	.white{fill:#fff;}
	.red{fill:#EB1D2C;}
	.black{fill:#000;}
	.blue{fill:#3C6CD8;}
</style>

<!-- bg white sep -->
	<g>
		<path class="white" d="M446.5 622.5h-253.5c-10.5 0-19.5-4.5-25.5-12l-159-199.5c-6-7.5-9-18-6-28.5l61.5-244.5c3-9 9-16.5 16.5-21l225-112.5c9-4.5 19.5-4.5 28.5 0l228 112.5c9 4.5 15 12 18 22.5l58.5 244.5c3 10.5 0 19.5-6 28.5l-160.5 198"/>
	</g>
<!-- red sep -->
	<g>
		<path class="red" d="M446.5 622.5h-253.5c-10.5 0-19.5-4.5-25.5-12l-159-199.5c-6-7.5-9-18-6-28.5l61.5-244.5c3-9 9-16.5 16.5-21l225-112.5c9-4.5 19.5-4.5 28.5 0l228 112.5c9 4.5 15 12 18 22.5l58.5 244.5c3 10.5 0 19.5-6 28.5l-160.5 198c-7.5 7.5-16.5 12-25.5 12z m-252-33h250.5l160.5-199.5-58.5-244.5-226.5-112.5-225 112.5-60 244.5 159 199.5z"/>
	</g>
	
<!-- duck -->
<g><path transform="translate(85.0,230.0)" d="M359.546-86.752c9.423 3.1 20.799 8.5 24.817 11.947 7.011 5.976 14.018 21.947 15.395 35.505 1.841 16.317 10.458 28.152 30.676 42.053 13.792 9.423 16.321 12.294 14.598 16.776-0.918 2.529-13.905 2.529-22.405 0-10.8-3.217-25.277-9.652-36.077-16.088l-10.458-6.205-9.076 1.723c-9.765 1.953-11.146 2.988-10.112 7.47 0.806 3.793 2.3 4.941 14.594 11.03 13.1 6.435 33.206 20.565 44.352 31.14 9.423 8.847 12.87 14.364 20.106 31.941 5.4 13.1 6.318 24.129 3.447 42.628-2.07 14.018-5.053 21.488-12.524 31.941-9.193 12.87-21.946 22.752-50.67 39.182-6.318 3.56-15.165 9.306-19.534 12.753-9.652 7.353-35.505 20.682-48.258 24.93-5.053 1.724-16.43 4.712-25.277 6.664-8.847 1.953-16.2 3.56-16.317 3.677-0.112 0.229 2.412 7.812 5.517 16.893 3.218 9.194 6.435 18.5 7.124 20.682 0.689 2.183 1.841 4.365 2.529 4.824 0.576 0.459 13.212 0.918 27.918 0.918 21.6 0 27.576 0.342 31.023 1.836 3.676 1.494 4.023 1.953 2.182 2.871-2.412 1.377-1.494 3.334 1.607 3.334 2.871 0 9.076 3.1 9.076 4.482 0 0.576-4.023 1.377-8.964 1.836-11.605 1.035-26.541 3.677-34.699 6.318-3.564 1.148-7.929 1.836-9.882 1.611l-3.33-0.459 3.447 1.148c1.84 0.688 8.041 1.953 13.671 2.871 5.629 0.918 10.458 1.953 10.8 2.299 1.377 1.264-2.641 4.023-5.976 4.023-1.953 0-5.4 0.918-7.583 2.066-3.101 1.494-3.906 2.529-3.676 4.482 0.459 3.217 2.183 3.217-25.047-0.23-16.2-1.953-25.277-3.793-32.63-6.205-6.089-2.182-11.259-3.217-12.87-2.871-2.183 0.576-2.758 0.23-2.758-1.611 0-4.365-1.265-5.976-4.824-5.976-3.447 0-3.447-0.112-2.759-4.941 1.035-6.435-1.148-25.74-3.33-31.136-1.035-2.412-2.988-8.73-4.482-14.134l-2.529-9.765-13.099 0.117c-7.24 0.117-13.446 0.459-14.018 0.805-2.07 1.377-30.334-2.07-38.146-4.594-4.482-1.494-10.454-3.1-13.329-3.56-11.489-1.723-37.688-7.47-42.399-9.076-8.388-2.988-12.411-6.205-18.729-14.706-6.665-8.96-8.964-10.683-29.646-22.748-14.477-8.388-22.405-11.488-29.988-11.488-3.793 0-12.524-2.758-12.524-3.906 0-0.346 4.941-1.611 10.917-2.988 5.976-1.494 10.57-2.988 10.229-3.564-0.806-1.377-5.859-1.264-10.688 0.117l-3.906 1.147 3.33-3.564c1.84-1.841 10.917-7.353 20.223-12.064l16.889-8.501 3.685-7.011c6.552-12.181 11.952-17.118 34.7-31.023 11.489-7.011 23.553-15.282 26.77-18.382 4.023-3.794 10.458-7.7 20.106-12.411 14.135-6.777 22.635-9.653 69.975-23.67 13.559-4.023 26.195-7.812 28.035-8.501 4.941-1.953 22.405-4.482 40.905-5.859 9.076-0.689 17.118-1.724 17.694-2.299 0.805-0.805 0.688-2.412-0.346-4.941-0.806-1.953-2.183-9.076-3.101-15.741-0.806-6.664-2.3-15.165-3.33-18.959-3.564-14.364-1.265-38.147 4.712-48.375 4.135-7.124 21.829-25.506 29.646-30.906 7.929-5.4 19.994-9.765 26.887-9.652 2.984 0.005 8.267 0.923 11.714 2.07z m-124.781 333.553c0.347 1.494 0.918 7.123 1.265 12.641 0.806 11.489 2.529 18.153 8.158 30.793 2.183 4.941 3.906 10.454 3.906 12.294l0 3.335 15.629-0.347c8.617-0.113 15.97-0.459 16.2-0.805 0.346-0.23-1.494-1.611-3.906-2.871-2.529-1.264-6.548-4.711-8.964-7.583-3.447-4.252-4.941-5.283-7.011-4.828-3.217 0.576-3.217 1.265-0.918-9.536 1.953-9.423 1.723-12.181-2.07-26.082l-2.642-9.535-10.111 0c-9.765-0.004-9.995 0.113-9.536 2.524z"/></g>

</svg>
