<svg version="1.1" id="COMP_A_R3" xmlns="http://www.w3.org/2000/svg" xmlns:xlink="http://www.w3.org/1999/xlink" x="0px" y="0px"
     viewBox="0 0 204.09 204.09" style="enable-background:new 0 0 204.09 204.09;" xml:space="preserve">

<path style="fill:#0366AD" stroke="#fff" stroke-width="3" d="M86.28,30.57L30.77,57.31c-0.99,0.48-1.7,1.37-1.95,2.44l-13.71,60.07c-0.24,1.07,0.01,2.19,0.7,3.05
	l38.42,48.17c0.68,0.86,1.72,1.36,2.81,1.36h61.62c1.1,0,2.13-0.5,2.81-1.36l38.42-48.17c0.68-0.86,0.94-1.98,0.7-3.05l-13.71-60.07
	c-0.24-1.07-0.96-1.97-1.95-2.44L89.4,30.57C88.42,30.1,87.27,30.1,86.28,30.57z"/>
	<g>
		<path style="fill:#FFFFFF" d="M68.16,80.65h12.23v24.14h0.24c1.21-2.11,2.51-4.05,3.73-5.99l12.39-18.14h15.15l-18.06,23.25l19.03,31.34
			H98.45l-13.36-23.57l-4.7,5.75v17.82H68.16V80.65z"/>
	</g>


</svg>