<?xml version="1.0" encoding="utf-8"?>
<!-- Generator: Adobe Illustrator 23.0.6, SVG Export Plug-In . SVG Version: 6.00 Build 0)  -->
<svg version="1.1" id="Layer_1" xmlns="http://www.w3.org/2000/svg" xmlns:xlink="http://www.w3.org/1999/xlink" x="0px" y="0px"
	 viewBox="0 0 1920 1080" style="enable-background:new 0 0 1920 1080;" xml:space="preserve">
<style type="text/css">
	.st0{fill:#FFFFFF;}
	.st1{fill:#4A6475;}
	.st2{fill:#DDB7B1;}
	.st3{fill:#034C8E;}
	.st4{fill:#444444;}
	.st5{fill:#4F4F4F;}
	.st6{fill:#026FE8;}
	.st7{fill:#F7F9FD;}
	.st8{fill:#3F2C20;}
	.st9{fill:#756042;}
	.st10{fill:#CE9691;}
	.st11{fill:#1F3342;}
</style>
<rect x="888.8" y="915.9" class="st0" width="35" height="27"/>
<rect x="1012.8" y="917.9" class="st0" width="42" height="31"/>
<path class="st1" d="M887.8,558.9c-2,5-13,354-7,364s46,16,57-8c1.1-2.3,22.7-185.5,31-246.7c0.4-3.3,5.2-3.2,5.6,0.1
	c7.2,61.9,28,248.3,30.4,255.6c3,9,7.7,15.8,39,13c22-2,21.1-15.4,21-19c-1-25-22-360-22-360L887.8,558.9z"/>
<path class="st2" d="M1091.8,570.9c2,7,16,41,6,43s-26-16-26-16l-5-31L1091.8,570.9z"/>
<path class="st2" d="M824.8,584.9c-2,2-13,30-6,31s24-6,24-6l9-25H824.8z"/>
<path class="st3" d="M885.8,593.9c2,4,73,61,160-5l-2-67l-157,19L885.8,593.9z"/>
<path class="st4" d="M1024.8,265c4,2-2.8-2.8,6-1c10,2,43,24.9,49,48.9c2,8,15,260.1,15,260.1s-22,18-30,8s-16.8-144.3-18-147.1
	c-3-7-3,47-3,50s2,59.1,3,64.1s3,27-8,29s-39-12-39-12l2-247l22-26L1024.8,265z"/>
<path class="st4" d="M919.8,266.9c-4,2-10.2,2.2-19,4c-10,2-45,14-55,43c-7.3,21.2-25,274-25,274s22,18,30,8s26-131.2,29-151
	c3-20,4,36,4,39s2,66,1,71s-3,27,8,29s39-12,39-12l-2-247l-13-41L919.8,266.9z"/>
<path class="st5" d="M924.8,378.9c0-67-24-95-18-109s30.7-17.7,35.4-16.8c4.6,0.8,81.3-0.7,88.6,8.8c16,21-19,88-19,88l-32,66
	C979.8,415.9,924.8,380.8,924.8,378.9z"/>
<path class="st3" d="M941.8,287.9c-0.1,0.1,0.2,0.9,1.1,2c5.6,7.5,31.4,28.7,61.9-1l7,6c0,0-9,275-9,277s-28,50-82,4l7-246
	L941.8,287.9z"/>
<path class="st5" d="M941.8,283.9c-1,2-15,91-15,95s0,56-3,49c-0.9-2.1-13-133-13-133s1-21,2-24S941.8,283.9,941.8,283.9z"/>
<g id="X7ePIU_1_">
	<g>
		<path class="st6" d="M1020.6,363.6c-0.8,0-1.4-0.3-1.9-0.9c-2.1-2.7-4.3-5.3-6.5-8c-0.6-0.7-0.7-1.4-0.5-2.3
			c0.8-3.2,1.5-6.3,2.2-9.5c0.2-1,0.7-1.6,1.6-2.1c3-1.4,6-2.9,9-4.3c0.8-0.4,1.5-0.4,2.3,0c3,1.5,6,2.9,9,4.3
			c0.9,0.4,1.4,1.1,1.6,2.1c0.7,3.2,1.4,6.4,2.2,9.5c0.2,0.9,0.1,1.6-0.5,2.3c-2.2,2.7-4.3,5.3-6.5,8c-0.5,0.6-1.1,0.9-1.9,0.9
			c-1.7,0-3.5,0-5.2,0C1024.1,363.6,1022.3,363.6,1020.6,363.6z M1026.4,340.6c0-0.4-0.2-0.7-0.6-0.8c-0.5,0-0.8,0.4-0.7,0.8
			c0.7,2-0.6,2.4-2.1,2.7c-0.8,0.2-1.6,0.6-2.2,1.3c-0.7,0.8-1.2,0.5-1.8-0.1c-0.5-0.4-0.9-1.5-1.6-0.6c-0.5,0.7,0.5,1,1,1.3
			c0.7,0.5,1,0.9,0.5,1.8c-0.6,1-0.9,2.2-0.8,3.4c0.1,1.1-0.4,1.4-1.3,1.5c-0.5,0.1-1.5-0.1-1.4,0.7c0.2,1,1.1,0.4,1.6,0.2
			c0.9-0.3,1.4-0.2,1.8,0.7c0.5,1.2,1.3,2.2,2.4,2.9c0.7,0.5,0.8,1,0.3,1.6c-0.1,0.1-0.1,0.2-0.2,0.3c-0.3,0.4-0.6,0.8-0.3,1.4
			c0.1,0.2,0.3,0.3,0.5,0.2c0.6-0.1,0.7-0.7,0.8-1.2c0.3-1,0.7-1.4,1.8-1c1.1,0.3,2.3,0.3,3.4,0c1-0.3,1.5,0,1.8,1
			c0.1,0.5,0.2,1.1,0.9,1.2c0.2,0,0.4-0.1,0.5-0.3c0.3-0.6-0.1-1-0.4-1.4c-0.6-0.8-0.6-1.4,0.3-2c1.1-0.7,1.8-1.7,2.3-2.9
			c0.3-0.9,0.8-1,1.6-0.6c0.3,0.1,0.7,0.2,1.1,0.3c0.3,0.1,0.6-0.1,0.7-0.5c0.1-0.4-0.2-0.7-0.5-0.7c-2.3,0.2-2.3-1.2-2.3-2.9
			c0-0.7-0.3-1.5-0.7-2.2c-0.6-0.8-0.3-1.3,0.4-1.8c0.5-0.3,1.5-0.6,1-1.3c-0.7-0.9-1.1,0.2-1.6,0.6c-0.6,0.6-1.2,0.7-1.9,0
			c-0.9-0.9-2.1-1.4-3.4-1.6c-0.9-0.2-1.1-0.4-1-1.4C1026.3,341.2,1026.4,340.9,1026.4,340.6z"/>
		<path class="st7" d="M1027.3,342.9c1.3,0.3,2.5,0.7,3.4,1.6c0.7,0.7,1.2,0.5,1.9,0c0.4-0.4,0.9-1.5,1.6-0.6c0.5,0.7-0.5,1-1,1.3
			c-0.7,0.5-1,0.9-0.4,1.8c0.4,0.6,0.7,1.4,0.7,2.2c0,1.7,0,3.1,2.3,2.9c0.3,0,0.6,0.3,0.5,0.7c-0.1,0.4-0.3,0.5-0.7,0.5
			c-0.4-0.1-0.8-0.2-1.1-0.3c-0.8-0.3-1.3-0.2-1.6,0.6c-0.4,1.2-1.2,2.2-2.3,2.9c-0.9,0.6-0.9,1.2-0.3,2c0.3,0.4,0.8,0.8,0.4,1.4
			c-0.1,0.2-0.3,0.3-0.5,0.3c-0.7-0.1-0.7-0.8-0.9-1.2c-0.3-1-0.8-1.3-1.8-1c-1.1,0.3-2.3,0.4-3.4,0c-1.1-0.3-1.6,0-1.8,1
			c-0.1,0.5-0.2,1-0.8,1.2c-0.2,0-0.4-0.1-0.5-0.2c-0.3-0.5,0.1-0.9,0.3-1.4c0.1-0.1,0.1-0.2,0.2-0.3c0.5-0.6,0.4-1.1-0.3-1.6
			c-1.1-0.7-1.9-1.7-2.4-2.9c-0.4-1-0.9-1.1-1.8-0.7c-0.5,0.2-1.4,0.8-1.6-0.2c-0.2-0.9,0.8-0.7,1.4-0.7c0.9-0.1,1.5-0.4,1.3-1.5
			c-0.1-1.2,0.2-2.4,0.8-3.4c0.5-0.8,0.3-1.3-0.5-1.8c-0.5-0.3-1.5-0.6-1-1.3c0.7-0.9,1.1,0.2,1.6,0.6c0.6,0.5,1.1,0.9,1.8,0.1
			c0.6-0.6,1.4-1.1,2.2-1.3c1.5-0.4,2.8-0.7,2.1-2.7c-0.1-0.3,0.2-0.8,0.7-0.8c0.4,0,0.6,0.4,0.6,0.8c0,0.3-0.1,0.7-0.2,0.9
			C1026.2,342.5,1026.3,342.7,1027.3,342.9z M1029.8,355c0.7-0.6,1.8-1.5,1.5-2.3c-0.3-0.8-1.7-0.5-2.7-0.7
			c-0.6-0.1-0.8,0.3-0.5,0.9c0.4,0.8,0.7,1.7,1.1,2.6C1029.4,355.3,1029.6,355.2,1029.8,355z M1023.6,352.9c0.3-0.6,0-0.9-0.6-0.8
			c-0.3,0-0.7,0.1-1,0.2c-0.6,0.1-1.5,0-1.7,0.4c-0.2,0.6,0.5,1.2,0.9,1.8c0.3,0.4,0.7,0.8,1.3,1.1
			C1022.9,354.5,1023.2,353.7,1023.6,352.9z M1026.9,354.7c-0.3-0.5-0.4-1.4-1.1-1.4c-0.8,0-0.8,0.9-1.2,1.4c-1,1.6-0.8,1.7,1.1,1.7
			C1027.8,356.5,1027.9,356.3,1026.9,354.7z M1027.2,344.5c-0.5-0.1-0.7-0.1-0.7,0.5c0.1,0.7,0.1,1.5,0.1,2.2
			c0.1,0.8,0.5,0.9,1.1,0.5c0.7-0.5,1.4-1,2.2-1.6C1029.2,345.2,1028.3,344.8,1027.2,344.5z M1031,347.5c-0.4-0.2-1.1,0.8-1.6,1.2
			c-0.3,0.3-0.9,0.5-0.8,1c0.1,0.5,0.7,0.5,1.1,0.6c0.4,0.1,0.7,0.2,1.1,0.3c0.9,0.4,1.2,0,1-0.7
			C1031.8,349,1031.7,347.9,1031,347.5z M1021.6,346.1c0.8,0.6,1.5,1.1,2.3,1.6c0.5,0.3,0.9,0.3,1-0.4c0.1-0.9,0.1-1.9,0.1-2.9
			C1023.6,344.6,1022.5,345.1,1021.6,346.1z M1019.7,350.2c0,0.5,0.1,0.8,0.7,0.6c0.7-0.2,1.3-0.4,2-0.6c0.7-0.2,0.9-0.6,0.3-1.1
			c-0.6-0.6-1.3-1.2-2.1-1.8C1020,348.2,1019.8,349.2,1019.7,350.2z M1025.8,351.4c0.5,0,0.9-0.3,0.9-0.9c0-0.6-0.3-0.9-0.9-1
			c-0.7-0.1-0.9,0.4-1,0.7C1024.8,351.1,1025.2,351.4,1025.8,351.4z"/>
		<path class="st6" d="M1029.1,355.5c0.3-0.2,0.5-0.3,0.7-0.5c0.7-0.6,1.8-1.5,1.5-2.3c-0.3-0.8-1.7-0.5-2.7-0.7
			c-0.6-0.1-0.8,0.3-0.5,0.9C1028.4,353.8,1028.7,354.6,1029.1,355.5z"/>
		<path class="st6" d="M1022.5,355.5c0.4-0.9,0.7-1.8,1.1-2.6c0.3-0.6,0-0.9-0.6-0.8c-0.3,0-0.7,0.1-1,0.2c-0.6,0.1-1.5,0-1.7,0.4
			c-0.2,0.6,0.5,1.2,0.9,1.8C1021.5,354.8,1021.9,355.2,1022.5,355.5z"/>
		<path class="st6" d="M1025.8,356.5c2,0,2.1-0.1,1.1-1.8c-0.3-0.5-0.4-1.4-1.1-1.4c-0.8,0-0.8,0.9-1.2,1.4
			C1023.7,356.3,1023.8,356.5,1025.8,356.5z"/>
		<path class="st6" d="M1030,346.1c-0.9-0.9-1.8-1.3-2.8-1.6c-0.5-0.1-0.7-0.1-0.7,0.5c0.1,0.7,0.1,1.5,0.1,2.2
			c0.1,0.8,0.5,0.9,1.1,0.5C1028.5,347.2,1029.2,346.6,1030,346.1z"/>
		<path class="st6" d="M1031.9,350c-0.1-1.1-0.2-2.1-0.9-2.5c-0.4-0.2-1.1,0.8-1.6,1.2c-0.3,0.3-0.9,0.5-0.8,1
			c0.1,0.5,0.7,0.5,1.1,0.6c0.4,0.1,0.7,0.2,1.1,0.3C1031.7,351.1,1032,350.7,1031.9,350z"/>
		<path class="st6" d="M1025,344.4c-1.4,0.2-2.5,0.7-3.4,1.7c0.8,0.6,1.5,1.1,2.3,1.6c0.5,0.3,0.9,0.3,1-0.4
			C1024.9,346.4,1025,345.4,1025,344.4z"/>
		<path class="st6" d="M1020.6,347.3c-0.6,1-0.9,1.9-0.9,2.9c0,0.5,0.1,0.8,0.7,0.6c0.7-0.2,1.3-0.4,2-0.6c0.7-0.2,0.9-0.6,0.3-1.1
			C1022,348.5,1021.4,347.9,1020.6,347.3z"/>
		<path class="st6" d="M1024.8,350.2c0,0.9,0.4,1.2,1,1.2c0.5,0,0.9-0.3,0.9-0.9c0-0.6-0.3-0.9-0.9-1
			C1025.2,349.4,1025,349.8,1024.8,350.2z"/>
	</g>
</g>
<path class="st5" d="M1005.8,287.9c0,0,4,15,4,19s-2,130-2,133s0-2,0-2s14-131,23-151c6-13.3,4-11,1-13S1005.8,287.9,1005.8,287.9z"
	/>
<path class="st4" d="M942.8,257.9c0,0-3.2-3.7-6.6-2.9c-3.4,0.9-27.4,8.9-25.4,18.9s21,56,23,48s4-32.4,10-34s62-1,62-1
	s4.6,36.8,6,34c10-20,18-45,15-48c-11.2-11.2-36.4-16.5-36.4-16.5L942.8,257.9z"/>
<path class="st2" d="M945.3,295.1c0,0,36.6,28.8,58.8-5.4c-1.2-12.9-3.5-36.3-4.3-34.9c-1,2-57,5-57,5c1,2.9,1.9,32.9,2,34.9
	C945,294.9,945.1,295,945.3,295.1z"/>
<path class="st2" d="M907.8,115.5c-3.9,14.2,2.6,77.6,5.2,86.6c2.6,9,29.7,80.1,68.5,58.2c38.8-22,42.7-45.2,42.7-45.2
	s15.5-80.1,0-100.8S907.8,115.5,907.8,115.5z"/>
<path class="st8" d="M1033.1,126.5c-2.6-8.2-12.9-32.7-32.3-35.4c-9.3-1.3-40.1-5.5-50.4-2.7c-10.3,2.7-39.5,12.7-47.8,25.9
	c-15.5,24.5-3.9,158.8,65.9,161.6c35,1.4,63.3-28.2,63.3-68.9c0-5.1,1.3-15.3,1.2-21.8C1034,171.6,1035.4,133.6,1033.1,126.5z
	 M991.8,236.9c-3.9-9.5-11.7-6.6-23.3-8.2c-15.5-2.1-18.1,4.4-20.7,9.6c-0.9,1.7-8.3-4.2-9-5.2c-12.5-16.3-22-12.9-28-58.5
	c0-10.8,1.2-23.8,6-30.4c4-5.4,10.3-9.5,14.2-8.2c3.9,1.4,2.6,16.4,3.9,13.6c1.3-2.7,7.8-19.1,14.2-25.9c6.5-6.8,6.5,16.4,9,17.7
	c2.6,1.4,14.2-24.5,14.2-24.5s14.2,12.3,14.2,17.7c0,5.5,7.8-8.2,10.3-12.3c0,0,12.9,23.2,12.9,20.4s7.8-12.3,7.8-9.5
	c0,2.4,12.9,36.5,2.5,64.7C1018.9,216.4,994.9,244.5,991.8,236.9z"/>
<path class="st9" d="M929.7,230.1c0,0,12.9-16.4,18.1-15c5.2,1.4,41.4-1.4,44-1.4c2.6,0,16.8,17.7,16.8,17.7s2.6-32.9-25.9-31.5
	c-7.7,0.4-28.4,0-31,0C949.1,199.9,929.7,205.5,929.7,230.1z"/>
<path class="st10" d="M958.2,178.9c0,28.6-2.6,30.6,12.9,30.6c11.9,0,9-30.6,9-30.6H958.2z"/>
<path class="st11" d="M925.8,935.9c-4,4-27,8-38,1c0,0-55,34-50,44s16.9,13.6,36,4c16-8,49-10,52-21S925.8,935.9,925.8,935.9z"/>
<path class="st11" d="M1010.8,943.9c0,0,32.8,7.6,44,2c6-3,43,21,46,27c2.7,5.4-4.7,14.3-10,15c-8,1-72-6-78-16
	S1010.8,943.9,1010.8,943.9z"/>
</svg>
