<?xml version="1.0" encoding="utf-8"?>
<svg version="1.1" id="Layer_1" xmlns="http://www.w3.org/2000/svg" xmlns:xlink="http://www.w3.org/1999/xlink" x="0px" y="0px"
	 viewBox="0 0 73 73" style="enable-background:new 0 0 73 73;" xml:space="preserve">
	 
    <path style="fill:#6593C8" d="M36.23 0.53l-21.82 7.94c-0.4 0.14-0.73 0.42-0.94 0.79l-11.62 20.12c-0.21 0.37-0.29 0.8-0.21 1.21l4.03 22.87c0.07 0.42 0.29 0.79 0.62 1.07l17.79 14.93c0.32 0.27 0.73 0.42 1.16 0.42h23.23c0.42 0 0.83-0.15 1.16-0.42l17.79-14.93c0.32-0.27 0.54-0.65 0.62-1.07l4.03-22.87c0.07-0.42 0-0.85-0.21-1.21l-11.61-20.11c-0.21-0.37-0.55-0.65-0.94-0.79l-21.82-7.94c-0.43-0.16-0.86-0.16-1.26-0.01z"/>

    <g comment="the n text">
	<path style="fill:#FFFFFF" d="M32.61 27.01c0.43-0.42 0.89-0.8 1.35-1.16 0.47-0.35 0.97-0.65 1.49-0.9 0.53-0.25 1.09-0.45 1.7-0.59s1.27-0.21 1.98-0.21c1.18 0 2.22 0.2 3.13 0.61s1.68 0.97 2.3 1.7 1.09 1.6 1.41 2.6c0.31 1.01 0.47 2.11 0.47 3.32v13.75h-5.78v-13.74c0-1.2-0.28-2.14-0.84-2.8-0.56-0.67-1.39-1-2.48-1-0.81 0-1.57 0.17-2.29 0.52-0.71 0.35-1.39 0.84-2.04 1.47v15.56h-5.8v-21.65h3.57c0.73 0 1.21 0.34 1.45 1.01l0.38 1.51z"/>
</g>

</svg>