<?xml version="1.0" encoding="UTF-8" standalone="no"?>
<!-- Generator: Adobe Illustrator 23.0.6, SVG Export Plug-In . SVG Version: 6.00 Build 0)  -->

<svg
   version="1.1"
   id="Layer_1"
   x="0px"
   y="0px"
   viewBox="0 0 1920 1080"
   style="enable-background:new 0 0 1920 1080;"
   xml:space="preserve"
   sodipodi:docname="n3wstash.svg"
   inkscape:version="1.1.1 (c3084ef, 2021-09-22)"
   xmlns:inkscape="http://www.inkscape.org/namespaces/inkscape"
   xmlns:sodipodi="http://sodipodi.sourceforge.net/DTD/sodipodi-0.dtd"
   xmlns="http://www.w3.org/2000/svg"
   xmlns:svg="http://www.w3.org/2000/svg"><defs
   id="defs989" /><sodipodi:namedview
   id="namedview987"
   pagecolor="#ffffff"
   bordercolor="#666666"
   borderopacity="1.0"
   inkscape:pageshadow="2"
   inkscape:pageopacity="0.0"
   inkscape:pagecheckerboard="0"
   showgrid="false"
   inkscape:zoom="0.73206225"
   inkscape:cx="762.91326"
   inkscape:cy="258.85777"
   inkscape:window-width="1312"
   inkscape:window-height="969"
   inkscape:window-x="-8"
   inkscape:window-y="44"
   inkscape:window-maximized="0"
   inkscape:current-layer="Layer_1" />
<style
   type="text/css"
   id="style946">
	.st0{fill:#E9C1B9;}
	.st1{fill:#D68C80;}
	.st2{fill:#8D6553;}
	.st3{fill:#0A5F89;}
	.st4{fill:#447F5F;}
	.st5{fill:#FFFFFF;}
	.st6{fill:#6B4420;}
	.st7{fill:#1D7C46;}
</style>
<path
   class="st0"
   d="M987.9,383l30.4,75.5c3.5,8.6,2.6,18.4-2.4,26.2c-16.4,25.9-52.5,84.1-52.5,94.1c0,13,4.3,64.8-5.8,50.4  c-10.1-14.4-22.1-43.5-16.1-54.2c6-10.6,47.8-97,44.9-102.8c-2.9-5.8-37.4-56.2-38.9-60.5S987.9,383,987.9,383z"
   id="path948" />
<path
   class="st0"
   d="M906.4,807.3l23,162.7H964l-7.2-188.6C956.8,781.3,912.2,808.7,906.4,807.3z"
   id="path950" />
<path
   class="st0"
   d="M830.8,773.4c0,5.8-1.4,38.9,0,50.4c1.4,11.5-13,145.4-13,145.4l-34.6-1.4l-5.8-193l43.2-30.2L830.8,773.4z"
   id="path952" />
<path
   class="st0"
   d="M920.9,177.9c0,47.1-30.7,112.5-68.5,112.5c-37.8,0-68.5-65.4-68.5-112.5s30.7-85.3,68.5-85.3  C890.2,92.6,920.9,130.8,920.9,177.9z"
   id="path954" />
<path
   class="st1"
   d="M862.4,182.9c-1.9-0.6-15.7,0-15.7,0s-8.8,38.3-5.7,42.1c3.1,3.8,10,6.9,12.6,6.9s13.2-3.1,13.8-6.9  C868,221.2,862.4,182.9,862.4,182.9z"
   id="path956" />
<path
   class="st2"
   d="M882.7,111.6c-1.6,0.4-56.2,7.3-69.4,19.5c-13.2,12.2-10.9-3.2-10.9-3.2s-9.1,0.5-12.9,34.2  c-0.4,3.6,0.2,37-1.6,34.7c-1.8-2.3-3.2-5.4-3.6-14.5c-0.6-11.4-8.2-63,24.9-79.8c31.3-15.9,77.9-6.8,82.6-5.4  c15.4,4.5,19.3,8.4,25.2,27.9s7.9,56.5,6.6,61.5c-1.4,5-1.6,13.6-3.2,10.4c-0.9-1.8-0.9-9.5-0.5-15c0.1-1.4-3.4-34.2-7.9-42.9  C907.4,130.4,892.7,109.4,882.7,111.6z"
   id="path958" />
<path
   class="st0"
   d="M817.4,266.8c0,2.7,11.8,20.4,4.5,39.5c-7.3,19.1-10.9,26.8-6.4,29.5s59.9,25.4,59.9,25.4s31.8-44,30.8-46.7  c-0.9-2.7-29,13.6-20-44C893.6,224.9,817.4,266.8,817.4,266.8z"
   id="path960" />
<path
   class="st3"
   d="M791.9,564.9c0,0,87.7,53.4,146.2,10.1c0,0,50.4,217.7,38.3,225.8c-12.1,8.1-71.6,30.2-80.6,10.1  c-5.9-13.1-18.1-72.8-26-113.2c-1.1-5.6-9.3-5.1-9.7,0.6c-3.2,44.9-9.1,113.1-15.5,114.7c-14.1,3.6-71.7,19-79.8-12.2  C756.6,769.6,791.9,564.9,791.9,564.9z"
   id="path962" />
<g
   id="g972">
	<polygon
   class="st4"
   points="785.8,965.3 789.4,965.3 789.4,963.1 785.5,963  "
   id="polygon964" />
	<polygon
   class="st4"
   points="793.7,958.8 791.8,951 798.1,951 798.8,957.5 802.4,957.5 802.4,951 806.7,951 799.5,922.2   791.7,950.7 786.5,930 782.7,943.7 783.2,958.8 785.1,958.8 785.5,963 789.4,963.1 789.4,958.8  "
   id="polygon966" />
	<polygon
   class="st4"
   points="811.7,966.1 815.3,966.1 815.3,964.2 811.5,964  "
   id="polygon968" />
	<path
   class="st4"
   d="M812.5,930.8l-7.9,28.8h6.5l0.5,4.4l3.8,0.2v-4.6h3c0.1-1.1,0.2-2.3,0.4-3.7L812.5,930.8z"
   id="path970" />
</g>
<polygon
   class="st5"
   points="778.2,962.8 824.3,964.2 821.4,987.3 778.2,987.3 "
   id="polygon974"
   style="fill:#cccccc" />
<path
   class="st5"
   d="M925.1,962.8l43.2,1.4c0,0-1.4,11.5-1.4,15.8c0,4.3-37.4,4.3-37.4,4.3L925.1,962.8z"
   id="path976"
   style="fill:#cccccc" />
<path
   class="st6"
   d="M778.2,987.3c-2.9-1.4-53.7,26-56.2,30.2c-7.1,12.2-5.3,19.9,8.4,23.2c21.2,5,43.6-2.1,59.2-7.3  c21.6-7.2,31.7-7.2,34.6-14.4c2.9-7.2-2.9-31.7-2.9-31.7H778.2z"
   id="path978" />
<path
   class="st6"
   d="M969.7,981.5c2.9-1.4,53.7,26,56.2,30.2c7.1,12.2,5.3,19.9-8.4,23.2c-21.2,5-43.6-2.1-59.2-7.3  c-21.6-7.2-31.7-7.2-34.6-14.4c-2.9-7.2,2.9-31.7,2.9-31.7H969.7z"
   id="path980" />
<path
   class="st0"
   d="M740.8,373.8l-30.4,87c-3.5,8.6-2.6,18.4,2.4,26.2c16.4,25.9,52.5,84.1,52.5,94.1c0,13-4.3,64.8,5.8,50.4  c10.1-14.4,22.1-43.5,16.1-54.2s-47.8-97-44.9-102.8c2.9-5.8,38.9-60.5,40.3-64.8S740.8,373.8,740.8,373.8z"
   id="path982" />
<path
   class="st7"
   d="M820,311.9c0,0,20.1,56.4,78.4,3c0,0,49.7-5.9,64.1,11.4c14.4,17.3,34.6,61.9,34.6,61.9s-31.7,43.2-49,33.1  l-8.6-17.3c0,0-4.3,108-4.3,132.5c0,7.2,5.8,47.5,10.1,64.8c4.3,17.3-116.6,56.2-158.4-1.4c-5.7-7.8,5.8-60.5,5.8-60.5  s5.8-113.8,0-119.5c-3.4-3.4-5.6,8.6-11.5,10.1c-5.1,1.3-59.2-39.8-50.4-51.8c11.5-15.8,15.8-44.6,37.4-56.2  C779.7,315.8,820,311.9,820,311.9z"
   id="path984" />
<path
   style="fill:#8d6553;fill-opacity:1;stroke:#8d6553;stroke-width:1px;stroke-linecap:butt;stroke-linejoin:miter;stroke-opacity:1"
   d="m 855.26652,234.62317 c -0.14115,1.54833 -0.95377,6.27772 0.0933,9.4368 0.91063,2.74746 3.45115,4.02811 6.24817,4.51439 14.99861,2.60762 11.23232,3.22839 17.50241,5.83414 6.27009,2.60575 5.58047,1.26829 5.58047,1.26829 0,0 -0.98925,-9.41415 -2.28292,-10.65364 -1.29367,-1.23949 -5.26017,-1.85027 -9.89266,-4.05853 -4.63249,-2.20826 -8.9555,-2.22402 -10.06961,-3.90646 -1.11411,-1.68244 -1.59866,-3.44992 -1.59866,-3.44992 0,0 -5.31658,-1.87999 -5.58048,1.01493 z"
   id="path961-8"
   sodipodi:nodetypes="ssszczczcss" /><path
   style="fill:#8d6553;fill-opacity:1;stroke:#8d6553;stroke-width:1px;stroke-linecap:butt;stroke-linejoin:miter;stroke-opacity:1"
   d="m 852.5154,234.62396 c 0.15447,1.69451 0.2158,7.56555 -1.27864,10.58065 -1.05868,2.13592 -2.00824,2.44847 -5.06281,3.37054 -3.6159,1.09152 -5.90459,1.02635 -8.34514,1.79572 -2.85462,0.8999 -5.77707,2.63366 -9.15727,4.03842 -6.27009,2.60575 -5.58047,1.26829 -5.58047,1.26829 0,0 0.98925,-9.41415 2.28292,-10.65364 1.29367,-1.23949 5.26017,-1.85027 9.89266,-4.05853 4.63249,-2.20826 8.87947,-3.13637 9.99358,-4.81881 1.11411,-1.68244 1.67469,-2.53757 1.67469,-2.53757 0,0 5.31658,-1.87999 5.58048,1.01493 z"
   id="path961"
   sodipodi:nodetypes="sssssczczcs" /><path
   style="fill:#8d6553;fill-opacity:1;stroke:#8d6553;stroke-width:0.78293px;stroke-linecap:butt;stroke-linejoin:miter;stroke-opacity:1"
   d="m 845.06989,260.85322 c 2.50517,-1.18987 12.57708,-1.89332 16.06907,-1.24877 0,0 2.49238,3.9724 1.97774,5.41135 -1.01187,2.82913 -10.17208,5.69825 -10.17208,5.69825 -2.70411,-1.92176 -7.78021,-2.20208 -8.86359,-5.07387 -0.54947,-1.8065 0.98886,-4.78696 0.98886,-4.78696 z"
   id="path2197"
   sodipodi:nodetypes="ccsccc" /><path
   style="fill:#b3b3b3;stroke:#b3b3b3;stroke-width:1px;stroke-linecap:butt;stroke-linejoin:miter;stroke-opacity:1;fill-opacity:1"
   d="m 784.44874,148.37063 c 0,0 3.35425,-27.36631 7.01995,-35.09971 3.6657,-7.7334 6.3083,-9.50819 9.87551,-12.01718 3.56721,-2.508986 7.05796,-2.189091 9.99449,-3.569466 2.93653,-1.380375 4.37295,-3.236827 7.61485,-4.521318 3.2419,-1.284491 8.50003,-1.184142 11.77923,-2.617606 3.2792,-1.433464 2.26312,-3.573873 7.73383,-5.354193 5.47071,-1.78032 18.77593,-3.684449 25.10522,-0.59491 1.90505,0.929919 3.33149,4.283354 3.33149,4.283354 0,0 0.29229,-0.0055 5.94911,-0.118982 5.65682,-0.113527 29.75539,7.488649 37.24138,14.277851 7.48599,6.7892 5.17331,8.62835 9.2806,18.5612 4.10729,9.93285 6.79664,32.50043 6.78198,32.4821 z"
   id="path75274"
   sodipodi:nodetypes="czzzzzssczzzcc" /><path
   style="fill:#243048;fill-opacity:1;stroke:#243048;stroke-width:1.04808px;stroke-linecap:butt;stroke-linejoin:miter;stroke-opacity:1"
   d="m 925.85382,153.07163 c 0,0 -3.50991,-19.00914 -4.33456,-25.73433 -1.76178,-14.36773 -9.6992,-22.93684 -9.6992,-22.93684 0,0 0.68249,8.97882 -1.06585,13.41791 -0.68239,1.73261 -1.45131,3.58035 -1.2435,5.41716 0.17486,1.54553 1.38196,3.74203 3.99696,6.50061 4.37435,4.61454 4.34102,6.88047 5.68456,14.8347 0.35323,2.09123 -4.1746,5.00046 -4.1746,5.00046 z"
   id="path135614"
   sodipodi:nodetypes="cscsssscc" /><path
   style="fill:#6a6069;fill-opacity:1;stroke:#6a6069;stroke-width:1px;stroke-linecap:butt;stroke-linejoin:miter;stroke-opacity:1"
   d="m 879.70873,139.587 c 11.86605,0.78891 19.85973,4.505 34.478,8.11416 12.23756,3.02138 13.30466,9.49205 13.30466,9.49205 0,0 -30.40567,-5.89336 -64.79591,-8.41418 -20.75656,-1.52147 -69.5735,-0.52226 -75.32285,0.0323 23.52677,-13.17405 61.40086,-12.22428 92.3361,-9.2243 z"
   id="path55435-5"
   sodipodi:nodetypes="cscscc" /><path
   style="fill:#243048;fill-opacity:1;stroke:#243048;stroke-width:1px;stroke-linecap:butt;stroke-linejoin:miter;stroke-opacity:1"
   d="m 783.15221,160.43782 c 7.83933,-7.4145 19.29432,-8.87781 28.6378,-8.25662 11.86605,0.78891 90.7021,1.58135 105.32037,5.19051 12.23756,3.02138 10.38101,-0.1785 10.38101,-0.1785 0,0 -30.40567,-5.89336 -64.79591,-8.41418 -20.75656,-1.52147 -66.64985,-0.74716 -72.3992,-0.19263 -12.11781,1.16878 -21.08124,3.40355 -24.82806,6.49349 -6.02778,4.97102 17.68399,5.35793 17.68399,5.35793 z"
   id="path55435"
   sodipodi:nodetypes="csscsssc" /><path
   style="fill:#e6e6e6;stroke:#e6e6e6;stroke-width:1px;stroke-linecap:butt;stroke-linejoin:miter;stroke-opacity:1;fill-opacity:1"
   d="m 825.61654,119.22003 c 0.68629,-13.42745 13.80571,-26.963016 24.15336,-27.841805 11.53552,-0.979671 19.73792,23.678805 17.72832,29.864495 -2.26519,6.9724 -42.35761,7.28893 -41.88168,-2.02269 z"
   id="path97065"
   sodipodi:nodetypes="ssss" /><path
   style="fill:#243048;stroke:#243048;stroke-width:1px;stroke-linecap:butt;stroke-linejoin:miter;stroke-opacity:1;fill-opacity:1"
   d="m 838.94253,109.22553 c 0,0 11.61265,1.82373 11.54126,3.3315 -0.0838,1.76973 -11.85278,3.21735 -11.89821,5.23521 -0.0545,2.42149 12.85007,6.54402 12.85007,6.54402 0,0 -19.28355,-2.31832 -22.13067,-4.40234 -2.84712,-2.08402 8.67498,-26.951883 19.63204,-26.414018 10.53683,0.517237 18.06042,23.253528 16.30055,27.127908 -1.75987,3.87438 -23.38209,-1.25026 -20.94085,-2.49862 0,0 10.19229,-3.23841 10.47042,-5.35419 0.36441,-2.77213 -12.49311,-5.23521 -12.49311,-5.23521 0,0 4.67927,-5.3305 5.47317,-5.3542 0.7939,-0.0237 1.63482,3.13984 2.37964,3.3315 0.74482,0.19166 2.05023,-1.19095 2.49863,-0.59491 0.4484,0.59604 9.75653,12.96904 9.75653,12.96904 1.34594,-2.99966 -5.55835,-22.306111 -13.56396,-22.606587 -2.55694,-0.09597 -15.20436,8.291497 -16.65749,19.751027 -0.37502,2.95747 6.15902,-6.3899 6.78198,-5.83013 z"
   id="path97499"
   sodipodi:nodetypes="sssczszssczzzcsss" /><path
   style="fill:#243048;fill-opacity:1;stroke:#243048;stroke-width:1px;stroke-linecap:butt;stroke-linejoin:miter;stroke-opacity:1"
   d="m 794.96749,106.41558 c 0,0 -4.7685,2.32708 -5.85903,10.44769 -0.97842,7.28578 -3.83743,18.85015 -4.11033,21.58501 -0.57982,5.8106 -1.32869,12.10628 -1.32869,12.10628 l 4.89497,0.41046 c 0,0 -1.87068,-9.55999 -0.49255,-13.62708 1.37812,-4.0671 6.60119,-5.90408 7.71654,-9.35836 1.11534,-3.45427 -5.56828,-6.99539 -4.76127,-11.49271 0.66094,-3.68327 3.94036,-10.07129 3.94036,-10.07129 z"
   id="path164690"
   sodipodi:nodetypes="csscczzsc" /></svg>
