<?xml version="1.0" encoding="utf-8"?>
<!-- Generator: Adobe Illustrator 23.0.6, SVG Export Plug-In . SVG Version: 6.00 Build 0)  -->
<svg version="1.1" id="Layer_1" xmlns="http://www.w3.org/2000/svg" xmlns:xlink="http://www.w3.org/1999/xlink" x="0px" y="0px"
	 viewBox="0 0 1920 1080" style="enable-background:new 0 0 1920 1080;" xml:space="preserve">
<style type="text/css">
	.st0{fill:#E9C1B9;}
	.st1{fill:#D68C80;}
	.st2{fill:#8D6553;}
	.st3{fill:#0A5F89;}
	.st4{fill:#447F5F;}
	.st5{fill:#FFFFFF;}
	.st6{fill:#6B4420;}
	.st7{fill:#1D7C46;}
</style>
<path class="st0" d="M987.9,383l30.4,75.5c3.5,8.6,2.6,18.4-2.4,26.2c-16.4,25.9-52.5,84.1-52.5,94.1c0,13,4.3,64.8-5.8,50.4
	c-10.1-14.4-22.1-43.5-16.1-54.2c6-10.6,47.8-97,44.9-102.8c-2.9-5.8-37.4-56.2-38.9-60.5S987.9,383,987.9,383z"/>
<path class="st0" d="M906.4,807.3l23,162.7H964l-7.2-188.6C956.8,781.3,912.2,808.7,906.4,807.3z"/>
<path class="st0" d="M830.8,773.4c0,5.8-1.4,38.9,0,50.4c1.4,11.5-13,145.4-13,145.4l-34.6-1.4l-5.8-193l43.2-30.2L830.8,773.4z"/>
<path class="st0" d="M920.9,177.9c0,47.1-30.7,112.5-68.5,112.5c-37.8,0-68.5-65.4-68.5-112.5s30.7-85.3,68.5-85.3
	C890.2,92.6,920.9,130.8,920.9,177.9z"/>
<path class="st1" d="M862.4,182.9c-1.9-0.6-15.7,0-15.7,0s-8.8,38.3-5.7,42.1c3.1,3.8,10,6.9,12.6,6.9s13.2-3.1,13.8-6.9
	C868,221.2,862.4,182.9,862.4,182.9z"/>
<path class="st2" d="M882.7,111.6c-1.6,0.4-56.2,7.3-69.4,19.5c-13.2,12.2-10.9-3.2-10.9-3.2s-9.1,0.5-12.9,34.2
	c-0.4,3.6,0.2,37-1.6,34.7c-1.8-2.3-3.2-5.4-3.6-14.5c-0.6-11.4-8.2-63,24.9-79.8c31.3-15.9,77.9-6.8,82.6-5.4
	c15.4,4.5,19.3,8.4,25.2,27.9s7.9,56.5,6.6,61.5c-1.4,5-1.6,13.6-3.2,10.4c-0.9-1.8-0.9-9.5-0.5-15c0.1-1.4-3.4-34.2-7.9-42.9
	C907.4,130.4,892.7,109.4,882.7,111.6z"/>
<path class="st0" d="M817.4,266.8c0,2.7,11.8,20.4,4.5,39.5c-7.3,19.1-10.9,26.8-6.4,29.5s59.9,25.4,59.9,25.4s31.8-44,30.8-46.7
	c-0.9-2.7-29,13.6-20-44C893.6,224.9,817.4,266.8,817.4,266.8z"/>
<path class="st3" d="M791.9,564.9c0,0,87.7,53.4,146.2,10.1c0,0,50.4,217.7,38.3,225.8c-12.1,8.1-71.6,30.2-80.6,10.1
	c-5.9-13.1-18.1-72.8-26-113.2c-1.1-5.6-9.3-5.1-9.7,0.6c-3.2,44.9-9.1,113.1-15.5,114.7c-14.1,3.6-71.7,19-79.8-12.2
	C756.6,769.6,791.9,564.9,791.9,564.9z"/>
<g>
	<polygon class="st4" points="785.8,965.3 789.4,965.3 789.4,963.1 785.5,963 	"/>
	<polygon class="st4" points="793.7,958.8 791.8,951 798.1,951 798.8,957.5 802.4,957.5 802.4,951 806.7,951 799.5,922.2 
		791.7,950.7 786.5,930 782.7,943.7 783.2,958.8 785.1,958.8 785.5,963 789.4,963.1 789.4,958.8 	"/>
	<polygon class="st4" points="811.7,966.1 815.3,966.1 815.3,964.2 811.5,964 	"/>
	<path class="st4" d="M812.5,930.8l-7.9,28.8h6.5l0.5,4.4l3.8,0.2v-4.6h3c0.1-1.1,0.2-2.3,0.4-3.7L812.5,930.8z"/>
</g>
<polygon class="st5" points="778.2,962.8 824.3,964.2 821.4,987.3 778.2,987.3 "/>
<path class="st5" d="M925.1,962.8l43.2,1.4c0,0-1.4,11.5-1.4,15.8c0,4.3-37.4,4.3-37.4,4.3L925.1,962.8z"/>
<path class="st6" d="M778.2,987.3c-2.9-1.4-53.7,26-56.2,30.2c-7.1,12.2-5.3,19.9,8.4,23.2c21.2,5,43.6-2.1,59.2-7.3
	c21.6-7.2,31.7-7.2,34.6-14.4c2.9-7.2-2.9-31.7-2.9-31.7H778.2z"/>
<path class="st6" d="M969.7,981.5c2.9-1.4,53.7,26,56.2,30.2c7.1,12.2,5.3,19.9-8.4,23.2c-21.2,5-43.6-2.1-59.2-7.3
	c-21.6-7.2-31.7-7.2-34.6-14.4c-2.9-7.2,2.9-31.7,2.9-31.7H969.7z"/>
<path class="st0" d="M740.8,373.8l-30.4,87c-3.5,8.6-2.6,18.4,2.4,26.2c16.4,25.9,52.5,84.1,52.5,94.1c0,13-4.3,64.8,5.8,50.4
	c10.1-14.4,22.1-43.5,16.1-54.2s-47.8-97-44.9-102.8c2.9-5.8,38.9-60.5,40.3-64.8S740.8,373.8,740.8,373.8z"/>
<path class="st7" d="M820,311.9c0,0,20.1,56.4,78.4,3c0,0,49.7-5.9,64.1,11.4c14.4,17.3,34.6,61.9,34.6,61.9s-31.7,43.2-49,33.1
	l-8.6-17.3c0,0-4.3,108-4.3,132.5c0,7.2,5.8,47.5,10.1,64.8c4.3,17.3-116.6,56.2-158.4-1.4c-5.7-7.8,5.8-60.5,5.8-60.5
	s5.8-113.8,0-119.5c-3.4-3.4-5.6,8.6-11.5,10.1c-5.1,1.3-59.2-39.8-50.4-51.8c11.5-15.8,15.8-44.6,37.4-56.2
	C779.7,315.8,820,311.9,820,311.9z"/>
</svg>
