<?xml version="1.0" encoding="UTF-8" standalone="no"?>
    <svg
       version="1.1"
       id="Layer_1"
       x="0px"
       y="0px"
       viewBox="-0 -30 600 600"
       xml:space="preserve"
       width="600"
       height="600"
       xmlns="http://www.w3.org/2000/svg"
       xmlns:svg="http://www.w3.org/2000/svg">
 
  <defs>
    <radialGradient id="rg1" cx="0.474" cy="0.472" r="50%">
      <stop offset="5%" style="stop-color:#FC49F5;"/>
      <stop offset="15%" style="stop-color:#FC4EA7;"/>
      <stop offset="30%" style="stop-color:#FD5258;"/>
      <stop offset="40%" style="stop-color:#FECE7A;"/>
      <stop offset="75%" style="stop-color:#7EFF7A;"/>
      <stop offset="90%" style="stop-color:#7EFFFF;"/>
      <stop offset="100%" style="stop-color:#7BA3FE;"/>
    </radialGradient>

        <mask id="poo-mask">
         <g
       id="poo"
       transform="matrix(0.78873229,0,0,0.82683533,97.135984,82.523367)">
       <path
       id="path6295-5-8-0"
       style="display:inline;fill:#fff;fill-opacity:1;stroke:#945f01;stroke-width:4.50723;stroke-opacity:1"
       d="m 542.05579,496.99107 c 1.36857,4.09434 -0.57813,10.65416 -5.4254,14.83084 -14.83104,7.80679 -37.37243,14.53311 -43.88999,15.65657 -7.52599,-0.16384 -10.99026,-2.74497 -12.51133,-7.29551 -1.68717,-5.04751 0.61441,-10.49481 3.79938,-13.03279 4.28164,-3.09477 15.04361,-6.26498 18.70304,-11.029 4.72827,-6.15548 1.45054,-12.94358 -0.44456,-17.40553 8.35612,-2.94562 15.92252,8.50557 25.86763,12.75143 0,0 12.4141,1.07492 13.90123,5.52399 z" />
         <path
       id="path6295-4"
       style="display:inline;fill:#fff;fill-opacity:1;stroke:#945f01;stroke-width:4.50723;stroke-opacity:1"
       d="m 576.81793,554.06907 c 0.77225,6.17788 -4.83865,14.24211 -14.37978,17.77844 -27.38089,4.05345 -67.12396,3.22099 -78.31589,1.86255 -12.39118,-3.5569 -17.1819,-8.60396 -18.04019,-15.47017 -0.95203,-7.61608 4.84056,-14.0092 11.03452,-16.05195 10.67256,-0.57398 30.1607,4.05507 45.35116,3.74236 14.89757,-0.3067 25.5255,-5.56095 33.36501,-5.53642 13.13183,-0.82713 20.14603,6.9621 20.98517,13.67519 z" />
         <path
       id="path6295-5"
       style="display:inline;fill:#fff;fill-opacity:1;stroke:#945f01;stroke-width:3.63935;stroke-opacity:1"
       d="m 557.25679,512.64244 c 1.89857,4.64259 -0.80204,12.08078 -7.52646,16.81672 -20.57452,8.85213 -51.84531,16.47913 -60.88687,17.75302 -10.44051,-0.18577 -15.24635,-3.11253 -17.35645,-8.2724 -2.34057,-5.72338 0.85232,-11.90008 5.27071,-14.7779 8.23033,-2.66823 24.44838,-3.12639 36.26841,-6.53209 11.59213,-3.34003 18.80696,-9.63793 24.94601,-11.25101 10.10152,-3.37706 17.2216,1.21885 19.28465,6.26366 z" />
         <path
       id="path6295"
       style="fill:#fff;fill-opacity:1;stroke:#945f01;stroke-width:4.42086;stroke-opacity:1"
       d="m 568.58317,532.39137 c 2.34392,5.54896 -0.99017,14.43928 -9.29192,20.09981 -25.40065,10.58029 -64.00656,19.69629 -75.16899,21.21888 -12.88952,-0.22204 -18.82266,-3.72018 -21.42772,-9.88739 -2.88959,-6.84075 1.05225,-14.22331 6.50706,-17.66296 10.1609,-3.18914 30.18318,-3.73674 44.77582,-7.80732 14.31126,-3.99209 23.21847,-11.51952 30.79754,-13.4475 12.47101,-4.03636 21.26124,1.4568 23.80821,7.48648 z" />
         </g>
        </mask>
      </defs>
 
     <g
       id="lower">
 
       <path
       id="arms"
       style="display:inline;fill:#000000;fill-opacity:1;stroke:none;stroke-width:0.281223"
       d="m 375.26953,393.08008 c -6.73395,-0.16824 -10.76501,3.73249 -14.7168,14.10156 -7.04907,18.49606 0.79461,21.55404 37.17383,35.29688 23.71113,8.15905 43.66508,20.27171 52.16211,-1.35352 7.33991,-19.35922 -5.06627,-22.6816 -37.49414,-35.28711 -18.39042,-7.14881 -29.49319,-12.56715 -37.125,-12.75781 z m -163.23047,4.09961 c -7.63181,0.19066 -18.73457,5.609 -37.125,12.75781 -32.42787,12.60551 -44.8321,15.92789 -37.49218,35.28711 8.49702,21.62523 28.44902,9.51256 52.16015,1.35351 36.37922,-13.74284 44.22485,-16.80081 37.17578,-35.29687 -3.95178,-10.36907 -7.9848,-14.2698 -14.71875,-14.10156 z" />
         <path
       id="feet"
       style="display:inline;fill:#000000;fill-opacity:1;stroke:none;stroke-width:0.263699"
       d="m 213.14648,471.41797 c -0.2055,0 -0.38995,0.15085 -0.56836,0.32617 -6.40256,20.39367 5.20822,41.85356 5.36526,60.94727 -22.63876,0.0912 -31.4618,0.34313 -31.22656,19.00781 0.14936,19.67284 12.95277,18.62361 34.50781,19.53711 24.4187,0.20482 32.07929,-2.71555 33.58984,-13.93555 2.19219,-8.10629 1.26698,-19.29017 1.63867,-31.02344 -0.0236,-34.99049 -0.11459,-42.5649 -19.45703,-42.46484 -7.36255,0.0381 -12.76707,-12.39453 -15.84961,-12.39453 z m 174.08399,1.58008 c -3.39976,0.0292 -9.3377,9.9777 -14.77344,10.01953 -23.91805,5.69494 -19.18523,35.46964 -19.04491,48.14453 -30.25259,0.50565 -36.56737,3.67591 -36.89649,19.0723 -0.54368,22.70468 14.0685,18.34599 41.75095,19.22609 34.60222,-1.25517 33.65824,-6.31564 33.64554,-43.97609 -0.0141,-21.01408 1.10011,-46.31849 -3.38867,-51.83399 -0.37319,-0.45854 -0.80729,-0.65651 -1.29297,-0.65234 z"/>
         <path
       id="body"
       style="fill:#ffaac7;fill-opacity:1;stroke:#000000;stroke-width:14.6683;stroke-miterlimit:4;stroke-dasharray:none;stroke-opacity:1"
       d="m 300.10105,501.02294 c -61.43857,0.11566 -92.23003,-18.20627 -93.91006,-68.06977 -1.79346,-53.23013 41.16903,-68.55974 92.76245,-68.90673 51.59343,-0.34697 94.36422,11.90852 94.47858,67.64746 0.21138,20.83494 2.19047,68.79981 -93.33097,69.32904 z" />
         </g>

        <g transform="rotate(-1, 300, 200)">
         <g
       id="upper">
       <path
       id="inner-ear"
       style="fill:#be6583;fill-opacity:1;stroke:none;stroke-width:1px;stroke-linecap:butt;stroke-linejoin:miter;stroke-opacity:1"
       d="m 97.974609,42.882812 c 0,0 -1.537278,10.702744 2.070311,13.457032 16.01681,12.228323 27.75195,47.257816 27.75196,47.257816 l 18.2832,-7.621098 -9.66211,-46.029296 z m 421.714841,3.158204 -37.24804,11.853515 -3.78516,46.878909 19.09961,5.25781 c 0,0 7.22613,-36.229602 21.57422,-50.378906 3.23172,-3.186955 0.35937,-13.611328 0.35937,-13.611328 z" />
         <path
       id="head"
       style="display:inline;fill:#ffaac7;fill-opacity:1;stroke:#000000;stroke-width:20;stroke-miterlimit:4;stroke-dasharray:none;stroke-opacity:1"
       d="m 501.5299,206.95411 c 2.3092,80.7165 -64.02199,176.07787 -171.07094,176.07787 -117.06286,0 -222.7094,-96.95695 -221.97496,-201.11264 0.28309,-40.1471 9.56664,-71.3021 26.28165,-94.945703 2.41056,-3.409767 4.71983,-22.676971 -16.72009,-29.761108 -7.72329,-2.551914 -19.26904,6.931377 -19.26904,6.931377 -2.974833,-5.01035 2.46836,-26.004749 10.83869,-32.025902 28.35902,-20.399885 56.52453,23.765502 65.29402,18.687263 33.53457,-19.419206 78.23293,-27.439468 130.51496,-27.439468 55.11789,0 94.60528,7.134146 122.94993,20.227032 12.51562,5.781179 32.39643,-23.372658 71.14597,-22.572531 17.69935,0.365469 34.79552,42.329627 31.04905,53.616824 0,0 -30.40471,-32.143372 -38.48235,-16.611234 -7.89118,15.173599 -13.62633,33.578343 -8.26239,40.116658 21.62964,22.676382 16.49695,66.567622 17.7055,108.811562 z" />
         <path
       id="snout"
       style="fill:#e7799e;fill-opacity:1;stroke:#000000;stroke-width:20;stroke-miterlimit:4;stroke-dasharray:none;stroke-opacity:1"
       d="M 155.14994,388.03845 C 84.296801,379.3272 42.116761,360.42082 40.057781,284.7814 37.859786,204.03506 91.002328,188.12527 153.74349,180.25476 c 63.23069,-7.93192 117.12987,-1.19013 115.78891,102.61643 0.25906,55.30299 1.20343,116.21339 -114.38246,105.16726 z"/>
         <path
       id="nos"
       style="fill:#000000;fill-opacity:1;stroke:none;stroke-width:0.263699"
       d="m 190.93555,241.76758 c -19.34268,0.14883 -19.47285,9.84225 -19.10352,43.25781 0.34598,31.30215 -0.13412,43.18206 19.33985,42.73047 19.67093,-0.33223 18.50426,-16.41963 19.21874,-43.52148 -0.0235,-34.99049 -3.90241,-42.58647 -19.45507,-42.4668 z m -73.46094,0.79492 c -23.13293,0.11967 -19.472846,9.8403 -19.103516,43.25586 0.34598,31.30215 -0.892094,42.80307 19.339846,42.73047 22.70285,-0.33223 18.50622,-20.96751 19.2207,-43.52149 -0.0236,-34.99049 -0.11459,-42.5649 -19.45703,-42.46484 z" />
         <path
       id="eyes"
       style="display:inline;fill:#000000;fill-opacity:1;stroke:none;stroke-width:0.186116"
       d="m 295.42238,87.823746 c -12.17647,2.438366 -19.0206,10.520828 -19.10352,23.548324 -0.0993,15.59628 5.74519,25.51058 19.33985,25.28563 10.62584,-0.1655 22.50426,-6.33778 23.21874,-25.67966 -0.0235,-14.716539 -8.20506,-26.208145 -23.45507,-23.154294 z m -105.46094,2.395979 c -10.33375,1.971581 -17.47285,4.901819 -17.10351,21.547355 0.34598,15.59276 2.53496,19.51277 17.33984,21.28563 12.30099,-0.1655 18.50622,-10.4447 19.2207,-21.67967 -1.38036,-11.0985 -0.45724,-24.778293 -19.45703,-21.153315 z"/>
         </g>
    </g>

     <g mask="url(#poo-mask)" >
       <g id="spirals" transform="translate(420,450) rotate(975)" style="fill:none;stroke-width:80px;stroke-linecap:round;">
    <path id="spiral1" class="sprial" style="stroke:url(#rg1);" d="M0,0C3.36,0.06,6.6,-2.82,7.07,-7.07C7.66,-11.26,5.28,-16.67,0,-20C-5.18,-23.4,-13.27,-24.43,-21.21,-21.21C-29.13,-18.12,-36.69,-10.51,-40,0C-43.42,10.46,-42.3,23.68,-35.36,35.36C-28.53,47,-15.79,56.71,0,60C15.69,63.43,34.14,60.2,49.5,49.5C64.88,38.98,76.71,21.03,80,0C83.43,-20.92,78.08,-44.6,63.64,-63.64C49.44,-82.74,26.27,-96.74,0,-100C-26.16,-103.45,-55.05,-95.94,-77.78,-77.78C-100.6,-59.88,-116.76,-31.53,-120,0C-123.48,31.43,-113.8,65.49,-91.92,91.92C-70.34,118.47,-36.76,136.79,0,140C36.66,143.5,75.94,131.67,106.07,106.07C136.34,80.79,156.81,42,160,0C163.53,-41.9,149.54,-86.4,120.21,-120.21C91.24,-154.2,47.24,-176.83,0,-180C-47.13,-183.56,-96.85,-167.4,-134.35,-134.35C-172.06,-101.7,-196.86,-52.47,-200,0C-203.55,52.4,-185.28,107.29,-148.49,148.49C-112.14,189.9,-57.74,216.9,0,220C57.63,223.58,117.75,203.14,162.63,162.63C207.77,122.6,236.92,62.97,240,0C243.62,-62.86,220.98,-128.21,176.78,-176.78C133.05,-225.63,68.21,-256.95,0,-260C-68.13,-263.64,-138.65,-238.85,-190.92,-190.92C-243.49,-143.49,-276.98,-73.47,-280,0C-283.66,73.36,-256.71,149.1,-205.06,205.06C-153.94,261.36,-78.71,297,0,300C78.6,303.69,159.56,274.58,219.2,219.2C279.23,164.4,317.02,83.94,320,0C323.72,-83.84,292.44,-170.01,233.35,-233.35C174.84,-297.12,89.21,-337.04,0,-340C-89.07,-343.71,-180.46,-310.32,-247.49,-247.49C-315,-185.31,-357.03,-94.41,-360,0C-363.74,94.33,-328.18,190.91,-261.63,261.63C-195.75,332.86,-99.67,377.06,0,380C99.57,383.76,201.36,346.05,275.77,275.77C350.73,206.2,397.08,104.91,400,0"/>
        </g>
      </g>
</svg>
