<?xml version="1.0" encoding="UTF-8" standalone="no"?>
<svg
   version="1.1"
   id="Layer_1"
   x="0px"
   y="0px"
   viewBox="0 0 600 600"
   xml:space="preserve"
   width="600"
   height="600"
   xmlns="http://www.w3.org/2000/svg"
   xmlns:svg="http://www.w3.org/2000/svg">
   
   <style
   type="text/css"
   id="style824">
     .hair{
       opacity:1;
       fill:#413735;
       fill-opacity:1;
     }
     .head{
       opacity:1;
       fill:#f1c0b1;
       fill-opacity:1;
     }
     .nose{
       opacity:1;
       fill:#CE9691;
       fill-opacity:1;
     }
     .rims{
       opacity:1;
       fill:#0a0b0f;
       fill-opacity:1;
     }
     .lens{
       opacity:1;
       fill:#899387;
       fill-opacity:1;
     }
     .beard{
       opacity:1;
       fill:#ffffff;
       fill-opacity:1;
     }
   </style>

  <defs>
    <radialGradient id="rg1" cx="0.474" cy="0.472" r="50%">
      <stop offset="5%" style="stop-color:#CB70FE;"/>
      <stop offset="15%" style="stop-color:#FC49F5;"/>
      <stop offset="30%" style="stop-color:#FC4EA7;"/>
      <stop offset="40%" style="stop-color:#FD5258;"/>
      <stop offset="75%" style="stop-color:#FECE7A;"/>
      <stop offset="90%" style="stop-color:#7EFF7A;"/>
      <stop offset="100%" style="stop-color:#7EFFFF;"/>
    </radialGradient>
    
    <mask id="beard-mask">
      <path
    id="beard"
    class="beard"
    d="m 377.32227,270.76758 c 0,0 -39.70927,109.8299 -76.42579,118.78515 -9.40302,-17.9105 4.31204,-46.11743 -15.67187,-53.2832 -31.55987,-11.31664 -71.05856,-27.62999 -91.32813,-4.18555 -15.07809,17.4398 14.68979,53.78176 11.17969,54.78321 -14.73301,4.20341 -25.21493,-47.43669 -28.32812,-47.67383 -3.38491,17.24688 -28.43256,76.52852 -25.52735,93.0957 2.9052,16.56718 -5.38251,37.87417 -7.80859,48.01758 -1.53026,6.398 1.61314,28.55795 9.125,42.80859 6.12207,11.6141 15.85521,15.84971 22.52734,19.40821 14.85891,7.92483 23.8739,5.24894 35.33985,6.92383 12.77158,1.86561 28.23098,4.08869 41.56836,1.21484 16.92341,-3.64654 27.83408,-13.39327 44.46093,-19.58789 19.5843,-7.29647 42.2873,-19.37159 49.66993,-21.98633 18.15401,-6.42967 2.25548,-25.05623 21.95703,-46.54883 19.70155,-21.4926 12.09045,-48.80735 30.89648,-62.24023 18.80602,-13.43287 15.22326,-41.19266 9.40235,-52.38672 -5.82092,-11.19406 -9.14258,-74.22656 -9.14258,-74.22656 z m -159.625,69.1543 c 3.96469,0.0428 6.19376,0.35758 19.18359,1.52343 10.9194,0.98002 7.23684,-2.85479 22.44915,-1.07229 9.56959,1.97839 12.80926,0.6115 19.03,5.74419 3.40894,2.8127 8.4939,4.78411 10.43415,11.16727 1.56166,5.13768 -2.53475,15.81435 -4.40828,22.05026 -2.65208,8.82724 -3.54562,21.65975 -9.24578,27.4819 -4.08004,4.16735 -11.12886,4.55413 -21.74752,3.88449 -25.45383,-1.60519 -31.68746,4.66979 -35.35648,1.91803 -3.66902,-2.75177 -6.82668,-11.82704 -4.77438,-20.49225 2.06383,-8.71392 0.11118,-27.95197 -2.52149,-31.41601 -4.35696,-5.73284 -1.37738,-18.80416 4.35547,-20.63867 0.36609,-0.11715 1.28,-0.16466 2.60157,-0.15039 z"/>
    </mask>
  </defs>

<g transform="scale(1, 1) translate(0, 0)">
<g transform="rotate(4, 300, 200)">
   <path
     id="head"
     class="head"
     d="m 453.51334,274.25497 c -10.31224,54.65367 -49.8661,89.25168 -88.22486,110.79454 -41.43901,23.27279 -61.60282,62.81613 -101.9923,62.81613 -19.19936,0 -28.69036,3.38731 -44.57404,-4.23328 -16.7108,-8.01743 -12.59132,-15.66028 -24.59333,-36.4478 -6.00436,-10.39955 -9.2238,-47.4176 -14.14678,-59.30116 -7.3635,-17.77472 -8.76349,-26.44167 -12.04939,-47.12498 -2.93367,-18.46617 7.32981,-19.18802 7.32981,-39.08382 0,-9.29546 -6.20638,-16.28847 -7.49646,-24.67944 -1.40141,-9.11513 3.06667,-18.25242 4.77122,-27.82536 2.08939,-11.73418 -1.41049,-18.24488 2.74134,-30.24356 6.82355,-19.71988 14.14829,-40.66405 27.6562,-55.4096 31.54104,-34.430936 73.97236,-59.97706 101.69693,-60.344693 43.03855,-0.570699 128.73938,12.320642 154.68039,57.043253 21.13661,36.43977 3.95748,102.33299 -5.79873,154.03977 z"
 />
     
     <path
     id="hair"
     class="hair"
     d="m 203.02678,122.82643 c -11.67728,-27.003708 4.24488,-45.464472 4.24488,-45.464472 0,0 18.71503,-50.379349 110.76843,-30.402382 C 409.83295,66.88 488.25613,71.52332 485.33681,175.88898 c -2.91932,104.36566 -42.33012,129.17987 -42.33012,129.17987 0,0 -0.0459,0.72859 0,0 1.93007,-30.62683 11.38523,-75.04512 -10.94745,-78.82161 -22.33268,-3.7765 -32.84234,47.43893 -32.84234,47.43893 l -21.8949,-2.91932 c 0,0 12.40711,-40.87046 -8.02812,-58.38638 -20.43524,-17.51591 -37.95115,-33.57217 -37.95115,-33.57217 0,0 -2.18949,-6.56847 18.24574,-24.81421 20.43524,-18.24575 39.06973,-33.69145 2.18949,-43.78979 -66.32588,-18.160973 -148.75118,12.62213 -148.75118,12.62213 z"/>
     
     <path
     id="nose"
     class="nose"
     d="m 239.73737,300.10635 c 0,14.97748 -22.90743,6.64508 -29.45388,6.64509 -6.54645,-10e-6 -19.36614,7.61397 -19.39646,-7.36348 -0.003,-1.53624 0.59574,-5.2254 0.59574,-5.2254 3.12364,-7.08985 7.59724,-16.42355 13.26502,-26.41267 6.91513,-12.18747 13.26647,-25.03038 16.49527,-25.03038 6.54645,0 18.49431,42.40936 18.49431,57.38684 z" />
     
     <path
     id="rims"
     class="rims"
     d="m 289.24219,220.69336 c 0,0 -38.00152,-0.16616 -50.67969,3.24023 -7.40508,1.98961 -19.2275,9.40419 -20.58594,12.95703 -1.35844,3.55285 -0.52148,3.34376 -0.52148,3.34376 -3.74107,0.021 -9.49754,0.66271 -12.63672,0.87308 0,0 -2.31193,-2.48612 -2.76563,-2.875 -8.30352,-7.1173 -19.96773,-6.17074 -29.25976,-6.05078 -9.29966,0.12005 -8.14581,-0.2583 -14.63086,0.71289 -6.48505,0.97119 -20.19309,4.45277 -23.72461,6.91992 0,0 -2.56906,6.25925 0.39648,9.48828 2.96554,-0.79081 3.78907,6.95313 3.78907,6.95313 l 4.21289,0.55078 c -0.84529,4.05868 6.97968,37.19351 15.2832,41.54297 8.30352,4.34946 20.94252,2.11033 26.5957,-1.18555 6.13616,-3.57745 13.22613,-11.93461 16.65039,-21.97851 2.64078,-7.74584 6.09186,-23.1441 3.93664,-32.20072 3.09293,-0.44909 9.29366,-0.43975 12.15321,-0.97311 0,0 3.05606,3.26747 3.9707,6.16406 0.66566,2.10807 2.62901,8.18227 4.54278,13.1108 1.4106,3.63273 1.97059,6.47874 4.10286,10.17812 1.99792,3.46629 4.74453,7.04457 9.37938,10.62406 5.14596,3.97421 11.46071,5.78244 15.41248,6.26574 3.8452,0.47027 14.33849,0.25783 21.02539,-2.05177 3.31911,-1.14639 8.81661,-4.86505 10.95313,-7.42187 2.95814,-3.5401 4.73708,-7.44067 5.55664,-12.83008 0.97598,-6.418 0.88492,-12.05258 1.10547,-13.26562 0.41794,-2.29889 -0.39487,-11.2444 1.12695,-15.5 1.52181,-4.25559 3.81266,-6.36559 6.94336,-9.58985 l 108.46484,2.61133 -0.3125,-7.83594 z"/>
     
     <path
     id="lensr"
     class="lens"
     d="m 201.66785,268.53975 c -4.91707,21.28786 -19.14086,30.06103 -29.51905,30.26717 -6.05408,0.12025 -11.84301,-0.42174 -14.15933,-2.71067 -1.59642,-1.57754 -4.82396,-7.00794 -7.28298,-13.18815 -2.07969,-5.22684 -3.63767,-12.21295 -4.14975,-15.66608 -0.60925,-4.10835 -1.95461,-12.28132 -1.67906,-16.68124 0.32005,-5.11065 2.33386,-8.3876 4.64467,-11.10007 2.24478,-2.63496 11.46506,-4.6015 21.74946,-4.6015 7.65988,0 24.36972,-1.72264 29.42145,4.8809 2.07093,2.70709 3.64556,6.28517 3.7833,10.82727 0.18438,6.0799 -1.74573,13.37033 -2.80871,17.97237 z"/>
     
     <path
     id="lensl"
     class="lens"
     d="m 290.74907,259.7342 c 0,14.91339 -7.74566,27.39848 -29.49434,27.39848 -21.74868,0 -29.43438,-12.36105 -33.8438,-26.60766 -1.97703,-6.38768 -4.59502,-17.43414 0.22413,-24.1838 5.7763,-8.09024 21.96069,-11.7159 33.81737,-11.7159 9.6918,0 20.31992,-1.7229 24.96039,4.04346 5.77289,7.17352 4.33625,22.79784 4.33625,31.06542 z"/>
     
     <path
     id="nose2"
     class="nose"
     d="m 210.28349,306.75144 c -6.54645,-10e-6 -19.36614,7.61397 -19.39646,-7.36348 -0.003,-1.53624 0.59574,-5.2254 0.59574,-5.2254 3.12364,-7.08985 7.59724,-16.42355 13.26502,-26.41267 17.58672,11.47161 12.72362,31.45614 5.5357,39.00155 z" />
     
     
     <g mask="url(#beard-mask)" >
       <g id="spirals" transform="translate(320,250) rotate(300)" style="fill:none;stroke-width:80px;stroke-linecap:round;">
    <path id="spiral1" class="sprial" style="stroke:url(#rg1);" d="M0,0C3.36,0.06,6.6,-2.82,7.07,-7.07C7.66,-11.26,5.28,-16.67,0,-20C-5.18,-23.4,-13.27,-24.43,-21.21,-21.21C-29.13,-18.12,-36.69,-10.51,-40,0C-43.42,10.46,-42.3,23.68,-35.36,35.36C-28.53,47,-15.79,56.71,0,60C15.69,63.43,34.14,60.2,49.5,49.5C64.88,38.98,76.71,21.03,80,0C83.43,-20.92,78.08,-44.6,63.64,-63.64C49.44,-82.74,26.27,-96.74,0,-100C-26.16,-103.45,-55.05,-95.94,-77.78,-77.78C-100.6,-59.88,-116.76,-31.53,-120,0C-123.48,31.43,-113.8,65.49,-91.92,91.92C-70.34,118.47,-36.76,136.79,0,140C36.66,143.5,75.94,131.67,106.07,106.07C136.34,80.79,156.81,42,160,0C163.53,-41.9,149.54,-86.4,120.21,-120.21C91.24,-154.2,47.24,-176.83,0,-180C-47.13,-183.56,-96.85,-167.4,-134.35,-134.35C-172.06,-101.7,-196.86,-52.47,-200,0C-203.55,52.4,-185.28,107.29,-148.49,148.49C-112.14,189.9,-57.74,216.9,0,220C57.63,223.58,117.75,203.14,162.63,162.63C207.77,122.6,236.92,62.97,240,0C243.62,-62.86,220.98,-128.21,176.78,-176.78C133.05,-225.63,68.21,-256.95,0,-260C-68.13,-263.64,-138.65,-238.85,-190.92,-190.92C-243.49,-143.49,-276.98,-73.47,-280,0C-283.66,73.36,-256.71,149.1,-205.06,205.06C-153.94,261.36,-78.71,297,0,300C78.6,303.69,159.56,274.58,219.2,219.2C279.23,164.4,317.02,83.94,320,0C323.72,-83.84,292.44,-170.01,233.35,-233.35C174.84,-297.12,89.21,-337.04,0,-340C-89.07,-343.71,-180.46,-310.32,-247.49,-247.49C-315,-185.31,-357.03,-94.41,-360,0C-363.74,94.33,-328.18,190.91,-261.63,261.63C-195.75,332.86,-99.67,377.06,0,380C99.57,383.76,201.36,346.05,275.77,275.77C350.73,206.2,397.08,104.91,400,0"/>
        </g>
      </g>
</g>
</g>
</svg>
